<svg width="16" height="16" viewBox="0 0 16 16" fill="none" xmlns="http://www.w3.org/2000/svg">
<path d="M9.98853 2.8698C9.80745 2.84582 9.64716 2.74064 9.55306 2.58408L8.5298 0.881518C8.29311 0.487697 7.71971 0.495178 7.49338 0.895041L6.51026 2.63191C6.42039 2.79068 6.26317 2.89993 6.08303 2.92879L3.76844 3.29963C3.27641 3.37846 3.08934 3.98801 3.45245 4.32928L5.12119 5.89769C5.26553 6.03335 5.33361 6.23151 5.30313 6.42723L4.95161 8.68402C4.87507 9.17536 5.39513 9.5412 5.8317 9.30314L7.83794 8.20916C8.01133 8.1146 8.22015 8.11144 8.39633 8.20069L10.4344 9.23314C10.878 9.45787 11.3867 9.07637 11.2953 8.58756L10.8741 6.3366C10.8383 6.14531 10.8975 5.94855 11.0329 5.80878L12.6084 4.1825C12.9514 3.8285 12.7449 3.23494 12.2563 3.17021L9.98853 2.8698Z" fill="url(#paint0_linear_8301_19928)"/>
<path d="M4.05664 15.9998H11.9448L10.0698 14.1248H8.87111L9.48423 9.80228L8.13164 9.11719L6.54305 9.98334L7.13008 14.1248H5.93164L4.05664 15.9998Z" fill="url(#paint1_linear_8301_19928)"/>
<defs>
<linearGradient id="paint0_linear_8301_19928" x1="8" y1="0" x2="8" y2="9.88506" gradientUnits="userSpaceOnUse">
<stop stop-color="#0C1B22"/>
<stop offset="1" stop-color="#44D8BE"/>
</linearGradient>
<linearGradient id="paint1_linear_8301_19928" x1="8.00073" y1="9.11719" x2="8.00073" y2="15.9998" gradientUnits="userSpaceOnUse">
<stop stop-color="#0C1B22"/>
<stop offset="1" stop-color="#44D8BE"/>
</linearGradient>
</defs>
</svg>
