<svg width="17" height="16" viewBox="0 0 17 16" fill="none" xmlns="http://www.w3.org/2000/svg">
<g clip-path="url(#clip0_8301_17305)">
<path d="M15.9232 13.4953L14.0883 9.56055C13.0752 11.0358 11.4933 12.0862 9.66211 12.4048L11.1981 15.6985C11.3945 16.12 12.0022 16.0919 12.1604 15.6566L12.9477 13.494L13.1099 13.4184L15.2726 14.2056C15.7065 14.3649 16.1193 13.9151 15.9232 13.4953Z" fill="url(#paint0_linear_8301_17305)"/>
<path d="M8.5005 0C5.33844 0 2.76562 2.57266 2.76562 5.73488C2.76562 8.89709 5.33847 11.4698 8.5005 11.4698C11.6626 11.4698 14.2354 8.89709 14.2354 5.73488C14.2354 2.57266 11.6626 0 8.5005 0ZM11.2909 5.3135L10.274 6.30481L10.5143 7.70494C10.5878 8.13241 10.1374 8.45356 9.75775 8.25447L8.50053 7.59359L7.24331 8.25444C6.86147 8.45494 6.41366 8.13 6.48672 7.70491L6.72703 6.30478L5.71012 5.31347C5.40106 5.01216 5.57259 4.48619 5.99903 4.42422L7.40456 4.22006L8.03319 2.94653C8.22341 2.55978 8.77753 2.55944 8.96797 2.94653L9.59659 4.22006L11.0021 4.42422C11.4285 4.48616 11.6 5.01216 11.2909 5.3135Z" fill="url(#paint1_linear_8301_17305)"/>
<path d="M2.91055 9.56055L1.07567 13.4953C0.878643 13.9171 1.29514 14.3644 1.72633 14.2055L3.88895 13.4183L4.0512 13.4939L4.83849 15.6566C4.99633 16.0909 5.60399 16.1209 5.80077 15.6985L7.33677 12.4047C5.50561 12.0862 3.92374 11.0358 2.91055 9.56055Z" fill="url(#paint2_linear_8301_17305)"/>
</g>
<defs>
<linearGradient id="paint0_linear_8301_17305" x1="12.8177" y1="9.56055" x2="12.8177" y2="15.9994" gradientUnits="userSpaceOnUse">
<stop stop-color="#0C1B22"/>
<stop offset="1" stop-color="#44D8BE"/>
</linearGradient>
<linearGradient id="paint1_linear_8301_17305" x1="8.5005" y1="0" x2="8.5005" y2="11.4698" gradientUnits="userSpaceOnUse">
<stop stop-color="#0C1B22"/>
<stop offset="1" stop-color="#44D8BE"/>
</linearGradient>
<linearGradient id="paint2_linear_8301_17305" x1="4.18108" y1="9.56055" x2="4.18108" y2="15.9994" gradientUnits="userSpaceOnUse">
<stop stop-color="#0C1B22"/>
<stop offset="1" stop-color="#44D8BE"/>
</linearGradient>
<clipPath id="clip0_8301_17305">
<rect width="16" height="16" fill="white" transform="translate(0.5)"/>
</clipPath>
</defs>
</svg>
