<svg width="16" height="16" viewBox="0 0 16 16" fill="none" xmlns="http://www.w3.org/2000/svg">
<g clip-path="url(#clip0_4880_31049)">
<path d="M8 16C12.4183 16 16 12.4183 16 8C16 3.58172 12.4183 0 8 0C3.58172 0 0 3.58172 0 8C0 12.4183 3.58172 16 8 16Z" fill="#F0F0F0"/>
<path d="M7.65216 7.99908H16C16 7.27698 15.9037 6.57755 15.7244 5.91211H7.65216V7.99908Z" fill="#D80027"/>
<path d="M7.65216 3.82525H14.8258C14.3361 3.02612 13.71 2.31978 12.9799 1.73828H7.65216V3.82525Z" fill="#D80027"/>
<path d="M7.99999 15.9989C9.88277 15.9989 11.6133 15.3481 12.9799 14.2598H3.02008C4.38667 15.3481 6.11721 15.9989 7.99999 15.9989Z" fill="#D80027"/>
<path d="M1.17417 12.1729H14.8258C15.2189 11.5314 15.5238 10.8301 15.7244 10.0859H0.275574C0.476105 10.8301 0.781011 11.5314 1.17417 12.1729Z" fill="#D80027"/>
<path d="M8 8C8 3.58175 8 3.06087 8 0C3.58175 0 0 3.58175 0 8H8Z" fill="#0052B4"/>
<path d="M5.3198 6.84855C4.22724 6.84855 3.34155 5.96283 3.34155 4.8703C3.34155 3.77777 4.22727 2.89205 5.3198 2.89205C5.66046 2.89205 5.98099 2.9782 6.26083 3.12983C5.82183 2.70055 5.22146 2.43555 4.55893 2.43555C3.21427 2.43555 2.12415 3.52564 2.12415 4.87033C2.12415 6.21502 3.21427 7.30511 4.55893 7.30511C5.22146 7.30511 5.82183 7.04011 6.26083 6.61083C5.98099 6.76239 5.66049 6.84855 5.3198 6.84855Z" fill="#FFDA44"/>
<path d="M5.87726 3.47852L6.22848 4.21295L7.02163 4.0297L6.66645 4.76217L7.30432 5.26802L6.51013 5.44705L6.51235 6.26114L5.87726 5.75183L5.24213 6.26114L5.24432 5.44705L4.45013 5.26802L5.08801 4.76217L4.73279 4.0297L5.52601 4.21295L5.87726 3.47852Z" fill="#FFDA44"/>
</g>
<defs>
<clipPath id="clip0_4880_31049">
<rect width="16" height="16" fill="white"/>
</clipPath>
</defs>
</svg>
