<svg width="363" height="867" viewBox="0 0 363 867" fill="none" xmlns="http://www.w3.org/2000/svg">
<path d="M1 17.2617C1 11.5683 1 8.72164 2.108 6.54706C3.08263 4.63425 4.63779 3.07909 6.5506 2.10446C8.72518 0.99646 11.5719 0.99646 17.2652 0.99646H345.735C351.428 0.99646 354.275 0.99646 356.449 2.10446C358.362 3.07909 359.917 4.63425 360.892 6.54706C362 8.72164 362 11.5683 362 17.2617V433.583H1V17.2617Z" stroke="#ACB4C0"/>
<path d="M362 849.904C362 855.597 362 858.444 360.892 860.619C359.917 862.531 358.362 864.087 356.449 865.061C354.275 866.169 351.428 866.169 345.735 866.169L17.2653 866.169C11.5719 866.169 8.72521 866.169 6.55063 865.061C4.63782 864.087 3.08266 862.531 2.10803 860.619C1.00003 858.444 1.00003 855.597 1.00003 849.904L1.00007 433.583L362 433.583L362 849.904Z" stroke="#ACB4C0"/>
<path d="M224.074 433.173C224.074 456.651 205.014 475.686 181.5 475.686C157.987 475.686 138.926 456.651 138.926 433.173C138.926 409.694 157.987 390.66 181.5 390.66C205.014 390.66 224.074 409.694 224.074 433.173Z" stroke="#ACB4C0"/>
<path d="M42.0229 0.996094V49.5886H42.4844C48.2989 120.999 108.32 177.144 181.5 177.144C254.681 177.144 314.701 120.999 320.516 49.5886H320.977V0.996094H42.0229Z" stroke="#ACB4C0" stroke-width="0.722"/>
<path d="M320.977 865.35L320.977 816.757L320.516 816.757C314.701 745.347 254.68 689.202 181.5 689.202C108.319 689.202 48.2985 745.347 42.484 816.757L42.0225 816.757L42.0225 865.35L320.977 865.35Z" stroke="#ACB4C0" stroke-width="0.722"/>
<path d="M138.426 0.996094L138.426 98.1811H138.569C140.364 120.601 158.9 138.228 181.5 138.228C204.1 138.228 222.636 120.601 224.431 98.1811H224.574V0.996094H138.426Z" stroke="#ACB4C0" stroke-width="0.722"/>
<path d="M224.574 865.35L224.574 768.165L224.431 768.165C222.636 745.745 204.1 728.118 181.5 728.118C158.9 728.118 140.364 745.745 138.569 768.165L138.426 768.165L138.426 865.35L224.574 865.35Z" stroke="#ACB4C0" stroke-width="0.722"/>
<line x1="97.748" y1="67.059" x2="158.396" y2="67.059" stroke="#ACB4C0" stroke-width="0.722"/>
<line x1="158.396" y1="544.301" x2="97.748" y2="544.301" stroke="#ACB4C0" stroke-width="0.722"/>
</svg>
