<svg width="363" height="867" viewBox="0 0 363 867" fill="none" xmlns="http://www.w3.org/2000/svg">
<path d="M1 17.2617C1 11.5683 1 8.72164 2.108 6.54706C3.08263 4.63425 4.63779 3.07909 6.5506 2.10446C8.72518 0.99646 11.5719 0.99646 17.2652 0.99646H345.735C351.428 0.99646 354.275 0.99646 356.449 2.10446C358.362 3.07909 359.917 4.63425 360.892 6.54706C362 8.72164 362 11.5683 362 17.2617V433.583H1V17.2617Z" stroke="#ACB4C0"/>
<path d="M362 849.904C362 855.597 362 858.444 360.892 860.619C359.917 862.531 358.362 864.087 356.449 865.061C354.275 866.169 351.428 866.169 345.735 866.169L17.2653 866.169C11.5719 866.169 8.72521 866.169 6.55063 865.061C4.63782 864.087 3.08266 862.531 2.10803 860.619C1.00003 858.444 1.00003 855.597 1.00003 849.904L1.00007 433.583L362 433.583L362 849.904Z" stroke="#ACB4C0"/>
<path d="M1 17.2617C1 11.5683 1 8.72164 2.108 6.54706C3.08263 4.63425 4.63779 3.07909 6.5506 2.10446C8.72518 0.99646 11.5719 0.99646 17.2652 0.99646H28.436V12.1284C28.436 17.8217 28.436 20.6684 27.328 22.843C26.3534 24.7558 24.7982 26.311 22.8854 27.2856C20.7108 28.3936 17.8641 28.3936 12.1708 28.3936H1V17.2617Z" stroke="#ACB4C0"/>
<path d="M362 849.904C362 855.597 362 858.444 360.892 860.619C359.917 862.531 358.362 864.087 356.449 865.061C354.275 866.169 351.428 866.169 345.735 866.169L334.564 866.169L334.564 855.037C334.564 849.344 334.564 846.497 335.672 844.323C336.647 842.41 338.202 840.855 340.115 839.88C342.289 838.772 345.136 838.772 350.829 838.772L362 838.772L362 849.904Z" stroke="#ACB4C0"/>
<path d="M362 17.2618C362 11.5684 362 8.72176 360.892 6.54718C359.917 4.63437 358.362 3.07921 356.449 2.10458C354.275 0.996582 351.428 0.996582 345.735 0.996582H334.564V12.1285C334.564 17.8219 334.564 20.6685 335.672 22.8431C336.647 24.7559 338.202 26.3111 340.115 27.2857C342.289 28.3937 345.136 28.3937 350.829 28.3937H362V17.2618Z" stroke="#ACB4C0"/>
<path d="M1 849.904C1 855.597 1 858.444 2.108 860.619C3.08263 862.531 4.63779 864.087 6.5506 865.061C8.72518 866.169 11.5719 866.169 17.2652 866.169L28.436 866.169L28.436 855.037C28.436 849.344 28.436 846.497 27.328 844.323C26.3534 842.41 24.7982 840.855 22.8854 839.88C20.7108 838.772 17.8641 838.772 12.1708 838.772L1 838.772L1 849.904Z" stroke="#ACB4C0"/>
<ellipse cx="181.5" cy="433.583" rx="6.498" ry="6.48879" fill="#DEE1E3"/>
<path d="M250.312 433.583C250.312 471.532 219.504 502.297 181.5 502.297C143.496 502.297 112.688 471.532 112.688 433.583C112.688 395.634 143.496 364.869 181.5 364.869C219.504 364.869 250.312 395.634 250.312 433.583Z" stroke="#ACB4C0"/>
<path d="M158.618 772.155H204.104C227.97 772.155 247.543 802.186 249.44 840.382H249.59V866.374H113.132V840.382H113.283C115.18 802.186 134.753 772.155 158.618 772.155Z" stroke="#ACB4C0" stroke-width="0.722"/>
<path d="M204.104 95.2147L158.618 95.2147C134.753 95.2147 115.179 65.184 113.282 26.9879L113.132 26.9879L113.132 0.996087L249.59 0.996104L249.59 26.988L249.44 26.988C247.543 65.184 227.969 95.2147 204.104 95.2147Z" stroke="#ACB4C0" stroke-width="0.722"/>
</svg>
