<svg width="363" height="363" viewBox="0 0 363 363" fill="none" xmlns="http://www.w3.org/2000/svg">
<path d="M320.949 109.938L253.062 42.0513L253.005 41.9936C249.512 38.5007 247.699 36.6883 245.579 35.3888C243.699 34.2368 241.649 33.3879 239.505 32.8732C237.087 32.2926 234.524 32.2926 229.584 32.2926L229.503 32.2926L133.497 32.2926L133.415 32.2926C128.476 32.2926 125.913 32.2926 123.494 32.8731C121.35 33.3879 119.301 34.2368 117.421 35.3888C115.3 36.6883 113.488 38.5007 109.995 41.9936L109.937 42.0513L42.0512 109.938L41.9935 109.995C38.5006 113.488 36.6882 115.301 35.3887 117.421C34.2367 119.301 33.3877 121.351 32.873 123.494C32.2925 125.913 32.2925 128.476 32.2925 133.416L32.2925 133.497L32.2925 229.503L32.2925 229.584C32.2925 234.524 32.2925 237.087 32.873 239.506C33.3877 241.649 34.2367 243.699 35.3887 245.579C36.6882 247.699 38.5006 249.512 41.9936 253.005L42.0511 253.062L109.937 320.949L109.995 321.006C113.488 324.499 115.3 326.312 117.421 327.611C119.301 328.763 121.35 329.612 123.494 330.127C125.913 330.707 128.476 330.707 133.416 330.707H133.497H229.503H229.584C234.524 330.707 237.087 330.707 239.505 330.127C241.649 329.612 243.699 328.763 245.579 327.611C247.699 326.312 249.512 324.499 253.005 321.006L253.062 320.949L320.949 253.062L321.006 253.005C324.499 249.512 326.312 247.699 327.611 245.579C328.763 243.699 329.612 241.649 330.127 239.506C330.707 237.087 330.707 234.524 330.707 229.584V229.503V133.497V133.416C330.707 128.476 330.707 125.913 330.127 123.494C329.612 121.351 328.763 119.301 327.611 117.421C326.312 115.301 324.499 113.488 321.006 109.995L320.949 109.938Z" stroke="#ACB4C0"/>
<circle cx="181.845" cy="181.845" r="6.498" fill="#DEE1E3"/>
<path d="M242.672 1C247.689 1 250.197 1 252.558 1.56673C254.651 2.06919 256.651 2.89794 258.487 4.02255C260.557 5.29101 262.33 7.06475 265.878 10.6122L352.388 97.1222C355.935 100.67 357.709 102.443 358.977 104.513C360.102 106.349 360.931 108.349 361.433 110.442C362 112.803 362 115.311 362 120.328V242.672C362 247.689 362 250.197 361.433 252.558C360.931 254.651 360.102 256.651 358.977 258.487C357.709 260.557 355.935 262.33 352.388 265.878L265.878 352.388C262.33 355.935 260.557 357.709 258.487 358.977C256.651 360.102 254.651 360.931 252.558 361.433C250.197 362 247.689 362 242.672 362H120.328C115.311 362 112.803 362 110.442 361.433C108.349 360.931 106.349 360.102 104.513 358.977C102.443 357.709 100.67 355.935 97.1222 352.388L10.6122 265.878C7.06474 262.33 5.29101 260.557 4.02255 258.487C2.89794 256.651 2.06919 254.651 1.56673 252.558C1 250.197 1 247.689 1 242.672L1 120.328C1 115.311 1 112.803 1.56673 110.442C2.06919 108.349 2.89794 106.349 4.02255 104.513C5.29101 102.443 7.06475 100.67 10.6122 97.1222L97.1222 10.6122C100.67 7.06475 102.443 5.29101 104.513 4.02255C106.349 2.89794 108.349 2.06919 110.442 1.56673C112.803 1 115.311 1 120.328 1L242.672 1Z" stroke="#ACB4C0"/>
<line x1="187.653" y1="182.013" x2="330.207" y2="182.013" stroke="#DEE1E3" stroke-width="1.02557"/>
<line x1="32.7925" y1="182.013" x2="177.398" y2="182.013" stroke="#DEE1E3" stroke-width="1.02557"/>
<line x1="182.013" y1="175.347" x2="182.013" y2="32.7926" stroke="#DEE1E3" stroke-width="1.02557"/>
<line x1="182.013" y1="330.207" x2="182.013" y2="185.602" stroke="#DEE1E3" stroke-width="1.02557"/>
</svg>
