<svg width="363" height="867" viewBox="0 0 363 867" fill="none" xmlns="http://www.w3.org/2000/svg">
<path d="M1 17.2617C1 11.5683 1 8.72164 2.108 6.54706C3.08263 4.63425 4.63779 3.07909 6.5506 2.10446C8.72518 0.99646 11.5719 0.99646 17.2652 0.99646H345.735C351.428 0.99646 354.275 0.99646 356.449 2.10446C358.362 3.07909 359.917 4.63425 360.892 6.54706C362 8.72164 362 11.5683 362 17.2617V433.583H1V17.2617Z" stroke="#ACB4C0"/>
<path d="M362 849.904C362 855.598 362 858.444 360.892 860.619C359.917 862.532 358.362 864.087 356.449 865.062C354.275 866.17 351.428 866.17 345.735 866.17L17.2653 866.17C11.5719 866.17 8.72521 866.17 6.55063 865.062C4.63782 864.087 3.08266 862.532 2.10803 860.619C1.00003 858.444 1.00003 855.598 1.00003 849.904L1.00007 433.583L362 433.583L362 849.904Z" stroke="#ACB4C0"/>
<path d="M362 559.139L1.00003 559.139L1.00004 433.173L362 433.173L362 559.139Z" stroke="#ACB4C0"/>
<path d="M362 307.207L1.00003 307.207L1.00004 433.173L362 433.173L362 307.207Z" stroke="#ACB4C0"/>
<line x1="181.861" y1="0.996094" x2="181.861" y2="307.207" stroke="#ACB4C0" stroke-width="0.722"/>
<line x1="181.861" y1="559.139" x2="181.861" y2="865.35" stroke="#ACB4C0" stroke-width="0.722"/>
</svg>
