<svg width="363" height="867" viewBox="0 0 363 867" fill="none" xmlns="http://www.w3.org/2000/svg">
<path d="M362 849.902C362 855.596 362 858.442 360.892 860.617C359.917 862.53 358.362 864.085 356.449 865.06C354.275 866.168 351.428 866.168 345.735 866.168H17.2653C11.5719 866.168 8.72521 866.168 6.55063 865.06C4.63782 864.085 3.08266 862.53 2.10803 860.617C1.00003 858.442 1.00003 855.596 1.00003 849.902L1.00003 433.581L362 433.581L362 849.902Z" stroke="#ACB4C0"/>
<path d="M0.999999 17.2601C0.999999 11.5667 0.999999 8.72005 2.108 6.54547C3.08263 4.63266 4.63779 3.0775 6.5506 2.10288C8.72518 0.994874 11.5719 0.994874 17.2652 0.994874L345.735 0.994903C351.428 0.994904 354.275 0.994904 356.449 2.10291C358.362 3.07753 359.917 4.63269 360.892 6.54551C362 8.72008 362 11.5668 362 17.2601L362 433.581L0.999962 433.581L0.999999 17.2601Z" stroke="#ACB4C0"/>
<path d="M1 549.716L362 549.716L362 434.333L0.99999 434.333L1 549.716Z" stroke="#ACB4C0"/>
<path d="M1 665.441L362 665.441L362 550.058L0.99999 550.058L1 665.441Z" stroke="#ACB4C0"/>
<path d="M61.5215 781.166C61.5215 781.443 61.7453 781.666 62.0215 781.666C62.2976 781.666 62.5215 781.443 62.5215 781.166L61.5215 781.166ZM62.5215 781.166L62.5215 776.827L61.5215 776.827L61.5215 781.166L62.5215 781.166ZM62.5215 768.147L62.5215 759.468L61.5215 759.468L61.5215 768.147L62.5215 768.147ZM62.5215 750.789L62.5215 742.109L61.5215 742.109L61.5215 750.789L62.5215 750.789ZM62.5215 733.43L62.5215 724.75L61.5215 724.75L61.5215 733.43L62.5215 733.43ZM62.5215 716.071L62.5215 707.392L61.5215 707.392L61.5215 716.071L62.5215 716.071ZM62.5215 698.712L62.5215 690.033L61.5215 690.033L61.5215 698.712L62.5215 698.712ZM62.5215 681.354L62.5215 672.674L61.5215 672.674L61.5215 681.354L62.5215 681.354ZM62.5215 663.995L62.5215 655.315L61.5215 655.315L61.5215 663.995L62.5215 663.995ZM62.5215 646.636L62.5215 637.957L61.5215 637.957L61.5215 646.636L62.5215 646.636ZM62.5215 629.277L62.5215 620.598L61.5215 620.598L61.5215 629.277L62.5215 629.277ZM62.5215 611.918L62.5215 603.239L61.5215 603.239L61.5215 611.918L62.5215 611.918ZM62.5215 594.56L62.5215 585.88L61.5215 585.88L61.5215 594.56L62.5215 594.56ZM62.5215 577.201L62.5215 568.522L61.5215 568.522L61.5215 577.201L62.5215 577.201ZM62.5215 559.842L62.5215 551.163L61.5215 551.163L61.5215 559.842L62.5215 559.842ZM62.5215 542.483L62.5215 533.804L61.5215 533.804L61.5215 542.483L62.5215 542.483ZM62.5215 525.125L62.5215 516.445L61.5215 516.445L61.5215 525.125L62.5215 525.125ZM62.5215 507.766L62.5215 499.086L61.5215 499.086L61.5215 507.766L62.5215 507.766ZM62.5215 490.407L62.5215 481.728L61.5215 481.728L61.5215 490.407L62.5215 490.407ZM62.5215 473.048L62.5215 464.369L61.5215 464.369L61.5215 473.048L62.5215 473.048ZM62.5215 455.69L62.5215 447.01L61.5215 447.01L61.5215 455.69L62.5215 455.69ZM62.5215 438.331L62.5215 429.651L61.5215 429.651L61.5215 438.331L62.5215 438.331ZM62.5215 420.972L62.5215 412.293L61.5215 412.293L61.5215 420.972L62.5215 420.972ZM62.5215 403.613L62.5215 394.934L61.5215 394.934L61.5215 403.613L62.5215 403.613ZM62.5215 386.255L62.5215 377.575L61.5215 377.575L61.5215 386.255L62.5215 386.255ZM62.5215 368.896L62.5215 360.216L61.5215 360.216L61.5215 368.896L62.5215 368.896ZM62.5215 351.537L62.5215 342.858L61.5215 342.858L61.5215 351.537L62.5215 351.537ZM62.5215 334.178L62.5215 325.499L61.5215 325.499L61.5215 334.178L62.5215 334.178ZM62.5215 316.819L62.5215 308.14L61.5215 308.14L61.5215 316.819L62.5215 316.819ZM62.5215 299.461L62.5215 290.781L61.5215 290.781L61.5215 299.461L62.5215 299.461ZM62.5215 282.102L62.5215 273.423L61.5215 273.423L61.5215 282.102L62.5215 282.102ZM62.5215 264.743L62.5215 256.064L61.5215 256.064L61.5215 264.743L62.5215 264.743ZM62.5215 247.384L62.5215 238.705L61.5215 238.705L61.5215 247.384L62.5215 247.384ZM62.5215 230.026L62.5215 221.346L61.5215 221.346L61.5215 230.026L62.5215 230.026ZM62.5215 212.667L62.5215 203.988L61.5215 203.988L61.5215 212.667L62.5215 212.667ZM62.5215 195.308L62.5215 186.629L61.5215 186.629L61.5215 195.308L62.5215 195.308ZM62.5215 177.949L62.5215 169.27L61.5215 169.27L61.5215 177.949L62.5215 177.949ZM62.5215 160.591L62.5215 151.911L61.5215 151.911L61.5215 160.591L62.5215 160.591ZM62.5215 143.232L62.5215 134.552L61.5215 134.552L61.5215 143.232L62.5215 143.232ZM62.5215 125.873L62.5215 117.194L61.5215 117.194L61.5215 125.873L62.5215 125.873ZM62.5215 108.514L62.5215 99.8349L61.5215 99.8349L61.5215 108.514L62.5215 108.514ZM62.5215 91.1555L62.5215 86.8161L61.5215 86.8161L61.5215 91.1555L62.5215 91.1555Z" fill="#ACB4C0"/>
<path d="M299.453 781.166C299.453 781.443 299.677 781.666 299.953 781.666C300.229 781.666 300.453 781.443 300.453 781.166L299.453 781.166ZM300.453 781.166L300.453 776.827L299.453 776.827L299.453 781.166L300.453 781.166ZM300.453 768.147L300.453 759.468L299.453 759.468L299.453 768.147L300.453 768.147ZM300.453 750.789L300.453 742.109L299.453 742.109L299.453 750.789L300.453 750.789ZM300.453 733.43L300.453 724.75L299.453 724.75L299.453 733.43L300.453 733.43ZM300.453 716.071L300.453 707.392L299.453 707.392L299.453 716.071L300.453 716.071ZM300.453 698.712L300.453 690.033L299.453 690.033L299.453 698.712L300.453 698.712ZM300.453 681.354L300.453 672.674L299.453 672.674L299.453 681.354L300.453 681.354ZM300.453 663.995L300.453 655.315L299.453 655.315L299.453 663.995L300.453 663.995ZM300.453 646.636L300.453 637.957L299.453 637.957L299.453 646.636L300.453 646.636ZM300.453 629.277L300.453 620.598L299.453 620.598L299.453 629.277L300.453 629.277ZM300.453 611.918L300.453 603.239L299.453 603.239L299.453 611.918L300.453 611.918ZM300.453 594.56L300.453 585.88L299.453 585.88L299.453 594.56L300.453 594.56ZM300.453 577.201L300.453 568.522L299.453 568.522L299.453 577.201L300.453 577.201ZM300.453 559.842L300.453 551.163L299.453 551.163L299.453 559.842L300.453 559.842ZM300.453 542.483L300.453 533.804L299.453 533.804L299.453 542.483L300.453 542.483ZM300.453 525.125L300.453 516.445L299.453 516.445L299.453 525.125L300.453 525.125ZM300.453 507.766L300.453 499.086L299.453 499.086L299.453 507.766L300.453 507.766ZM300.453 490.407L300.453 481.728L299.453 481.728L299.453 490.407L300.453 490.407ZM300.453 473.048L300.453 464.369L299.453 464.369L299.453 473.048L300.453 473.048ZM300.453 455.69L300.453 447.01L299.453 447.01L299.453 455.69L300.453 455.69ZM300.453 438.331L300.453 429.651L299.453 429.651L299.453 438.331L300.453 438.331ZM300.453 420.972L300.453 412.293L299.453 412.293L299.453 420.972L300.453 420.972ZM300.453 403.613L300.453 394.934L299.453 394.934L299.453 403.613L300.453 403.613ZM300.453 386.255L300.453 377.575L299.453 377.575L299.453 386.255L300.453 386.255ZM300.453 368.896L300.453 360.216L299.453 360.216L299.453 368.896L300.453 368.896ZM300.453 351.537L300.453 342.858L299.453 342.858L299.453 351.537L300.453 351.537ZM300.453 334.178L300.453 325.499L299.453 325.499L299.453 334.178L300.453 334.178ZM300.453 316.819L300.453 308.14L299.453 308.14L299.453 316.819L300.453 316.819ZM300.453 299.461L300.453 290.781L299.453 290.781L299.453 299.461L300.453 299.461ZM300.453 282.102L300.453 273.423L299.453 273.423L299.453 282.102L300.453 282.102ZM300.453 264.743L300.453 256.064L299.453 256.064L299.453 264.743L300.453 264.743ZM300.453 247.384L300.453 238.705L299.453 238.705L299.453 247.384L300.453 247.384ZM300.453 230.026L300.453 221.346L299.453 221.346L299.453 230.026L300.453 230.026ZM300.453 212.667L300.453 203.988L299.453 203.988L299.453 212.667L300.453 212.667ZM300.453 195.308L300.453 186.629L299.453 186.629L299.453 195.308L300.453 195.308ZM300.453 177.949L300.453 169.27L299.453 169.27L299.453 177.949L300.453 177.949ZM300.453 160.591L300.453 151.911L299.453 151.911L299.453 160.591L300.453 160.591ZM300.453 143.232L300.453 134.552L299.453 134.552L299.453 143.232L300.453 143.232ZM300.453 125.873L300.453 117.194L299.453 117.194L299.453 125.873L300.453 125.873ZM300.453 108.514L300.453 99.8349L299.453 99.8349L299.453 108.514L300.453 108.514ZM300.453 91.1555L300.453 86.8161L299.453 86.8161L299.453 91.1555L300.453 91.1555Z" fill="#ACB4C0"/>
<path d="M1 318.607L362 318.607L362 433.991L0.99999 433.991L1 318.607Z" stroke="#ACB4C0"/>
<path d="M1 375.957L362 375.957L362 491.341L0.99999 491.341L1 375.957Z" stroke="#ACB4C0" stroke-linecap="round" stroke-linejoin="round" stroke-dasharray="8.66 8.66"/>
<path d="M1 202.882L362 202.882L362 318.266L0.99999 318.266L1 202.882Z" stroke="#ACB4C0"/>
<line x1="233.804" y1="781.69" x2="362" y2="781.69" stroke="#ACB4C0"/>
<line x1="233.804" y1="86.8274" x2="362" y2="86.8274" stroke="#ACB4C0"/>
<line x1="1" y1="781.69" x2="129.196" y2="781.69" stroke="#ACB4C0"/>
<line x1="1" y1="86.8274" x2="129.196" y2="86.8274" stroke="#ACB4C0"/>
<path d="M233.804 781.678C233.804 783.94 231.97 785.774 229.708 785.774H133.293C131.03 785.774 129.196 783.94 129.196 781.678V781.678C129.196 779.415 131.03 777.581 133.293 777.581H229.708C231.97 777.581 233.804 779.415 233.804 781.678V781.678Z" stroke="#ACB4C0"/>
<path d="M233.804 87.3274C233.804 89.5898 231.97 91.4238 229.708 91.4238L133.293 91.4238C131.03 91.4238 129.196 89.5898 129.196 87.3274V87.3274C129.196 85.065 131.03 83.2309 133.293 83.2309L229.708 83.2309C231.97 83.2309 233.804 85.065 233.804 87.3274V87.3274Z" stroke="#ACB4C0"/>
</svg>
