<svg width="363" height="867" viewBox="0 0 363 867" fill="none" xmlns="http://www.w3.org/2000/svg">
<path d="M0.5 11.1622C0.5 5.27168 5.27522 0.49646 11.1658 0.49646H351.834C357.725 0.49646 362.5 5.27168 362.5 11.1622H361.5C361.5 5.82397 357.172 1.49646 351.834 1.49646H11.1658C5.82751 1.49646 1.5 5.82397 1.5 11.1622H0.5ZM362.5 434.305H0.5L1.5 432.861H361.5L362.5 434.305ZM0.5 434.305V11.1622C0.5 5.27168 5.27522 0.49646 11.1658 0.49646V1.49646C5.82751 1.49646 1.5 5.82397 1.5 11.1622V432.861L0.5 434.305ZM351.834 0.49646C357.725 0.49646 362.5 5.27168 362.5 11.1622V434.305L361.5 432.861V11.1622C361.5 5.82397 357.172 1.49646 351.834 1.49646V0.49646Z" fill="#ACB4C0"/>
<mask id="mask0_938_6446" style="mask-type:alpha" maskUnits="userSpaceOnUse" x="-69" y="364" width="139" height="139">
<path d="M-68.3775 433.583C-68.3775 471.609 -37.5076 502.436 0.573502 502.436C38.6546 502.436 69.5245 471.609 69.5245 433.583C69.5245 395.557 38.6546 364.73 0.573502 364.73C0.431915 364.73 0.290428 364.731 0.14904 364.731C-37.7367 364.959 -68.3775 395.698 -68.3775 433.583Z" stroke="#ACB4C0" stroke-width="0.722"/>
</mask>
<g mask="url(#mask0_938_6446)">
<rect width="150.759" height="245.788" transform="matrix(-1 0 0 1 150.905 328.713)" fill="#D9D9D9"/>
</g>
<path d="M224.213 138.228C224.213 161.783 205.09 180.879 181.5 180.879C157.91 180.879 138.787 161.783 138.787 138.228C138.787 114.672 157.91 95.5757 181.5 95.5757C205.09 95.5757 224.213 114.672 224.213 138.228Z" stroke="#ACB4C0" stroke-width="0.722"/>
<path d="M224.213 729.142C224.213 752.698 205.09 771.794 181.5 771.794C157.91 771.794 138.787 752.698 138.787 729.142C138.787 705.587 157.91 686.49 181.5 686.49C205.09 686.49 224.213 705.587 224.213 729.142Z" stroke="#ACB4C0" stroke-width="0.722"/>
<path d="M362.5 856.003C362.5 861.894 357.725 866.669 351.834 866.669L11.1658 866.669C5.27525 866.669 0.500031 861.894 0.500031 856.003L1.50003 856.003C1.50003 861.342 5.82754 865.669 11.1658 865.669L351.834 865.669C357.172 865.669 361.5 861.342 361.5 856.003L362.5 856.003ZM0.500068 432.861L362.5 432.861L361.5 434.305L1.50007 434.305L0.500068 432.861ZM362.5 432.861L362.5 856.003C362.5 861.894 357.725 866.669 351.834 866.669L351.834 865.669C357.172 865.669 361.5 861.342 361.5 856.003L361.5 434.305L362.5 432.861ZM11.1658 866.669C5.27525 866.669 0.500031 861.894 0.500031 856.003L0.500068 432.861L1.50007 434.305L1.50003 856.003C1.50003 861.342 5.82754 865.669 11.1658 865.669L11.1658 866.669Z" fill="#ACB4C0"/>
<mask id="mask1_938_6446" style="mask-type:alpha" maskUnits="userSpaceOnUse" x="292" y="364" width="139" height="139">
<path d="M430.524 433.583C430.524 471.609 399.654 502.436 361.573 502.436C323.492 502.436 292.622 471.609 292.622 433.583C292.622 395.557 323.492 364.73 361.573 364.73C361.715 364.73 361.856 364.731 361.998 364.731C399.883 364.959 430.524 395.698 430.524 433.583Z" stroke="#ACB4C0" stroke-width="0.722"/>
</mask>
<g mask="url(#mask1_938_6446)">
<rect x="211.241" y="328.713" width="150.759" height="245.788" fill="#D9D9D9"/>
</g>
</svg>
