<svg width="363" height="867" viewBox="0 0 363 867" fill="none" xmlns="http://www.w3.org/2000/svg">
<path d="M1 17.2617C1 11.5683 1 8.72164 2.108 6.54706C3.08263 4.63425 4.63779 3.07909 6.5506 2.10446C8.72518 0.99646 11.5719 0.99646 17.2652 0.99646H345.735C351.428 0.99646 354.275 0.99646 356.449 2.10446C358.362 3.07909 359.917 4.63425 360.892 6.54706C362 8.72164 362 11.5683 362 17.2617V433.583H1V17.2617Z" stroke="#ACB4C0"/>
<path d="M362 849.904C362 855.598 362 858.444 360.892 860.619C359.917 862.532 358.362 864.087 356.449 865.062C354.275 866.17 351.428 866.17 345.735 866.17L17.2653 866.17C11.5719 866.17 8.72521 866.17 6.55063 865.062C4.63782 864.087 3.08266 862.532 2.10803 860.619C1.00003 858.444 1.00003 855.598 1.00003 849.904L1.00007 433.583L362 433.583L362 849.904Z" stroke="#ACB4C0"/>
<path d="M330.208 559.139L32.7928 559.139L32.7928 433.173L330.208 433.173L330.208 559.139Z" stroke="#ACB4C0"/>
<path d="M330.208 307.207L32.7928 307.207L32.7928 433.173L330.208 433.173L330.208 307.207Z" stroke="#ACB4C0"/>
<path d="M32.7925 0.996094L32.7925 866.374L17.2651 866.374C11.5717 866.374 8.72505 866.374 6.55047 865.266C4.63766 864.291 3.0825 862.736 2.10787 860.823C0.999871 858.648 0.999871 855.802 0.999871 850.108L0.999861 17.2613C0.999861 11.5679 0.999861 8.72127 2.10786 6.54669C3.08249 4.63388 4.63765 3.07872 6.55046 2.1041C8.72504 0.996094 11.5717 0.996094 17.2651 0.996094L32.7925 0.996094Z" stroke="#ACB4C0"/>
<path d="M345.735 0.996094C351.428 0.996094 354.275 0.996094 356.449 2.1041C358.362 3.07872 359.917 4.63388 360.892 6.54669C362 8.72127 362 11.5679 362 17.2613L362 850.108C362 855.802 362 858.648 360.892 860.823C359.917 862.736 358.362 864.291 356.449 865.266C354.275 866.374 351.428 866.374 345.735 866.374L330.207 866.374L330.207 0.996094L345.735 0.996094Z" stroke="#ACB4C0"/>
<line x1="181.861" y1="307.207" x2="181.861" y2="433.173" stroke="#ACB4C0" stroke-width="0.722"/>
<line x1="181.861" y1="434.197" x2="181.861" y2="560.163" stroke="#ACB4C0" stroke-width="0.722"/>
</svg>
