<svg width="363" height="867" viewBox="0 0 363 867" fill="none" xmlns="http://www.w3.org/2000/svg">
<path d="M0.5 11.1622C0.5 5.27168 5.27522 0.49646 11.1658 0.49646H351.834C357.725 0.49646 362.5 5.27168 362.5 11.1622H361.5C361.5 5.82397 357.172 1.49646 351.834 1.49646H11.1658C5.82751 1.49646 1.5 5.82397 1.5 11.1622H0.5ZM362.5 434.305H0.5L1.5 432.861H361.5L362.5 434.305ZM0.5 434.305V11.1622C0.5 5.27168 5.27522 0.49646 11.1658 0.49646V1.49646C5.82751 1.49646 1.5 5.82397 1.5 11.1622V432.861L0.5 434.305ZM351.834 0.49646C357.725 0.49646 362.5 5.27168 362.5 11.1622V434.305L361.5 432.861V11.1622C361.5 5.82397 357.172 1.49646 351.834 1.49646V0.49646Z" fill="#ACB4C0"/>
<path d="M362.5 856.004C362.5 861.894 357.725 866.67 351.834 866.67L11.1658 866.67C5.27525 866.67 0.500031 861.894 0.500031 856.004L1.50003 856.004C1.50003 861.342 5.82754 865.67 11.1658 865.67L351.834 865.67C357.172 865.67 361.5 861.342 361.5 856.004L362.5 856.004ZM0.500068 432.861L362.5 432.861L361.5 434.305L1.50007 434.305L0.500068 432.861ZM362.5 432.861L362.5 856.004C362.5 861.894 357.725 866.67 351.834 866.67L351.834 865.67C357.172 865.67 361.5 861.342 361.5 856.004L361.5 434.305L362.5 432.861ZM11.1658 866.67C5.27525 866.67 0.500031 861.894 0.500031 856.004L0.500068 432.861L1.50007 434.305L1.50003 856.004C1.50003 861.342 5.82754 865.67 11.1658 865.67L11.1658 866.67Z" fill="#ACB4C0"/>
<path d="M362 559.139L362 559.5L362.361 559.5L362.361 559.139L362 559.139ZM1.00003 559.139L0.639031 559.139L0.639031 559.5L1.00003 559.5L1.00003 559.139ZM362 558.778L1.00003 558.778L1.00003 559.5L362 559.5L362 558.778ZM1.36103 559.139L1.36104 433.173L0.639042 433.173L0.639031 559.139L1.36103 559.139ZM361.639 433.173L361.639 559.139L362.361 559.139L362.361 433.173L361.639 433.173Z" fill="#ACB4C0"/>
<path d="M362 307.207L362 306.846L362.361 306.846L362.361 307.207L362 307.207ZM1.00003 307.207L0.639031 307.207L0.639031 306.846L1.00003 306.846L1.00003 307.207ZM362 307.568L1.00003 307.568L1.00003 306.846L362 306.846L362 307.568ZM1.36103 307.207L1.36104 433.173L0.639042 433.173L0.639031 307.207L1.36103 307.207ZM361.639 433.173L361.639 307.207L362.361 307.207L362.361 433.173L361.639 433.173Z" fill="#ACB4C0"/>
</svg>
