<svg width="16" height="16" viewBox="0 0 16 16" fill="none" xmlns="http://www.w3.org/2000/svg">
<path d="M9.92188 4.58984H11.543V9.36523C11.543 9.63867 11.6243 9.86654 11.7871 10.0488C11.9564 10.2246 12.1745 10.3125 12.4414 10.3125C12.8711 10.3125 13.2194 10.0586 13.4863 9.55078C13.7598 9.04297 13.8965 8.39518 13.8965 7.60742C13.8965 6.57227 13.6393 5.63151 13.125 4.78516C12.6172 3.9388 11.9173 3.27799 11.0254 2.80273C10.1335 2.32747 9.14388 2.08984 8.05664 2.08984C6.93034 2.08984 5.91471 2.34701 5.00977 2.86133C4.10482 3.36914 3.39518 4.07227 2.88086 4.9707C2.37305 5.86914 2.11914 6.875 2.11914 7.98828C2.11914 9.10156 2.37305 10.1107 2.88086 11.0156C3.39518 11.9141 4.10482 12.6204 5.00977 13.1348C5.92122 13.6491 6.93685 13.9062 8.05664 13.9062C8.75977 13.9062 9.42708 13.8053 10.0586 13.6035C10.6966 13.4082 11.2435 13.1315 11.6992 12.7734L12.5 14.0039C11.1198 14.8893 9.63216 15.332 8.03711 15.332C6.99544 15.332 6.01562 15.1432 5.09766 14.7656C4.17969 14.3945 3.39193 13.8835 2.73438 13.2324C2.08333 12.5814 1.56901 11.8034 1.19141 10.8984C0.813802 9.98698 0.625 9.01693 0.625 7.98828C0.625 6.96615 0.813802 6.0026 1.19141 5.09766C1.57552 4.1862 2.0931 3.4082 2.74414 2.76367C3.40169 2.11263 4.18945 1.60156 5.10742 1.23047C6.0319 0.852865 7.01497 0.664062 8.05664 0.664062C9.41732 0.664062 10.6543 0.963542 11.7676 1.5625C12.8874 2.16146 13.7695 2.99479 14.4141 4.0625C15.0586 5.1237 15.3809 6.31185 15.3809 7.62695C15.3809 8.81836 15.1139 9.7819 14.5801 10.5176C14.0527 11.2467 13.3333 11.6113 12.4219 11.6113C11.8685 11.6113 11.3835 11.4941 10.9668 11.2598C10.5566 11.0254 10.2604 10.7031 10.0781 10.293C9.81771 10.7292 9.46615 11.0645 9.02344 11.2988C8.58724 11.5332 8.08594 11.6504 7.51953 11.6504C6.50391 11.6504 5.66406 11.3021 5 10.6055C4.33594 9.90885 4.00391 9.04297 4.00391 8.00781C4.00391 6.95964 4.33268 6.08724 4.99023 5.39062C5.64779 4.69401 6.45833 4.3457 7.42188 4.3457C8.49609 4.3457 9.32943 4.75911 9.92188 5.58594V4.58984ZM7.7832 10.0879C8.39518 10.0879 8.903 9.88932 9.30664 9.49219C9.7168 9.08854 9.92188 8.58724 9.92188 7.98828C9.92188 7.39583 9.71354 6.90104 9.29688 6.50391C8.88672 6.10677 8.38216 5.9082 7.7832 5.9082C7.18424 5.9082 6.68294 6.10677 6.2793 6.50391C5.88216 6.89453 5.68359 7.38932 5.68359 7.98828C5.68359 8.59375 5.88216 9.09505 6.2793 9.49219C6.67643 9.88932 7.17773 10.0879 7.7832 10.0879Z" fill="#545F71"/>
</svg>
