<svg width="161" height="161" viewBox="0 0 161 161" fill="none" xmlns="http://www.w3.org/2000/svg">
<path d="M0.5 80.5C0.5 36.3172 36.3172 0.5 80.5 0.5C124.683 0.5 160.5 36.3172 160.5 80.5C160.5 124.683 124.683 160.5 80.5 160.5C36.3172 160.5 0.5 124.683 0.5 80.5Z" fill="#23A991" fill-opacity="0.08"/>
<path d="M107.167 110.5V103.833C107.167 100.297 105.763 96.9057 103.262 94.4052C100.762 91.9048 97.3702 90.5 93.834 90.5H67.1673C63.6311 90.5 60.2397 91.9048 57.7392 94.4052C55.2387 96.9057 53.834 100.297 53.834 103.833V110.5" stroke="url(#paint0_linear_6256_54604)" stroke-width="6.66667" stroke-linecap="round" stroke-linejoin="round"/>
<path d="M80.4993 77.1667C87.8631 77.1667 93.8327 71.1971 93.8327 63.8333C93.8327 56.4695 87.8631 50.5 80.4993 50.5C73.1356 50.5 67.166 56.4695 67.166 63.8333C67.166 71.1971 73.1356 77.1667 80.4993 77.1667Z" stroke="url(#paint1_linear_6256_54604)" stroke-width="6.66667" stroke-linecap="round" stroke-linejoin="round"/>
<defs>
<linearGradient id="paint0_linear_6256_54604" x1="80.5007" y1="90.5" x2="80.5007" y2="110.5" gradientUnits="userSpaceOnUse">
<stop stop-color="#0C1B22"/>
<stop offset="1" stop-color="#44D8BE"/>
</linearGradient>
<linearGradient id="paint1_linear_6256_54604" x1="80.4993" y1="50.5" x2="80.4993" y2="77.1667" gradientUnits="userSpaceOnUse">
<stop stop-color="#0C1B22"/>
<stop offset="1" stop-color="#44D8BE"/>
</linearGradient>
</defs>
</svg>
