<svg width="61" height="61" viewBox="0 0 61 61" fill="none" xmlns="http://www.w3.org/2000/svg">
<path d="M56.1328 13.7422C56.1328 7.81895 51.314 3 45.3906 3H19.9062C13.983 3 9.16406 7.81895 9.16406 13.7422V15.4609H7.01562C5.82904 15.4609 4.86719 16.4228 4.86719 17.6094C4.86719 18.796 5.82904 19.7578 7.01562 19.7578H9.16406V28.3516H7.01562C5.82904 28.3516 4.86719 29.3134 4.86719 30.5C4.86719 31.6866 5.82904 32.6484 7.01562 32.6484H9.16406V41.2422H7.01562C5.82904 41.2422 4.86719 42.204 4.86719 43.3906C4.86719 44.5772 5.82904 45.5391 7.01562 45.5391H9.16406V47.2578C9.16406 53.1811 13.983 58 19.9062 58H45.3906C51.314 58 56.1328 53.1811 56.1328 47.2578V13.7422ZM51.8359 47.2578C51.8359 50.8118 48.9446 53.7031 45.3906 53.7031H19.9062C16.3523 53.7031 13.4609 50.8118 13.4609 47.2578V45.5391H15.6094C16.796 45.5391 17.7578 44.5772 17.7578 43.3906C17.7578 42.204 16.796 41.2422 15.6094 41.2422H13.4609V32.6484H15.6094C16.796 32.6484 17.7578 31.6866 17.7578 30.5C17.7578 29.3134 16.796 28.3516 15.6094 28.3516H13.4609V19.7578H15.6094C16.796 19.7578 17.7578 18.796 17.7578 17.6094C17.7578 16.4228 16.796 15.4609 15.6094 15.4609H13.4609V13.7422C13.4609 10.1882 16.3523 7.29688 19.9062 7.29688H45.3906C48.9446 7.29688 51.8359 10.1882 51.8359 13.7422V47.2578Z" fill="#ACB4C0"/>
<path d="M33.3676 31.2235C37.8387 31.2235 41.4763 27.5846 41.4763 23.1119C41.4763 18.6389 37.8387 15 33.3676 15C28.8951 15 25.2565 18.6389 25.2565 23.1119C25.2565 27.5846 28.8951 31.2235 33.3676 31.2235ZM33.3676 18.9445C35.6639 18.9445 37.5321 20.814 37.5321 23.1122C37.5321 25.41 35.6642 27.2796 33.3676 27.2796C31.07 27.2796 29.2007 25.41 29.2007 23.1122C29.2007 20.814 31.07 18.9445 33.3676 18.9445Z" fill="#ACB4C0"/>
<path d="M23.9209 45.9675C25.0103 45.9675 25.893 45.0845 25.893 43.9954V40.5873C25.893 38.3999 27.6731 36.62 29.8608 36.62H36.0879C38.2757 36.62 40.0558 38.3996 40.0558 40.5873V43.9954C40.0558 45.0845 40.9385 45.9675 42.0279 45.9675C43.117 45.9675 44 45.0845 44 43.9954V40.5873C44 36.225 40.4508 32.6758 36.0879 32.6758H29.8608C25.498 32.6758 21.9488 36.2248 21.9488 40.5873V43.9954C21.9488 45.0845 22.8318 45.9675 23.9209 45.9675Z" fill="#ACB4C0"/>
</svg>
