<svg width="25" height="24" viewBox="0 0 25 24" fill="none" xmlns="http://www.w3.org/2000/svg">
<g clip-path="url(#clip0_7888_34732)">
<path d="M22.167 18.7033C21.804 19.5418 21.3744 20.3136 20.8766 21.0232C20.1981 21.9906 19.6426 22.6602 19.2145 23.0321C18.5508 23.6424 17.8397 23.955 17.0782 23.9728C16.5316 23.9728 15.8723 23.8172 15.105 23.5017C14.3351 23.1876 13.6275 23.0321 12.9806 23.0321C12.3021 23.0321 11.5744 23.1876 10.7961 23.5017C10.0165 23.8172 9.38855 23.9817 8.90842 23.9979C8.17822 24.0291 7.45039 23.7076 6.7239 23.0321C6.26021 22.6276 5.68023 21.9343 4.98543 20.9521C4.23998 19.9033 3.62711 18.687 3.14698 17.3004C2.63277 15.8026 2.375 14.3523 2.375 12.9482C2.375 11.3398 2.72254 9.95259 3.41867 8.79011C3.96576 7.85636 4.69359 7.11979 5.60453 6.57906C6.51546 6.03834 7.49973 5.76279 8.55969 5.74516C9.13967 5.74516 9.90024 5.92457 10.8454 6.27715C11.7879 6.63091 12.3931 6.81032 12.6584 6.81032C12.8567 6.81032 13.529 6.60054 14.6687 6.18234C15.7464 5.7945 16.656 5.63391 17.4012 5.69717C19.4204 5.86012 20.9374 6.6561 21.9462 8.09013C20.1404 9.18432 19.2471 10.7169 19.2648 12.6829C19.2811 14.2142 19.8367 15.4886 20.9285 16.5004C21.4233 16.97 21.9759 17.333 22.5906 17.5907C22.4573 17.9774 22.3166 18.3477 22.167 18.7033ZM17.536 0.480137C17.536 1.68041 17.0975 2.8011 16.2234 3.83841C15.1687 5.07155 13.8929 5.78413 12.5093 5.67168C12.4917 5.52769 12.4815 5.37614 12.4815 5.21688C12.4815 4.06462 12.9831 2.83147 13.8739 1.82321C14.3186 1.3127 14.8842 0.888228 15.5701 0.549615C16.2546 0.216055 16.9019 0.031589 17.5108 0C17.5286 0.160458 17.536 0.320926 17.536 0.480121V0.480137Z" fill="black"/>
</g>
<defs>
<clipPath id="clip0_7888_34732">
<rect width="24" height="24" fill="white" transform="translate(0.375)"/>
</clipPath>
</defs>
</svg>
