<svg width="363" height="867" viewBox="0 0 363 867" fill="none" xmlns="http://www.w3.org/2000/svg">
<path d="M1 17.2617C1 11.5683 1 8.72164 2.108 6.54706C3.08263 4.63425 4.63779 3.07909 6.5506 2.10446C8.72518 0.99646 11.5719 0.99646 17.2652 0.99646H345.735C351.428 0.99646 354.275 0.99646 356.449 2.10446C358.362 3.07909 359.917 4.63425 360.892 6.54706C362 8.72164 362 11.5683 362 17.2617V433.583H1V17.2617Z" stroke="#ACB4C0"/>
<path d="M362 849.904C362 855.597 362 858.444 360.892 860.619C359.917 862.531 358.362 864.087 356.449 865.061C354.275 866.169 351.428 866.169 345.735 866.169L17.2653 866.169C11.5719 866.169 8.72521 866.169 6.55063 865.061C4.63782 864.087 3.08266 862.531 2.10803 860.619C1.00003 858.444 1.00003 855.597 1.00003 849.904L1.00007 433.583L362 433.583L362 849.904Z" stroke="#ACB4C0"/>
<path d="M91.25 0.996521H271.75V79.1793C271.75 84.8727 271.75 87.7194 270.642 89.8939C269.667 91.8068 268.112 93.3619 266.199 94.3365C264.025 95.4445 261.178 95.4445 255.485 95.4445H107.515C101.822 95.4445 98.9752 95.4445 96.8006 94.3365C94.8878 93.3619 93.3326 91.8068 92.358 89.8939C91.25 87.7194 91.25 84.8727 91.25 79.1793V0.996521Z" stroke="#ACB4C0"/>
<path d="M271.75 866.169L91.25 866.169L91.25 787.986C91.25 782.293 91.25 779.446 92.358 777.272C93.3327 775.359 94.8878 773.804 96.8006 772.829C98.9752 771.721 101.822 771.721 107.515 771.721L255.485 771.721C261.178 771.721 264.025 771.721 266.199 772.829C268.112 773.804 269.667 775.359 270.642 777.272C271.75 779.446 271.75 782.293 271.75 787.986L271.75 866.169Z" stroke="#ACB4C0"/>
<path d="M123.018 0.996521H239.982V18.6172C239.982 24.3106 239.982 27.1573 238.874 29.3319C237.899 31.2447 236.344 32.7998 234.431 33.7745C232.257 34.8825 229.41 34.8825 223.717 34.8825H139.283C133.59 34.8825 130.743 34.8825 128.569 33.7745C126.656 32.7998 125.101 31.2447 124.126 29.3319C123.018 27.1573 123.018 24.3106 123.018 18.6172V0.996521Z" stroke="#ACB4C0"/>
<path d="M239.982 866.169L123.018 866.169L123.018 848.549C123.018 842.855 123.018 840.008 124.126 837.834C125.101 835.921 126.656 834.366 128.569 833.391C130.743 832.283 133.59 832.283 139.283 832.283L223.717 832.283C229.41 832.283 232.257 832.283 234.431 833.391C236.344 834.366 237.899 835.921 238.874 837.834C239.982 840.008 239.982 842.855 239.982 848.549L239.982 866.169Z" stroke="#ACB4C0"/>
<path d="M1 17.2617C1 11.5683 1 8.72164 2.108 6.54706C3.08263 4.63425 4.63779 3.07909 6.5506 2.10446C8.72518 0.99646 11.5719 0.99646 17.2652 0.99646H28.436V12.1284C28.436 17.8217 28.436 20.6684 27.328 22.843C26.3534 24.7558 24.7982 26.311 22.8854 27.2856C20.7108 28.3936 17.8641 28.3936 12.1708 28.3936H1V17.2617Z" stroke="#ACB4C0"/>
<path d="M362 849.904C362 855.597 362 858.444 360.892 860.619C359.917 862.531 358.362 864.087 356.449 865.061C354.275 866.169 351.428 866.169 345.735 866.169L334.564 866.169L334.564 855.037C334.564 849.344 334.564 846.497 335.672 844.323C336.647 842.41 338.202 840.855 340.115 839.88C342.289 838.772 345.136 838.772 350.829 838.772L362 838.772L362 849.904Z" stroke="#ACB4C0"/>
<path d="M362 17.2617C362 11.5684 362 8.7217 360.892 6.54712C359.917 4.63431 358.362 3.07915 356.449 2.10452C354.275 0.996521 351.428 0.996521 345.735 0.996521H334.564V12.1284C334.564 17.8218 334.564 20.6685 335.672 22.8431C336.647 24.7559 338.202 26.311 340.115 27.2857C342.289 28.3937 345.136 28.3937 350.829 28.3937H362V17.2617Z" stroke="#ACB4C0"/>
<path d="M1 849.904C1 855.597 1 858.444 2.108 860.619C3.08263 862.531 4.63779 864.087 6.5506 865.061C8.72518 866.169 11.5719 866.169 17.2652 866.169L28.436 866.169L28.436 855.037C28.436 849.344 28.436 846.497 27.328 844.323C26.3534 842.41 24.7982 840.855 22.8854 839.88C20.7108 838.772 17.8641 838.772 12.1708 838.772L1 838.772L1 849.904Z" stroke="#ACB4C0"/>
<ellipse cx="181.5" cy="433.583" rx="6.498" ry="6.48879" fill="#DEE1E3"/>
<path d="M250.312 433.583C250.312 471.532 219.504 502.297 181.5 502.297C143.496 502.297 112.688 471.532 112.688 433.583C112.688 395.634 143.496 364.869 181.5 364.869C219.504 364.869 250.312 395.634 250.312 433.583Z" stroke="#ACB4C0"/>
</svg>
