<svg width="56" height="24" viewBox="0 0 56 24" fill="none" xmlns="http://www.w3.org/2000/svg">
<g opacity="0.2">
<path d="M9.34701 19C9.08387 18.9999 8.82666 18.9179 8.60788 18.7643C8.38911 18.6106 8.2186 18.3922 8.11791 18.1368C8.01722 17.8813 7.99087 17.6002 8.04219 17.329C8.09351 17.0578 8.2202 16.8087 8.40623 16.6131L12.7881 12.0086L8.40623 7.40405C8.27914 7.27506 8.17777 7.12077 8.10803 6.95017C8.03829 6.77958 8.00159 6.5961 8.00005 6.41043C7.99851 6.22477 8.03218 6.04064 8.09909 5.8688C8.166 5.69696 8.2648 5.54084 8.38974 5.40955C8.51468 5.27826 8.66325 5.17443 8.82678 5.10412C8.99031 5.03382 9.16553 4.99844 9.34222 5.00005C9.5189 5.00167 9.69351 5.04024 9.85586 5.11352C10.0182 5.1868 10.165 5.29333 10.2878 5.42688L15.6104 11.02C15.8599 11.2822 16 11.6378 16 12.0086C16 12.3794 15.8599 12.735 15.6104 12.9972L10.2878 18.5903C10.0383 18.8526 9.69989 18.9999 9.34701 19Z" fill="#545F71"/>
</g>
<g opacity="0.4">
<path d="M25.347 19C25.0839 18.9999 24.8267 18.9179 24.6079 18.7643C24.3891 18.6106 24.2186 18.3922 24.1179 18.1368C24.0172 17.8813 23.9909 17.6002 24.0422 17.329C24.0935 17.0578 24.2202 16.8087 24.4062 16.6131L28.7881 12.0086L24.4062 7.40405C24.2791 7.27506 24.1778 7.12077 24.108 6.95017C24.0383 6.77958 24.0016 6.5961 24.0001 6.41043C23.9985 6.22477 24.0322 6.04064 24.0991 5.8688C24.166 5.69696 24.2648 5.54084 24.3897 5.40955C24.5147 5.27826 24.6632 5.17443 24.8268 5.10412C24.9903 5.03382 25.1655 4.99844 25.3422 5.00005C25.5189 5.00167 25.6935 5.04024 25.8559 5.11352C26.0182 5.1868 26.165 5.29333 26.2878 5.42688L31.6104 11.02C31.8599 11.2822 32 11.6378 32 12.0086C32 12.3794 31.8599 12.735 31.6104 12.9972L26.2878 18.5903C26.0383 18.8526 25.6999 18.9999 25.347 19Z" fill="#545F71"/>
</g>
<g opacity="0.8">
<path d="M41.347 19C41.0839 18.9999 40.8267 18.9179 40.6079 18.7643C40.3891 18.6106 40.2186 18.3922 40.1179 18.1368C40.0172 17.8813 39.9909 17.6002 40.0422 17.329C40.0935 17.0578 40.2202 16.8087 40.4062 16.6131L44.7881 12.0086L40.4062 7.40405C40.2791 7.27506 40.1778 7.12077 40.108 6.95017C40.0383 6.77958 40.0016 6.5961 40.0001 6.41043C39.9985 6.22477 40.0322 6.04064 40.0991 5.8688C40.166 5.69696 40.2648 5.54084 40.3897 5.40955C40.5147 5.27826 40.6632 5.17443 40.8268 5.10412C40.9903 5.03382 41.1655 4.99844 41.3422 5.00005C41.5189 5.00167 41.6935 5.04024 41.8559 5.11352C42.0182 5.1868 42.165 5.29333 42.2878 5.42688L47.6104 11.02C47.8599 11.2822 48 11.6378 48 12.0086C48 12.3794 47.8599 12.735 47.6104 12.9972L42.2878 18.5903C42.0383 18.8526 41.6999 18.9999 41.347 19Z" fill="#545F71"/>
</g>
</svg>
