<svg width="41" height="40" viewBox="0 0 41 40" fill="none" xmlns="http://www.w3.org/2000/svg">
<path d="M0.5 20C0.5 8.95431 9.45431 0 20.5 0C31.5457 0 40.5 8.95431 40.5 20C40.5 31.0457 31.5457 40 20.5 40C9.45431 40 0.5 31.0457 0.5 20Z" fill="#DEE1E3"/>
<path d="M11.3609 11.1706L20.7523 8.04011C20.9133 7.98663 21.0865 7.98663 21.2475 8.04011L30.6388 11.1706C30.9583 11.2771 31.1738 11.5761 31.1738 11.913V18.1877C31.1739 27.1684 23.18 32 20.9999 32C19.4357 32 10.826 27.7483 10.826 18.1876V11.9129C10.826 11.5761 11.0415 11.277 11.3609 11.1706ZM13.9564 18.1893C13.9564 24.9894 19.8426 28.6423 20.9999 28.6436V11.3075C20.7664 11.308 14.7135 13.3504 14.492 13.4241C14.1725 13.5303 13.9565 13.8296 13.9565 14.1667L13.9564 18.1893Z" fill="black"/>
</svg>
