<svg width="161" height="161" viewBox="0 0 161 161" fill="none" xmlns="http://www.w3.org/2000/svg">
<path d="M100.493 113.833H133.827L124.461 104.467C121.92 101.927 120.493 98.4819 120.493 94.8897V73.8334C120.493 56.4171 109.363 41.6006 93.8268 36.1094V33.8333C93.8268 26.4695 87.8573 20.5 80.4935 20.5C73.1297 20.5 67.1602 26.4695 67.1602 33.8333V36.1094C51.6243 41.6006 40.4935 56.4171 40.4935 73.8334V94.8897C40.4935 98.4819 39.0665 101.927 36.5264 104.467L27.1602 113.833H60.4935M100.493 113.833V120.5C100.493 131.546 91.5392 140.5 80.4935 140.5C69.4478 140.5 60.4935 131.546 60.4935 120.5V113.833M100.493 113.833H60.4935" stroke="url(#paint0_linear_6256_53981)" stroke-width="9" stroke-linecap="round" stroke-linejoin="round"/>
<defs>
<linearGradient id="paint0_linear_6256_53981" x1="80.4935" y1="20.5" x2="80.4935" y2="140.5" gradientUnits="userSpaceOnUse">
<stop stop-color="#0C1B22"/>
<stop offset="1" stop-color="#44D8BE"/>
</linearGradient>
</defs>
</svg>
