<svg width="25" height="24" viewBox="0 0 25 24" fill="none" xmlns="http://www.w3.org/2000/svg">
<path d="M3.25 9C3.25 7.89543 4.14543 7 5.25 7H6.17963C6.84834 7 7.4728 6.6658 7.84373 6.1094L8.65627 4.8906C9.0272 4.3342 9.65166 4 10.3204 4H14.1796C14.8483 4 15.4728 4.3342 15.8437 4.8906L16.6563 6.1094C17.0272 6.6658 17.6517 7 18.3204 7H19.25C20.3546 7 21.25 7.89543 21.25 9V18C21.25 19.1046 20.3546 20 19.25 20H5.25C4.14543 20 3.25 19.1046 3.25 18V9Z" stroke="#DEE1E3" stroke-width="2" stroke-linecap="round" stroke-linejoin="round"/>
<path d="M15.25 13C15.25 14.6569 13.9069 16 12.25 16C10.5931 16 9.25 14.6569 9.25 13C9.25 11.3431 10.5931 10 12.25 10C13.9069 10 15.25 11.3431 15.25 13Z" stroke="#DEE1E3" stroke-width="2" stroke-linecap="round" stroke-linejoin="round"/>
</svg>
