<svg width="16" height="16" viewBox="0 0 16 16" fill="none" xmlns="http://www.w3.org/2000/svg">
<path d="M8.01145 10.6673C7.76393 10.6673 7.52658 10.5738 7.35158 10.4074L3.61825 6.85912C3.52911 6.77729 3.458 6.6794 3.40909 6.57118C3.36017 6.46295 3.33443 6.34655 3.33335 6.22876C3.33227 6.11098 3.35589 5.99417 3.40281 5.88515C3.44974 5.77614 3.51905 5.67709 3.60668 5.5938C3.69431 5.51051 3.79852 5.44464 3.91322 5.40004C4.02793 5.35544 4.15083 5.33299 4.27476 5.33402C4.39868 5.33504 4.52116 5.35951 4.63503 5.406C4.7489 5.45249 4.85188 5.52007 4.93798 5.6048L8.01145 8.52593L11.0849 5.6048C11.2609 5.44321 11.4967 5.3538 11.7414 5.35582C11.9861 5.35784 12.2202 5.45113 12.3933 5.6156C12.5663 5.78007 12.6645 6.00256 12.6666 6.23515C12.6687 6.46774 12.5747 6.69181 12.4046 6.85912L8.67132 10.4074C8.49632 10.5738 8.25896 10.6673 8.01145 10.6673Z" fill="black"/>
</svg>
