<svg width="24" height="24" viewBox="0 0 24 24" fill="none" xmlns="http://www.w3.org/2000/svg">
<path d="M21 3H3C2.73478 3 2.48043 3.09981 2.29289 3.27748C2.10536 3.45514 2 3.69611 2 3.94737V20.0526C2 20.3039 2.10536 20.5449 2.29289 20.7225C2.48043 20.9002 2.73478 21 3 21H21C21.2652 21 21.5196 20.9002 21.7071 20.7225C21.8946 20.5449 22 20.3039 22 20.0526V3.94737C22 3.69611 21.8946 3.45514 21.7071 3.27748C21.5196 3.09981 21.2652 3 21 3ZM20 6.78947H17.43L18.93 4.89474H20V6.78947ZM13.215 6.78947L14.715 4.89474H16.43L14.93 6.78947H13.215ZM9 6.78947L10.5 4.89474H12.215L10.715 6.78947H9ZM4 4.89474H8L6.5 6.78947H4V4.89474ZM20 19.1053H4V8.68421H20V19.1053Z" fill="#545F71"/>
<path d="M9.529 9.74716C9.37111 9.82856 9.2393 9.94877 9.14744 10.0951C9.05558 10.2415 9.00706 10.4087 9.007 10.5789V17.2105C9.00695 17.3809 9.0554 17.5481 9.14724 17.6946C9.23908 17.8411 9.37092 17.9614 9.52887 18.0428C9.68681 18.1243 9.86502 18.1639 10.0447 18.1575C10.2244 18.151 10.399 18.0988 10.55 18.0063L15.966 14.6905C16.1063 14.6046 16.2217 14.4868 16.3016 14.3478C16.3815 14.2088 16.4234 14.053 16.4234 13.8947C16.4234 13.7365 16.3815 13.5807 16.3016 13.4417C16.2217 13.3027 16.1063 13.1848 15.966 13.0989L10.55 9.78316C10.399 9.69075 10.2244 9.63864 10.0447 9.6323C9.86504 9.62597 9.68688 9.66564 9.529 9.74716ZM11.007 12.3193L13.581 13.8947L11.007 15.4702V12.3193Z" fill="#545F71"/>
</svg>
