<svg width="17" height="17" viewBox="0 0 17 17" fill="none" xmlns="http://www.w3.org/2000/svg">
<g clip-path="url(#clip0_7888_22457)">
<path d="M16.4993 8.5C16.4993 10.6107 15.6819 12.5305 14.3463 13.9601C12.8862 15.523 10.8068 16.3606 8.49928 16.3606C4.081 16.3606 0.652344 12.9183 0.652344 8.5C0.652344 6.19256 1.47616 4.11328 3.03891 2.65319C4.46853 1.31753 6.38844 0.5 8.49928 0.5C12.9176 0.5 16.4993 4.08172 16.4993 8.5Z" fill="#FFD05B"/>
<path d="M8.50045 15.5009C12.3667 15.5009 15.5009 12.3667 15.5009 8.50045C15.5009 4.63421 12.3667 1.5 8.50045 1.5C4.63421 1.5 1.5 4.63421 1.5 8.50045C1.5 12.3667 4.63421 15.5009 8.50045 15.5009Z" fill="#FFEAA5"/>
<path d="M14.3812 8.4995C14.3812 9.99757 13.821 11.3648 12.8987 12.4031C11.8215 13.6158 10.2504 14.2265 8.50085 14.2265C5.25321 14.2265 2.81445 11.7471 2.81445 8.49953C2.81445 6.75105 3.38361 5.18082 4.59495 4.10368C5.63356 3.18012 7.0017 2.61914 8.50085 2.61914C11.7485 2.61914 14.3812 5.25186 14.3812 8.4995Z" fill="#FFE077"/>
<path d="M8.88709 16.112C4.46881 16.112 0.887094 12.5303 0.887094 8.11203C0.887094 6.00138 1.70416 4.08191 3.03966 2.65234C1.47669 4.11244 0.5 6.1915 0.5 8.49913C0.5 12.9174 4.08172 16.4991 8.5 16.4991C10.8076 16.4991 12.8869 15.5222 14.347 13.9592C12.9175 15.2947 10.9977 16.112 8.88709 16.112Z" fill="#FFC244"/>
<path d="M8.98795 13.8932C5.74031 13.8932 3.10759 11.2605 3.10759 8.01283C3.10759 6.5134 3.66979 5.14415 4.59363 4.10547C3.38259 5.18253 2.61914 6.7531 2.61914 8.50128C2.61914 11.7489 5.25189 14.3816 8.4995 14.3816C10.2477 14.3816 11.8202 13.6159 12.8973 12.4049C11.8587 13.3288 10.4874 13.8932 8.98795 13.8932Z" fill="#FFD05B"/>
</g>
<g filter="url(#filter0_d_7888_22457)">
<mask id="mask0_7888_22457" style="mask-type:luminance" maskUnits="userSpaceOnUse" x="4" y="7" width="5" height="2">
<path d="M4.5 7.81055L4.95672 8.07292H8.23827L7.78228 7.81055H4.5Z" fill="white"/>
</mask>
<g mask="url(#mask0_7888_22457)">
<path d="M8.23827 7.81055H4.5V8.07364H8.23827V7.81055Z" fill="url(#paint0_linear_7888_22457)"/>
</g>
<mask id="mask1_7888_22457" style="mask-type:luminance" maskUnits="userSpaceOnUse" x="8" y="7" width="5" height="2">
<path d="M9.21771 7.81055L8.76172 8.07292H12.0433L12.5 7.81055H9.21771Z" fill="white"/>
</mask>
<g mask="url(#mask1_7888_22457)">
<path d="M12.5 7.81055H8.76172V8.07364H12.5V7.81055Z" fill="url(#paint1_linear_7888_22457)"/>
</g>
<mask id="mask2_7888_22457" style="mask-type:luminance" maskUnits="userSpaceOnUse" x="5" y="8" width="7" height="1">
<path d="M5.42188 8.1875L5.8786 8.4506H11.1181L11.5741 8.1875H5.42188Z" fill="white"/>
</mask>
<g mask="url(#mask2_7888_22457)">
<path d="M11.5741 8.1875H5.42188V8.4506H11.5741V8.1875Z" fill="url(#paint2_linear_7888_22457)"/>
</g>
<mask id="mask3_7888_22457" style="mask-type:luminance" maskUnits="userSpaceOnUse" x="6" y="8" width="5" height="1">
<path d="M6.34961 8.56641L6.8056 8.82877H10.1899L10.6466 8.56641H6.34961Z" fill="white"/>
</mask>
<g mask="url(#mask3_7888_22457)">
<path d="M10.6466 8.56641H6.34961V8.8295H10.6466V8.56641Z" fill="url(#paint3_linear_7888_22457)"/>
</g>
<mask id="mask4_7888_22457" style="mask-type:luminance" maskUnits="userSpaceOnUse" x="7" y="8" width="3" height="2">
<path d="M7.27344 8.94336L7.73016 9.20645H9.25912L9.71584 8.94336H7.27344Z" fill="white"/>
</mask>
<g mask="url(#mask4_7888_22457)">
<path d="M9.71511 8.94336H7.27344V9.20645H9.71511V8.94336Z" fill="url(#paint4_linear_7888_22457)"/>
</g>
</g>
<defs>
<filter id="filter0_d_7888_22457" x="4.5" y="7.81055" width="8.2" height="1.59648" filterUnits="userSpaceOnUse" color-interpolation-filters="sRGB">
<feFlood flood-opacity="0" result="BackgroundImageFix"/>
<feColorMatrix in="SourceAlpha" type="matrix" values="0 0 0 0 0 0 0 0 0 0 0 0 0 0 0 0 0 0 127 0" result="hardAlpha"/>
<feOffset dx="0.1" dy="0.1"/>
<feGaussianBlur stdDeviation="0.05"/>
<feComposite in2="hardAlpha" operator="out"/>
<feColorMatrix type="matrix" values="0 0 0 0 0.996078 0 0 0 0 0.811765 0 0 0 0 0.356863 0 0 0 1 0"/>
<feBlend mode="normal" in2="BackgroundImageFix" result="effect1_dropShadow_7888_22457"/>
<feBlend mode="normal" in="SourceGraphic" in2="effect1_dropShadow_7888_22457" result="shape"/>
</filter>
<linearGradient id="paint0_linear_7888_22457" x1="6.36913" y1="7.81055" x2="6.36913" y2="8.07364" gradientUnits="userSpaceOnUse">
<stop stop-color="#F7C86C"/>
<stop offset="0.25" stop-color="#E6A72C"/>
<stop offset="0.5" stop-color="#D88A00"/>
</linearGradient>
<linearGradient id="paint1_linear_7888_22457" x1="10.6309" y1="7.81055" x2="10.6309" y2="8.07364" gradientUnits="userSpaceOnUse">
<stop stop-color="#F7C86C"/>
<stop offset="0.25" stop-color="#E6A72C"/>
<stop offset="0.5" stop-color="#D88A00"/>
</linearGradient>
<linearGradient id="paint2_linear_7888_22457" x1="8.49801" y1="8.1875" x2="8.49801" y2="8.4506" gradientUnits="userSpaceOnUse">
<stop stop-color="#F7C86C"/>
<stop offset="0.25" stop-color="#E6A72C"/>
<stop offset="0.5" stop-color="#D88A00"/>
</linearGradient>
<linearGradient id="paint3_linear_7888_22457" x1="8.4981" y1="8.56641" x2="8.4981" y2="8.8295" gradientUnits="userSpaceOnUse">
<stop stop-color="#F7C86C"/>
<stop offset="0.25" stop-color="#E6A72C"/>
<stop offset="0.5" stop-color="#D88A00"/>
</linearGradient>
<linearGradient id="paint4_linear_7888_22457" x1="8.49428" y1="8.94336" x2="8.49428" y2="9.20645" gradientUnits="userSpaceOnUse">
<stop stop-color="#F7C86C"/>
<stop offset="0.25" stop-color="#E6A72C"/>
<stop offset="0.5" stop-color="#D88A00"/>
</linearGradient>
<clipPath id="clip0_7888_22457">
<rect width="16" height="16" fill="white" transform="translate(0.5 0.5)"/>
</clipPath>
</defs>
</svg>
