<svg width="161" height="161" viewBox="0 0 161 161" fill="none" xmlns="http://www.w3.org/2000/svg">
<path d="M23.573 57.6917C23.4097 57.6917 23.244 57.6917 23.0759 57.6652C21.8734 57.5324 20.7729 56.9275 20.0163 55.9835C19.2597 55.0396 18.9089 53.8338 19.041 52.6313C19.334 49.9317 19.687 47.3475 20.1242 44.7176V44.6744C22.2353 32.7739 32.7956 22.2136 44.7081 20.1097H44.7537C47.3812 19.6726 49.9702 19.3195 52.6793 19.0265C53.8826 18.8963 55.0883 19.2493 56.0312 20.008C56.9741 20.7667 57.5771 21.869 57.7073 23.0722C57.8376 24.2754 57.4845 25.4812 56.7258 26.4241C55.9671 27.367 54.8649 27.9699 53.6616 28.1002C51.1446 28.374 48.7333 28.703 46.286 29.1089C42.3424 29.7982 38.4132 31.9549 35.1949 35.1732C31.9766 38.3915 29.8175 42.3207 29.1234 46.2403C28.7175 48.6828 28.386 51.0966 28.1146 53.6136C27.9948 54.7342 27.4646 55.7708 26.626 56.5237C25.7875 57.2767 24.7 57.6927 23.573 57.6917Z" fill="url(#paint0_linear_6256_54153)"/>
<path d="M137.418 57.7263C136.294 57.7252 135.21 57.3091 134.373 56.5578C133.537 55.8066 133.007 54.773 132.886 53.6554C132.615 51.1384 132.283 48.7247 131.877 46.2821C131.174 42.3601 129.012 38.4309 125.796 35.2127C122.58 31.9944 118.649 29.828 114.729 29.1411C112.279 28.7328 109.868 28.4038 107.353 28.1324C106.15 28.0022 105.048 27.3992 104.289 26.4563C103.531 25.5134 103.178 24.3077 103.308 23.1044C103.438 21.9012 104.041 20.799 104.984 20.0403C105.927 19.2815 107.133 18.9285 108.336 19.0587C111.033 19.3494 113.62 19.7048 116.249 20.1419H116.295C128.195 22.253 138.756 32.8133 140.86 44.7186V44.7643C141.297 47.3893 141.65 49.9784 141.943 52.6899C142.068 53.8901 141.713 55.0909 140.955 56.0298C140.197 56.9687 139.098 57.5692 137.898 57.6999C137.739 57.7175 137.579 57.7263 137.418 57.7263Z" fill="url(#paint1_linear_6256_54153)"/>
<path d="M107.84 142.028C106.674 142.026 105.552 141.576 104.706 140.772C103.861 139.968 103.355 138.871 103.293 137.706C103.232 136.54 103.619 135.396 104.376 134.507C105.132 133.619 106.2 133.054 107.36 132.928C109.88 132.654 112.291 132.325 114.733 131.919C118.653 131.221 122.585 129.066 125.803 125.846C129.021 122.625 131.176 118.698 131.87 114.778C132.275 112.334 132.607 109.922 132.878 107.405C132.943 106.809 133.124 106.232 133.412 105.706C133.699 105.181 134.088 104.717 134.554 104.341C135.021 103.965 135.558 103.685 136.133 103.517C136.708 103.348 137.311 103.295 137.906 103.36C138.502 103.424 139.079 103.605 139.605 103.893C140.131 104.18 140.595 104.569 140.97 105.036C141.346 105.503 141.626 106.039 141.795 106.614C141.963 107.189 142.016 107.792 141.952 108.387C141.659 111.087 141.306 113.671 140.869 116.301V116.347C138.765 128.247 128.205 138.808 116.304 140.909H116.258C113.636 141.344 111.047 141.699 108.345 141.992C108.177 142.013 108.009 142.025 107.84 142.028Z" fill="url(#paint2_linear_6256_54153)"/>
<path d="M53.1517 141.987C52.9856 141.987 52.8196 141.977 52.6545 141.958C49.9526 141.665 47.3708 141.312 44.7409 140.875H44.6953C32.7948 138.754 22.2345 128.194 20.1306 116.288V116.243C19.6863 113.622 19.3332 111.036 19.0402 108.334C18.9099 107.131 19.263 105.925 20.0217 104.982C20.7804 104.039 21.8826 103.436 23.0859 103.306C24.2891 103.176 25.4948 103.529 26.4378 104.287C27.3807 105.046 27.9836 106.148 28.1139 107.352C28.3853 109.871 28.7167 112.282 29.1226 114.727C29.8167 118.647 31.9782 122.576 35.1941 125.794C38.41 129.013 42.3416 131.179 46.2612 131.866C48.7037 132.272 51.1174 132.603 53.6368 132.874C54.8015 132.994 55.8756 133.557 56.6368 134.447C57.398 135.337 57.7881 136.485 57.7264 137.654C57.6647 138.823 57.1559 139.924 56.3053 140.729C55.4547 141.533 54.3274 141.98 53.1565 141.977L53.1517 141.987Z" fill="url(#paint3_linear_6256_54153)"/>
<path d="M80.5076 111.144C72.5754 111.147 64.8644 108.529 58.5728 103.699C58.0973 103.334 57.6984 102.879 57.3987 102.36C57.099 101.841 56.9045 101.268 56.8262 100.674C56.7479 100.08 56.7874 99.4762 56.9425 98.8973C57.0975 98.3185 57.3651 97.7758 57.7298 97.3003C58.4665 96.3401 59.5544 95.7118 60.7543 95.5537C61.3484 95.4755 61.9521 95.515 62.531 95.67C63.1099 95.8251 63.6525 96.0926 64.128 96.4574C68.8268 100.057 74.5811 102.008 80.5004 102.008C86.4198 102.008 92.1741 100.057 96.8729 96.4574C97.8339 95.7393 99.039 95.4286 100.227 95.5924C101.416 95.7562 102.492 96.3814 103.223 97.3326C103.954 98.2839 104.281 99.4847 104.133 100.675C103.985 101.866 103.374 102.95 102.433 103.694C96.1466 108.528 88.4379 111.148 80.5076 111.144Z" fill="url(#paint4_linear_6256_54153)"/>
<path d="M58.6004 66.7942C57.3901 66.7942 56.2294 66.3134 55.3737 65.4576C54.5179 64.6019 54.0371 63.4412 54.0371 62.2309V55.5662C54.0371 54.3559 54.5179 53.1953 55.3737 52.3395C56.2294 51.4837 57.3901 51.0029 58.6004 51.0029C59.8106 51.0029 60.9713 51.4837 61.8271 52.3395C62.6828 53.1953 63.1636 54.3559 63.1636 55.5662V62.2309C63.1636 63.4412 62.6828 64.6019 61.8271 65.4576C60.9713 66.3134 59.8106 66.7942 58.6004 66.7942Z" fill="url(#paint5_linear_6256_54153)"/>
<path d="M102.386 66.7942C101.175 66.7942 100.015 66.3134 99.1588 65.4576C98.303 64.6019 97.8223 63.4412 97.8223 62.2309V55.5662C97.8223 54.3559 98.303 53.1953 99.1588 52.3395C100.015 51.4837 101.175 51.0029 102.386 51.0029C103.596 51.0029 104.756 51.4837 105.612 52.3395C106.468 53.1953 106.949 54.3559 106.949 55.5662V62.2309C106.949 63.4412 106.468 64.6019 105.612 65.4576C104.756 66.3134 103.596 66.7942 102.386 66.7942Z" fill="url(#paint6_linear_6256_54153)"/>
<path d="M80.4945 87.8369C79.575 87.8376 78.6767 87.5605 77.9173 87.0419C77.158 86.5233 76.5731 85.7874 76.2392 84.9306C75.9053 84.0738 75.838 83.1361 76.0462 82.2405C76.2544 81.3448 76.7284 80.5329 77.4059 79.9113L80.5426 77.0292L76.3276 67.6001C75.8414 66.4965 75.8119 65.2454 76.2454 64.1201C76.6789 62.9948 77.5402 62.0869 78.641 61.5947C79.7419 61.1025 80.9929 61.066 82.1205 61.4933C83.2482 61.9206 84.1608 62.7769 84.6591 63.875L90.2167 76.3063C90.6072 77.1803 90.713 78.1551 90.5191 79.0925C90.3251 80.03 89.8412 80.8827 89.1359 81.53L83.5783 86.6313C82.7376 87.4051 81.6372 87.8353 80.4945 87.8369Z" fill="url(#paint7_linear_6256_54153)"/>
<defs>
<linearGradient id="paint0_linear_6256_54153" x1="38.3738" y1="19" x2="38.3738" y2="57.6917" gradientUnits="userSpaceOnUse">
<stop stop-color="#0C1B22"/>
<stop offset="1" stop-color="#44D8BE"/>
</linearGradient>
<linearGradient id="paint1_linear_6256_54153" x1="122.624" y1="19.0322" x2="122.624" y2="57.7263" gradientUnits="userSpaceOnUse">
<stop stop-color="#0C1B22"/>
<stop offset="1" stop-color="#44D8BE"/>
</linearGradient>
<linearGradient id="paint2_linear_6256_54153" x1="122.633" y1="103.333" x2="122.633" y2="142.028" gradientUnits="userSpaceOnUse">
<stop stop-color="#0C1B22"/>
<stop offset="1" stop-color="#44D8BE"/>
</linearGradient>
<linearGradient id="paint3_linear_6256_54153" x1="38.3732" y1="103.279" x2="38.3732" y2="141.987" gradientUnits="userSpaceOnUse">
<stop stop-color="#0C1B22"/>
<stop offset="1" stop-color="#44D8BE"/>
</linearGradient>
<linearGradient id="paint4_linear_6256_54153" x1="80.4773" y1="95.5146" x2="80.4773" y2="111.144" gradientUnits="userSpaceOnUse">
<stop stop-color="#0C1B22"/>
<stop offset="1" stop-color="#44D8BE"/>
</linearGradient>
<linearGradient id="paint5_linear_6256_54153" x1="58.6004" y1="51.0029" x2="58.6004" y2="66.7942" gradientUnits="userSpaceOnUse">
<stop stop-color="#0C1B22"/>
<stop offset="1" stop-color="#44D8BE"/>
</linearGradient>
<linearGradient id="paint6_linear_6256_54153" x1="102.386" y1="51.0029" x2="102.386" y2="66.7942" gradientUnits="userSpaceOnUse">
<stop stop-color="#0C1B22"/>
<stop offset="1" stop-color="#44D8BE"/>
</linearGradient>
<linearGradient id="paint7_linear_6256_54153" x1="83.2707" y1="61.1973" x2="83.2707" y2="87.8369" gradientUnits="userSpaceOnUse">
<stop stop-color="#0C1B22"/>
<stop offset="1" stop-color="#44D8BE"/>
</linearGradient>
</defs>
</svg>
