<svg width="61" height="61" viewBox="0 0 61 61" fill="none" xmlns="http://www.w3.org/2000/svg">
<g clip-path="url(#clip0_6099_63565)">
<path d="M60.5 30.5C60.5 13.9314 47.0686 0.5 30.5 0.5C13.9314 0.5 0.5 13.9314 0.5 30.5C0.5 45.4736 11.4705 57.885 25.8125 60.1355V39.1719H18.1953V30.5H25.8125V23.8906C25.8125 16.3719 30.2914 12.2188 37.1439 12.2188C40.4252 12.2188 43.8594 12.8047 43.8594 12.8047V20.1875H40.0766C36.35 20.1875 35.1875 22.5002 35.1875 24.875V30.5H43.5078L42.1777 39.1719H35.1875V60.1355C49.5295 57.885 60.5 45.4736 60.5 30.5Z" fill="#ACB4C0"/>
<path d="M42.1777 39.1719L43.5078 30.5H35.1875V24.875C35.1875 22.5025 36.35 20.1875 40.0766 20.1875H43.8594V12.8047C43.8594 12.8047 40.4264 12.2188 37.1439 12.2188C30.2914 12.2188 25.8125 16.3719 25.8125 23.8906V30.5H18.1953V39.1719H25.8125V60.1355C28.9186 60.6215 32.0814 60.6215 35.1875 60.1355V39.1719H42.1777Z" fill="white"/>
</g>
<defs>
<clipPath id="clip0_6099_63565">
<rect width="60" height="60" fill="white" transform="translate(0.5 0.5)"/>
</clipPath>
</defs>
</svg>
