<svg width="161" height="161" viewBox="0 0 161 161" fill="none" xmlns="http://www.w3.org/2000/svg">
<path fill-rule="evenodd" clip-rule="evenodd" d="M81.7745 15.058C71.3745 15.058 54.7345 16.818 41.4545 25.458C39.0545 27.0581 35.6945 26.258 34.0945 23.858C32.4945 21.458 33.2945 18.098 35.6945 16.498C51.5345 6.25805 70.5745 4.49805 81.7745 4.49805C92.9745 4.49805 112.015 6.41805 127.855 16.498C130.255 18.098 131.055 21.298 129.455 23.858C127.855 26.258 124.655 27.0581 122.095 25.458C108.815 16.818 92.1745 15.058 81.7745 15.058ZM35.3745 63.2181C48.3345 47.8581 67.5345 40.6581 81.6145 40.6581C103.535 40.6581 118.415 51.698 127.855 64.6581C136.975 77.298 140.975 91.8581 140.975 100.338C140.975 107.058 138.575 112.978 134.255 117.298C129.935 121.618 124.015 123.858 117.615 123.858C112.174 123.858 106.415 121.458 102.095 117.458C97.6145 113.458 94.2545 107.538 94.2545 100.338C94.2545 92.9781 89.2945 87.5381 81.6145 87.5381C78.7345 87.5381 75.6945 88.3381 73.4545 90.258C71.2145 92.1781 68.9745 96.0181 68.9745 104.018C68.9745 111.858 72.1745 122.418 79.0545 131.058C85.7745 139.538 96.0145 145.778 110.575 145.778C113.455 145.778 115.855 148.178 115.855 151.058C115.855 153.938 113.455 156.338 110.575 156.338C92.6545 156.338 79.3745 148.178 70.8945 137.618C62.4145 127.218 58.4145 114.258 58.4145 103.858C58.4145 93.7781 61.4545 86.578 66.5745 82.258C71.5345 77.938 77.4545 76.8181 81.7745 76.8181C95.6945 76.8181 105.135 87.5381 105.135 100.178C105.135 103.858 106.895 107.058 109.455 109.458C112.175 111.858 115.375 113.138 117.935 113.138C121.775 113.138 124.975 111.858 127.055 109.618C129.135 107.538 130.575 104.338 130.575 100.178C130.575 94.0981 127.375 81.6181 119.375 70.7381C111.535 60.0181 99.5345 51.2181 81.7745 51.2181C70.7345 51.2181 54.5745 57.1381 43.5345 69.9381C32.9745 82.4181 26.7345 102.258 36.3345 131.218C37.2945 133.938 35.6945 136.978 32.9745 137.938C30.2545 138.898 27.2145 137.298 26.2545 134.578C15.6945 102.738 22.0945 79.0581 35.3745 63.2181Z" fill="url(#paint0_linear_6256_53868)"/>
<path fill-rule="evenodd" clip-rule="evenodd" d="M81.7764 33.3002C57.1364 33.3002 31.6964 50.2602 21.6164 70.2602C20.3364 72.8202 17.1364 73.9402 14.5764 72.6602C12.0164 71.3802 10.8964 68.1802 12.1764 65.6202C23.8564 42.1002 52.9764 22.7402 81.7764 22.7402C110.416 22.7402 136.176 38.4202 148.976 65.6202C150.256 68.3402 149.136 71.3802 146.416 72.6602C143.696 73.9402 140.656 72.8202 139.376 70.1002C128.176 46.5802 106.416 33.3002 81.7764 33.3002ZM57.9364 65.6202C64.0164 61.4602 71.8564 58.9002 81.7764 58.9002C97.9364 58.9002 108.496 65.7802 114.896 74.7402C121.136 83.3802 123.056 93.6202 123.056 100.5C123.056 103.38 120.656 105.78 117.776 105.78C114.896 105.78 112.496 103.38 112.496 100.5C112.496 95.2202 110.896 87.3802 106.256 80.9802C101.776 74.7402 94.4164 69.6202 81.7764 69.6202C73.7764 69.6202 68.0164 71.7002 64.0164 74.4202C59.8564 77.3002 57.1364 81.1402 55.0564 85.4602C51.0564 94.2602 51.0564 104.18 51.0564 107.7C51.0564 110.74 51.8564 118.26 54.7364 126.26C57.6164 134.26 62.4164 142.1 70.0964 146.58C72.6564 148.02 73.4564 151.38 71.8564 153.94C70.4164 156.5 67.0564 157.3 64.6564 155.7C54.2564 149.46 48.1764 139.06 44.8164 129.94C41.4564 120.66 40.4964 112.02 40.4964 107.7V107.54C40.4964 103.86 40.4964 92.0202 45.4564 80.9802C47.8564 75.3802 51.8564 69.7802 57.9364 65.6202ZM81.7764 95.0602C84.6564 95.0602 87.0564 97.4602 87.0564 100.34C87.0564 106.74 88.6564 114.42 94.2564 120.34C99.6964 126.26 109.776 131.38 128.656 131.38C131.536 131.38 133.936 133.78 133.936 136.66C133.936 139.54 131.536 141.94 128.656 141.94C107.856 141.94 94.5764 136.18 86.5764 127.54C78.5764 118.9 76.6564 108.34 76.6564 100.34C76.3364 97.4602 78.7364 95.0602 81.7764 95.0602Z" fill="url(#paint1_linear_6256_53868)"/>
<defs>
<linearGradient id="paint0_linear_6256_53868" x1="80.9707" y1="4.49805" x2="80.9707" y2="156.338" gradientUnits="userSpaceOnUse">
<stop stop-color="#0C1B22"/>
<stop offset="1" stop-color="#44D8BE"/>
</linearGradient>
<linearGradient id="paint1_linear_6256_53868" x1="80.5746" y1="22.7402" x2="80.5746" y2="156.526" gradientUnits="userSpaceOnUse">
<stop stop-color="#0C1B22"/>
<stop offset="1" stop-color="#44D8BE"/>
</linearGradient>
</defs>
</svg>
