<svg width="24" height="24" viewBox="0 0 24 24" fill="none" xmlns="http://www.w3.org/2000/svg">
<path d="M19.1193 1.35C18.6814 1.35 18.3264 1.70497 18.3264 2.14286C18.3264 2.58074 18.6814 2.93572 19.1193 2.93572H19.6299L17.007 5.26551C15.9183 4.26965 14.432 3.65614 12.7972 3.65614C10.5629 3.65614 8.60514 4.8019 7.56154 6.50516C7.50313 6.50347 7.44434 6.50251 7.38516 6.50251C4.06659 6.50251 1.35 9.03379 1.35 12.1657C1.35 15.0299 3.62295 17.392 6.5489 17.7743V19.1998H5.28717C4.84928 19.1998 4.49431 19.5548 4.49431 19.9927C4.49431 20.4306 4.84928 20.7856 5.28717 20.7856H6.54899V21.8138C6.54899 22.2756 6.92339 22.65 7.38522 22.65C7.84706 22.65 8.22145 22.2756 8.22145 21.8138V20.7855H9.57295C10.0108 20.7855 10.3658 20.4305 10.3658 19.9927C10.3658 19.5548 10.0108 19.1998 9.57295 19.1998H8.22145V17.7743C10.1017 17.5286 11.7098 16.467 12.6209 14.9799C12.6792 14.9816 12.738 14.9825 12.7972 14.9825C16.1158 14.9825 18.8324 12.4513 18.8324 9.31934C18.8324 8.30124 18.5443 7.34537 18.0417 6.51958L20.9775 3.91176V4.48852C20.9775 4.95036 21.3519 5.32475 21.8138 5.32475C22.2756 5.32475 22.65 4.95036 22.65 4.48852V2.34802C22.65 1.79683 22.2032 1.35 21.652 1.35H19.1193ZM7.38524 16.2432C4.9704 16.2432 3.02255 14.4048 3.02255 12.1657C3.02255 10.0787 4.71422 8.34056 6.89974 8.1136C6.80956 8.50233 6.76204 8.90576 6.76204 9.31934C6.76204 11.7998 8.46769 13.9045 10.8242 14.6715C10.0261 15.6262 8.78252 16.2432 7.38524 16.2432ZM11.748 12.1657C11.748 12.5371 11.6945 12.897 11.5946 13.239C9.7661 12.7483 8.43454 11.1716 8.43454 9.31934C8.43454 8.9479 8.48796 8.58803 8.58794 8.24598C10.4164 8.73673 11.748 10.3135 11.748 12.1657ZM13.2828 13.3714C13.3729 12.9826 13.4204 12.5792 13.4204 12.1657C13.4204 9.68525 11.7148 7.58054 9.35831 6.81347C10.1565 5.8588 11.4001 5.24178 12.7973 5.24178C15.2122 5.24178 17.16 7.08014 17.16 9.3193C17.1599 11.4063 15.4683 13.1444 13.2828 13.3714Z" fill="#545F71" stroke="#545F71" stroke-width="0.3"/>
</svg>
