<svg width="25" height="24" viewBox="0 0 25 24" fill="none" xmlns="http://www.w3.org/2000/svg">
<g clip-path="url(#clip0_7888_81825)">
<path d="M24.6413 12.2763C24.6413 11.4605 24.5751 10.6404 24.434 9.83789H13.1152V14.4589H19.597C19.328 15.9492 18.4638 17.2676 17.1983 18.1054V21.1037H21.0653C23.3361 19.0137 24.6413 15.9272 24.6413 12.2763Z" fill="#4285F4"/>
<path d="M13.1141 24.0013C16.3506 24.0013 19.08 22.9387 21.0686 21.1044L17.2016 18.106C16.1257 18.838 14.7368 19.2525 13.1185 19.2525C9.98791 19.2525 7.33349 17.1404 6.38107 14.3008H2.39062V17.3917C4.42774 21.4439 8.57692 24.0013 13.1141 24.0013Z" fill="#34A853"/>
<path d="M6.37777 14.3007C5.87511 12.8103 5.87511 11.1965 6.37777 9.70618V6.61523H2.39174C0.689734 10.006 0.689734 14.0009 2.39174 17.3916L6.37777 14.3007Z" fill="#FBBC04"/>
<path d="M13.1141 4.74966C14.8249 4.7232 16.4784 5.36697 17.7175 6.54867L21.1435 3.12262C18.9741 1.0855 16.0948 -0.034466 13.1141 0.000808666C8.57692 0.000808666 4.42774 2.55822 2.39062 6.61481L6.37666 9.70575C7.32467 6.86173 9.9835 4.74966 13.1141 4.74966Z" fill="#EA4335"/>
</g>
<defs>
<clipPath id="clip0_7888_81825">
<rect width="24" height="24" fill="white" transform="translate(0.875)"/>
</clipPath>
</defs>
</svg>
