<svg width="60" height="60" viewBox="0 0 60 60" fill="none" xmlns="http://www.w3.org/2000/svg">
<g clip-path="url(#clip0_6811_88026)">
<path d="M27.6838 40.694C28.142 40.2358 28.142 39.4942 27.6838 39.036C27.2251 38.5791 26.4821 38.5791 26.023 39.036C25.5653 39.4942 25.5653 40.2358 26.023 40.694C26.4821 41.1509 27.2251 41.1509 27.6838 40.694Z" fill="#23A991"/>
<path d="M22.127 12.887C22.127 19.9928 27.9194 25.7744 35.0391 25.7744C42.1589 25.7744 47.9513 19.9928 47.9513 12.887C47.9513 5.7811 42.1589 0 35.0391 0C27.9194 0 22.127 5.7811 22.127 12.887ZM45.6039 12.887C45.6039 18.701 40.8646 23.4311 35.0391 23.4311C29.2137 23.4311 24.4744 18.701 24.4744 12.887C24.4744 7.07337 29.2137 2.34329 35.0391 2.34329C40.8646 2.34329 45.6039 7.07337 45.6039 12.887Z" fill="#23A991"/>
<path d="M13.5793 59.6532C14.0343 60.1109 14.775 60.116 15.236 59.6628L20.927 54.0671C21.8939 53.1021 22.1879 51.6734 21.7627 50.4315L22.9869 49.2532C23.646 48.6179 24.5137 48.2677 25.4311 48.2677H41.036C43.8045 48.2677 46.4212 47.2066 48.4049 45.2799C48.4865 45.2007 47.7852 46.0251 59.0508 32.587C60.7217 30.614 60.4717 27.6514 58.4931 25.9819C56.5268 24.328 53.5813 24.5656 51.9058 26.5047L44.9791 33.6101C44.1045 32.5357 42.7707 31.866 41.3296 31.866H28.2399C26.3773 31.0883 24.4009 30.6946 22.3617 30.6946C16.7092 30.6946 11.7736 33.3002 9.1248 38.1854C8.00888 37.9744 6.83196 38.3113 5.98528 39.1563L0.401099 44.7461C-0.0548091 45.2025 -0.0557263 45.9409 0.399264 46.3986L13.5793 59.6532ZM22.3613 33.0374C24.1592 33.0374 25.8975 33.3986 27.529 34.1109C27.6776 34.1759 27.8377 34.2093 27.9996 34.2093H41.3296C42.6024 34.2093 43.6775 35.2452 43.6775 36.5521C43.6775 37.8444 42.6244 38.8954 41.3296 38.8954H31.7523C31.1042 38.8954 30.5786 39.42 30.5786 40.0668C30.5786 40.7141 31.1042 41.2383 31.7523 41.2383H41.3296C43.9187 41.2383 46.0249 39.1362 46.0249 36.5521C46.0249 36.3461 46.0102 36.142 45.9836 35.9396C52.6842 29.0654 53.629 28.0995 53.6694 28.0515C54.5059 27.0659 55.9911 26.9409 56.979 27.7722C57.9679 28.6067 58.0931 30.088 57.2542 31.0791L46.7257 43.6411C45.1883 45.1141 43.1697 45.9248 41.036 45.9248H25.4311C23.9019 45.9248 22.4544 46.5085 21.3563 47.5673L20.3587 48.5281L11.1626 39.3504C13.3119 35.3262 17.3449 33.0374 22.3613 33.0374ZM7.64654 40.8121C8.03365 40.4257 8.62807 40.3561 9.10003 40.6473C9.30322 40.7709 8.7198 40.2408 19.2671 50.7529C19.7363 51.2212 19.7111 51.9673 19.2736 52.404L14.4219 57.1744L2.88795 45.5751L7.64654 40.8121Z" fill="#23A991"/>
<path d="M33.6319 5.85938V7.23221C32.2656 7.71561 31.284 9.01795 31.284 10.5455C31.284 12.4832 32.8636 14.0602 34.8056 14.0602C35.4528 14.0602 35.9793 14.5857 35.9793 15.2316C35.9793 15.8775 35.4528 16.4031 34.8056 16.4031C34.3043 16.4031 33.7626 16.0886 33.2815 15.5168C32.8641 15.0215 32.1238 14.9579 31.6276 15.374C31.1313 15.7906 31.0671 16.5294 31.4845 17.0247C32.1119 17.7695 32.8499 18.2886 33.6319 18.5504V19.9178C33.6319 20.565 34.1575 21.0892 34.8056 21.0892C35.4537 21.0892 35.9793 20.565 35.9793 19.9178V18.5449C37.3457 18.0611 38.3272 16.7587 38.3272 15.2316C38.3272 13.2935 36.7476 11.7169 34.8056 11.7169C34.1584 11.7169 33.6319 11.1914 33.6319 10.5455C33.6319 9.8996 34.1584 9.37363 34.8056 9.37363C35.2216 9.37363 35.6605 9.58557 36.0752 9.98612C36.5412 10.4361 37.2842 10.4237 37.7351 9.95911C38.1859 9.49402 38.1735 8.75244 37.708 8.30246C37.1122 7.72705 36.5159 7.40158 35.9793 7.22397V5.85938C35.9793 5.2121 35.4537 4.6875 34.8056 4.6875C34.1575 4.6875 33.6319 5.2121 33.6319 5.85938Z" fill="#23A991"/>
</g>
<defs>
<clipPath id="clip0_6811_88026">
<rect width="60" height="60" fill="white"/>
</clipPath>
</defs>
</svg>
