<svg width="17" height="16" viewBox="0 0 17 16" fill="none" xmlns="http://www.w3.org/2000/svg">
<mask id="path-1-inside-1_6473_148442" fill="white">
<path d="M15.0322 4.8424C14.6802 3.5304 13.6449 2.4964 12.3315 2.14507C11.0449 1.8024 9.67821 2.1504 8.50155 3.10307C7.64288 2.4024 6.69155 2.02307 5.72021 2.0004C4.66488 1.98574 3.68021 2.37174 2.93755 3.1124C1.54155 4.5064 1.23688 7.02374 3.35488 9.1384L8.02821 13.8051C8.15888 13.9351 8.32955 14.0004 8.50021 14.0004C8.67088 14.0004 8.84155 13.9351 8.97221 13.8051L13.6455 9.1384C14.9182 7.86774 15.4235 6.30174 15.0322 4.8424ZM12.7015 8.19574L8.50021 12.3911L4.29888 8.19574C2.73155 6.62974 2.98355 4.9524 3.88155 4.05507C4.31555 3.62174 4.93155 3.33907 5.63021 3.33907C6.37688 3.33907 7.21755 3.6624 8.02755 4.47174C8.28821 4.7324 8.71088 4.7324 8.97155 4.47174C10.5262 2.91974 12.2002 3.17974 13.0969 4.07574C13.5795 4.5584 13.8375 5.1984 13.8249 5.87774C13.8102 6.67574 13.4215 7.47707 12.7015 8.19574Z"/>
</mask>
<path d="M15.0322 4.8424C14.6802 3.5304 13.6449 2.4964 12.3315 2.14507C11.0449 1.8024 9.67821 2.1504 8.50155 3.10307C7.64288 2.4024 6.69155 2.02307 5.72021 2.0004C4.66488 1.98574 3.68021 2.37174 2.93755 3.1124C1.54155 4.5064 1.23688 7.02374 3.35488 9.1384L8.02821 13.8051C8.15888 13.9351 8.32955 14.0004 8.50021 14.0004C8.67088 14.0004 8.84155 13.9351 8.97221 13.8051L13.6455 9.1384C14.9182 7.86774 15.4235 6.30174 15.0322 4.8424ZM12.7015 8.19574L8.50021 12.3911L4.29888 8.19574C2.73155 6.62974 2.98355 4.9524 3.88155 4.05507C4.31555 3.62174 4.93155 3.33907 5.63021 3.33907C6.37688 3.33907 7.21755 3.6624 8.02755 4.47174C8.28821 4.7324 8.71088 4.7324 8.97155 4.47174C10.5262 2.91974 12.2002 3.17974 13.0969 4.07574C13.5795 4.5584 13.8375 5.1984 13.8249 5.87774C13.8102 6.67574 13.4215 7.47707 12.7015 8.19574Z" fill="#1F2A37"/>
<path d="M15.0322 4.8424L16.481 4.45389L16.481 4.45371L15.0322 4.8424ZM12.3315 2.14507L12.7192 0.696022L12.7176 0.695593L12.3315 2.14507ZM8.50155 3.10307L7.55322 4.26525L8.49785 5.03606L9.44542 4.26888L8.50155 3.10307ZM5.72021 2.0004L5.75521 0.500811L5.74813 0.500646L5.74106 0.500548L5.72021 2.0004ZM2.93755 3.1124L1.87832 2.05031L1.87765 2.05098L2.93755 3.1124ZM3.35488 9.1384L4.41478 8.07699L4.41471 8.07691L3.35488 9.1384ZM8.02821 13.8051L6.96831 14.8665L6.97027 14.8684L8.02821 13.8051ZM8.97221 13.8051L10.0302 14.8684L10.0321 14.8665L8.97221 13.8051ZM13.6455 9.1384L12.5857 8.07691L12.5856 8.07699L13.6455 9.1384ZM12.7015 8.19574L11.6419 7.13409L11.6416 7.13432L12.7015 8.19574ZM8.50021 12.3911L7.44031 13.4525L8.50021 14.5109L9.56012 13.4525L8.50021 12.3911ZM4.29888 8.19574L3.23867 9.25685L3.23898 9.25715L4.29888 8.19574ZM3.88155 4.05507L2.8217 2.99359L2.82128 2.99402L3.88155 4.05507ZM8.02755 4.47174L9.08821 3.41108L9.08777 3.41064L8.02755 4.47174ZM8.97155 4.47174L7.9118 3.41017L7.91089 3.41108L8.97155 4.47174ZM13.0969 4.07574L14.1575 3.01508L14.1571 3.01468L13.0969 4.07574ZM13.8249 5.87774L12.3251 5.84977L12.3251 5.85017L13.8249 5.87774ZM16.481 4.45371C15.9899 2.62349 14.5497 1.1857 12.7192 0.696023L11.9439 3.59412C12.7401 3.8071 13.3705 4.43732 13.5835 5.2311L16.481 4.45371ZM12.7176 0.695593C10.8923 0.209496 9.04176 0.735704 7.55767 1.93726L9.44542 4.26888C10.3147 3.5651 11.1974 3.39531 11.9455 3.59455L12.7176 0.695593ZM9.44988 1.94089C8.37357 1.06263 7.10914 0.532406 5.75521 0.500811L5.68522 3.49999C6.27396 3.51373 6.91219 3.74218 7.55322 4.26525L9.44988 1.94089ZM5.74106 0.500548C4.29588 0.480463 2.91738 1.01405 1.87832 2.05031L3.99678 4.17449C4.44305 3.72942 5.03388 3.49101 5.69937 3.50026L5.74106 0.500548ZM1.87765 2.05098C-0.13135 4.0571 -0.383299 7.52576 2.29506 10.1999L4.41471 8.07691C2.85706 6.52171 3.21445 4.9557 3.99745 4.17382L1.87765 2.05098ZM2.29498 10.1998L6.96831 14.8665L9.08812 12.7437L4.41478 8.07699L2.29498 10.1998ZM6.97027 14.8684C7.3913 15.2873 7.94634 15.5004 8.50021 15.5004V12.5004C8.71276 12.5004 8.92646 12.5828 9.08616 12.7417L6.97027 14.8684ZM8.50021 15.5004C9.05409 15.5004 9.60913 15.2873 10.0302 14.8684L7.91427 12.7417C8.07397 12.5828 8.28767 12.5004 8.50021 12.5004V15.5004ZM10.0321 14.8665L14.7055 10.1998L12.5856 8.07699L7.91231 12.7437L10.0321 14.8665ZM14.7054 10.1999C16.2722 8.63551 17.04 6.53825 16.481 4.45389L13.5834 5.23092C13.8071 6.06522 13.5642 7.09996 12.5857 8.07691L14.7054 10.1999ZM11.6416 7.13432L7.44031 11.3297L9.56012 13.4525L13.7615 9.25715L11.6416 7.13432ZM9.56012 11.3297L5.35878 7.13432L3.23898 9.25715L7.44031 13.4525L9.56012 11.3297ZM5.35909 7.13462C4.79979 6.5758 4.67314 6.11479 4.66511 5.83204C4.65667 5.53495 4.77219 5.28562 4.94181 5.11612L2.82128 2.99402C2.09291 3.72185 1.63343 4.75986 1.66632 5.91726C1.69962 7.08902 2.23064 8.24967 3.23867 9.25685L5.35909 7.13462ZM4.94139 5.11654C5.10542 4.95277 5.34462 4.83907 5.63021 4.83907V1.83907C4.51848 1.83907 3.52568 2.2907 2.8217 2.99359L4.94139 5.11654ZM5.63021 4.83907C5.91654 4.83907 6.39087 4.95685 6.96732 5.53283L9.08777 3.41064C8.04422 2.36795 6.83722 1.83907 5.63021 1.83907V4.83907ZM6.96689 5.5324C7.81334 6.37885 9.18576 6.37885 10.0322 5.5324L7.91089 3.41108C8.23601 3.08596 8.76309 3.08596 9.08821 3.41108L6.96689 5.5324ZM10.0313 5.53331C10.5811 4.98443 11.0356 4.8619 11.3161 4.85532C11.6127 4.84837 11.8647 4.96505 12.0366 5.13679L14.1571 3.01468C13.4324 2.29043 12.3991 1.8291 11.2458 1.85615C10.0765 1.88357 8.91665 2.40704 7.9118 3.41017L10.0313 5.53331ZM12.0362 5.1364C12.2313 5.33147 12.3302 5.5787 12.3251 5.84977L15.3246 5.9057C15.3449 4.81811 14.9278 3.78533 14.1575 3.01508L12.0362 5.1364ZM12.3251 5.85017C12.3194 6.16025 12.166 6.61091 11.6419 7.13409L13.7612 9.25738C14.6771 8.34323 15.301 7.19122 15.3246 5.9053L12.3251 5.85017Z" fill="#545F71" mask="url(#path-1-inside-1_6473_148442)"/>
</svg>
