<svg width="16" height="16" viewBox="0 0 16 16" fill="none" xmlns="http://www.w3.org/2000/svg">
<path d="M1.47702 4.8424C1.82835 3.5304 2.86235 2.4964 4.17369 2.14507C5.45835 1.8024 6.82302 2.1504 7.99835 3.10307C8.85569 2.4024 9.80569 2.02307 10.7757 2.0004C11.8297 1.98574 12.813 2.37174 13.5544 3.1124C14.9484 4.5064 15.2524 7.02374 13.1377 9.1384L8.47102 13.8051C8.34102 13.9351 8.17035 14.0004 7.99969 14.0004C7.82902 14.0004 7.65835 13.9351 7.52835 13.8051L2.86169 9.1384C1.59102 7.86773 1.08635 6.30173 1.47702 4.8424Z" fill="url(#paint0_linear_8301_20235)"/>
<defs>
<linearGradient id="paint0_linear_8301_20235" x1="8.00495" y1="2" x2="8.00495" y2="14.0004" gradientUnits="userSpaceOnUse">
<stop stop-color="#0C1B22"/>
<stop offset="1" stop-color="#44D8BE"/>
</linearGradient>
</defs>
</svg>
