<svg width="24" height="24" viewBox="0 0 24 24" fill="none" xmlns="http://www.w3.org/2000/svg">
<g clip-path="url(#clip0_6876_84687)">
<path d="M22 12C22 17.5275 17.5267 22 12 22C6.47254 22 2 17.5267 2 12C2 9.76859 2.72641 7.6491 4.06652 5.91055H2.78125C2.34977 5.91055 2 5.56078 2 5.1293C2 4.69781 2.34977 4.34805 2.78125 4.34805H5.85418C6.28566 4.34805 6.63543 4.69781 6.63543 5.1293V8.20223C6.63543 8.63371 6.28566 8.98348 5.85418 8.98348C5.4227 8.98348 5.07293 8.63371 5.07293 8.20223V7.17934C4.09137 8.58344 3.5625 10.251 3.5625 12C3.5625 16.6638 7.33684 20.4375 12 20.4375C16.6638 20.4375 20.4375 16.6632 20.4375 12C20.4375 7.33621 16.6632 3.5625 12 3.5625C11.5685 3.5625 11.2188 3.21273 11.2188 2.78125C11.2188 2.34977 11.5685 2 12 2C17.5275 2 22 6.47328 22 12ZM12 12.7812H16.6094C17.0409 12.7812 17.3906 12.4315 17.3906 12C17.3906 11.5685 17.0409 11.2188 16.6094 11.2188H12.7812V5.85418C12.7812 5.4227 12.4315 5.07293 12 5.07293C11.5685 5.07293 11.2188 5.4227 11.2188 5.85418V12C11.2188 12.4315 11.5685 12.7812 12 12.7812Z" fill="#545F71"/>
</g>
<defs>
<clipPath id="clip0_6876_84687">
<rect width="20" height="20" fill="white" transform="translate(2 2)"/>
</clipPath>
</defs>
</svg>
