<svg width="41" height="40" viewBox="0 0 41 40" fill="none" xmlns="http://www.w3.org/2000/svg">
<path d="M0.5 20C0.5 8.95431 9.45431 0 20.5 0C31.5457 0 40.5 8.95431 40.5 20C40.5 31.0457 31.5457 40 20.5 40C9.45431 40 0.5 31.0457 0.5 20Z" fill="#DEE1E3"/>
<path d="M30.6391 11.1706L21.2477 8.04011C21.0867 7.98663 20.9135 7.98663 20.7525 8.04011L11.3612 11.1706C11.0417 11.2771 10.8262 11.5761 10.8262 11.913V18.1877C10.8261 27.1684 18.82 32 21.0001 32C22.5643 32 31.174 27.7483 31.174 18.1876V11.9129C31.174 11.5761 30.9585 11.277 30.6391 11.1706ZM28.0436 18.1893C28.0436 24.9894 22.1574 28.6423 21.0001 28.6436V11.3075C21.2336 11.308 27.2865 13.3504 27.508 13.4241C27.8275 13.5303 28.0435 13.8296 28.0435 14.1667L28.0436 18.1893Z" fill="black"/>
</svg>
