<svg width="161" height="161" viewBox="0 0 161 161" fill="none" xmlns="http://www.w3.org/2000/svg">
<path d="M127.166 133.833H120.499V111.613C120.492 107.287 119.089 103.078 116.499 99.613L102.166 80.4997L116.499 61.393C119.087 57.9266 120.49 53.7189 120.499 49.393V27.1663H127.166C128.934 27.1663 130.63 26.464 131.88 25.2137C133.13 23.9635 133.833 22.2678 133.833 20.4997C133.833 18.7316 133.13 17.0359 131.88 15.7856C130.63 14.5354 128.934 13.833 127.166 13.833H33.8327C32.0646 13.833 30.3689 14.5354 29.1186 15.7856C27.8684 17.0359 27.166 18.7316 27.166 20.4997C27.166 22.2678 27.8684 23.9635 29.1186 25.2137C30.3689 26.464 32.0646 27.1663 33.8327 27.1663H40.4993V49.3863C40.5065 53.7126 41.9093 57.921 44.4993 61.3863L58.8327 80.4997L44.4993 99.6063C41.9115 103.073 40.5089 107.28 40.4993 111.606V133.833H33.8327C32.0646 133.833 30.3689 134.535 29.1186 135.786C27.8684 137.036 27.166 138.732 27.166 140.5C27.166 142.268 27.8684 143.963 29.1186 145.214C30.3689 146.464 32.0646 147.166 33.8327 147.166H127.166C128.934 147.166 130.63 146.464 131.88 145.214C133.13 143.963 133.833 142.268 133.833 140.5C133.833 138.732 133.13 137.036 131.88 135.786C130.63 134.535 128.934 133.833 127.166 133.833ZM53.8327 133.833V111.613C53.8379 110.171 54.3052 108.769 55.166 107.613L69.4994 88.4997C71.2232 86.1887 72.1544 83.3827 72.1544 80.4997C72.1544 77.6166 71.2232 74.8106 69.4994 72.4997L55.166 53.3863C54.3031 52.231 53.8355 50.8283 53.8327 49.3863V27.1663H107.166V49.3863C107.161 50.828 106.693 52.2299 105.833 53.3863L91.4993 72.4997C89.7755 74.8106 88.8443 77.6166 88.8443 80.4997C88.8443 83.3827 89.7755 86.1887 91.4993 88.4997L105.833 107.62C106.696 108.775 107.163 110.178 107.166 111.62V133.833H53.8327Z" fill="url(#paint0_linear_6942_79530)"/>
<defs>
<linearGradient id="paint0_linear_6942_79530" x1="80.4993" y1="13.833" x2="80.4993" y2="147.166" gradientUnits="userSpaceOnUse">
<stop stop-color="#0C1B22"/>
<stop offset="1" stop-color="#44D8BE"/>
</linearGradient>
</defs>
</svg>
