<svg width="30" height="21" viewBox="0 0 30 21" fill="none" xmlns="http://www.w3.org/2000/svg">
<path d="M11.793 5.25781H18.2102V15.7391H11.793V5.25781Z" fill="#FF5F00"/>
<path d="M12.4569 10.5004C12.4561 9.49113 12.6849 8.49492 13.1259 7.58714C13.567 6.67936 14.2088 5.8838 15.0027 5.26067C14.0194 4.48789 12.8385 4.00735 11.595 3.87396C10.3515 3.74057 9.0956 3.95972 7.97076 4.50635C6.84593 5.05298 5.89757 5.90504 5.23409 6.96516C4.5706 8.02528 4.21875 9.25067 4.21875 10.5013C4.21875 11.7519 4.5706 12.9773 5.23409 14.0374C5.89757 15.0975 6.84593 15.9496 7.97076 16.4962C9.0956 17.0429 10.3515 17.262 11.595 17.1286C12.8385 16.9952 14.0194 16.5147 15.0027 15.7419C14.2085 15.1186 13.5666 14.3227 13.1255 13.4146C12.6845 12.5065 12.4558 11.5099 12.4569 10.5003V10.5004Z" fill="#EB001B"/>
<path d="M25.7849 10.5011C25.7849 11.7518 25.433 12.9773 24.7694 14.0374C24.1058 15.0976 23.1573 15.9496 22.0323 16.4962C20.9073 17.0427 19.6512 17.2617 18.4077 17.1281C17.1641 16.9946 15.9832 16.5138 15 15.7408C15.7936 15.1171 16.4352 14.3213 16.8764 13.4135C17.3175 12.5056 17.5468 11.5095 17.5468 10.5001C17.5468 9.49078 17.3175 8.49461 16.8764 7.58679C16.4352 6.67896 15.7936 5.88318 15 5.2595C15.9832 4.48648 17.1641 4.0057 18.4077 3.87211C19.6513 3.73853 20.9073 3.95753 22.0323 4.50409C23.1573 5.05065 24.1058 5.9027 24.7694 6.96286C25.433 8.02302 25.7849 9.2485 25.7849 10.4992V10.5011Z" fill="#F79E1B"/>
</svg>
