<svg width="167" height="166" viewBox="0 0 167 166" fill="none" xmlns="http://www.w3.org/2000/svg">
<rect x="0.911766" y="0.823242" width="165.176" height="165.176" rx="28.2353" fill="white"/>
<g clip-path="url(#clip0_3403_12502)">
<path d="M54.2966 12.8213C55.6514 12.8213 56.7353 13.9052 56.7353 15.26C56.7353 16.6149 55.6514 17.6988 54.2966 17.6988C52.9417 17.6988 51.8578 16.6149 51.8578 15.26C51.8578 13.9052 52.9417 12.8213 54.2966 12.8213Z" fill="black"/>
<path d="M68.9045 12.8213C70.2593 12.8213 71.3432 13.9052 71.3432 15.26C71.3432 16.6149 70.2593 17.6988 68.9045 17.6988C67.5496 17.6988 66.4657 16.6149 66.4657 15.26C66.4657 13.9052 67.5496 12.8213 68.9045 12.8213Z" fill="black"/>
<path d="M73.7573 12.8213C75.1122 12.8213 76.1961 13.9052 76.1961 15.26C76.1961 16.6149 75.1122 17.6988 73.7573 17.6988C72.4025 17.6988 71.3186 16.6149 71.3186 15.26C71.3186 13.9052 72.4025 12.8213 73.7573 12.8213Z" fill="black"/>
<path d="M78.6348 12.8213C79.9897 12.8213 81.0736 13.9052 81.0736 15.26C81.0736 16.6149 79.9897 17.6988 78.6348 17.6988C77.28 17.6988 76.1961 16.6149 76.1961 15.26C76.1961 13.9052 77.28 12.8213 78.6348 12.8213Z" fill="black"/>
<path d="M83.4877 12.8213C84.8426 12.8213 85.9265 13.9052 85.9265 15.26C85.9265 16.6149 84.8426 17.6988 83.4877 17.6988C82.1329 17.6988 81.049 16.6149 81.049 15.26C81.049 13.9052 82.1329 12.8213 83.4877 12.8213Z" fill="black"/>
<path d="M93.2427 12.8213C94.5975 12.8213 95.6814 13.9052 95.6814 15.26C95.6814 16.6149 94.5975 17.6988 93.2427 17.6988C91.8878 17.6988 90.8039 16.6149 90.8039 15.26C90.8039 13.9052 91.8878 12.8213 93.2427 12.8213Z" fill="black"/>
<path d="M102.973 12.8213C104.328 12.8213 105.412 13.9052 105.412 15.26C105.412 16.6149 104.328 17.6988 102.973 17.6988C101.618 17.6988 100.534 16.6149 100.534 15.26C100.534 13.9052 101.618 12.8213 102.973 12.8213Z" fill="black"/>
<path d="M59.1494 17.7012C60.5043 17.7012 61.5882 18.7851 61.5882 20.1399C61.5882 21.4948 60.5043 22.5787 59.1494 22.5787C57.7946 22.5787 56.7107 21.4948 56.7107 20.1399C56.7107 18.7851 57.7946 17.7012 59.1494 17.7012Z" fill="black"/>
<path d="M64.027 17.7012C65.3819 17.7012 66.4658 18.7851 66.4658 20.1399C66.4658 21.4948 65.3819 22.5787 64.027 22.5787C62.6722 22.5787 61.5883 21.4948 61.5883 20.1399C61.5883 18.7851 62.6722 17.7012 64.027 17.7012Z" fill="black"/>
<path d="M73.7573 17.7012C75.1122 17.7012 76.1961 18.7851 76.1961 20.1399C76.1961 21.4948 75.1122 22.5787 73.7573 22.5787C72.4025 22.5787 71.3186 21.4948 71.3186 20.1399C71.3186 18.7851 72.4025 17.7012 73.7573 17.7012Z" fill="black"/>
<path d="M78.6348 17.7012C79.9897 17.7012 81.0736 18.7851 81.0736 20.1399C81.0736 21.4948 79.9897 22.5787 78.6348 22.5787C77.2799 22.5787 76.1961 21.4948 76.1961 20.1399C76.1961 18.7851 77.2799 17.7012 78.6348 17.7012Z" fill="black"/>
<path d="M83.4877 17.7012C84.8425 17.7012 85.9264 18.7851 85.9264 20.1399C85.9264 21.4948 84.8425 22.5787 83.4877 22.5787C82.1328 22.5787 81.0489 21.4948 81.0489 20.1399C81.0489 18.7851 82.1328 17.7012 83.4877 17.7012Z" fill="black"/>
<path d="M88.3652 17.7012C89.7201 17.7012 90.804 18.7851 90.804 20.1399C90.804 21.4948 89.7201 22.5787 88.3652 22.5787C87.0104 22.5787 85.9265 21.4948 85.9265 20.1399C85.9265 18.7851 87.0104 17.7012 88.3652 17.7012Z" fill="black"/>
<path d="M107.826 17.7012C109.181 17.7012 110.265 18.7851 110.265 20.1399C110.265 21.4948 109.181 22.5787 107.826 22.5787C106.471 22.5787 105.387 21.4948 105.387 20.1399C105.387 18.7851 106.471 17.7012 107.826 17.7012Z" fill="black"/>
<path d="M112.703 17.7012C114.058 17.7012 115.142 18.7851 115.142 20.1399C115.142 21.4948 114.058 22.5787 112.703 22.5787C111.349 22.5787 110.265 21.4948 110.265 20.1399C110.265 18.7851 111.349 17.7012 112.703 17.7012Z" fill="black"/>
<path d="M64.027 22.5527C65.3819 22.5527 66.4658 23.6366 66.4658 24.9915C66.4658 26.3463 65.3819 27.4302 64.027 27.4302C62.6722 27.4302 61.5883 26.3463 61.5883 24.9915C61.5883 23.6366 62.6722 22.5527 64.027 22.5527Z" fill="black"/>
<path d="M73.7573 22.5527C75.1122 22.5527 76.1961 23.6366 76.1961 24.9915C76.1961 26.3463 75.1122 27.4302 73.7573 27.4302C72.4025 27.4302 71.3186 26.3463 71.3186 24.9915C71.3186 23.6366 72.4025 22.5527 73.7573 22.5527Z" fill="black"/>
<path d="M83.4878 22.5527C84.8426 22.5527 85.9265 23.6366 85.9265 24.9915C85.9265 26.3463 84.8426 27.4302 83.4878 27.4302C82.1329 27.4302 81.049 26.3463 81.049 24.9915C81.049 23.6366 82.1329 22.5527 83.4878 22.5527Z" fill="black"/>
<path d="M98.0956 22.5527C99.4504 22.5527 100.534 23.6366 100.534 24.9915C100.534 26.3463 99.4504 27.4302 98.0956 27.4302C96.7407 27.4302 95.6568 26.3463 95.6568 24.9915C95.6568 23.6366 96.7407 22.5527 98.0956 22.5527Z" fill="black"/>
<path d="M102.973 22.5527C104.328 22.5527 105.412 23.6366 105.412 24.9915C105.412 26.3463 104.328 27.4302 102.973 27.4302C101.618 27.4302 100.534 26.3463 100.534 24.9915C100.534 23.6366 101.618 22.5527 102.973 22.5527Z" fill="black"/>
<path d="M107.826 22.5527C109.181 22.5527 110.265 23.6366 110.265 24.9915C110.265 26.3463 109.181 27.4302 107.826 27.4302C106.471 27.4302 105.387 26.3463 105.387 24.9915C105.387 23.6366 106.471 22.5527 107.826 22.5527Z" fill="black"/>
<path d="M112.703 22.5527C114.058 22.5527 115.142 23.6366 115.142 24.9915C115.142 26.3463 114.058 27.4302 112.703 27.4302C111.349 27.4302 110.265 26.3463 110.265 24.9915C110.265 23.6366 111.349 22.5527 112.703 22.5527Z" fill="black"/>
<path d="M54.2966 27.4287C55.6514 27.4287 56.7353 28.5126 56.7353 29.8675C56.7353 31.2223 55.6514 32.3062 54.2966 32.3062C52.9417 32.3062 51.8578 31.2223 51.8578 29.8675C51.8578 28.5126 52.9417 27.4287 54.2966 27.4287Z" fill="black"/>
<path d="M59.1495 27.4287C60.5044 27.4287 61.5883 28.5126 61.5883 29.8675C61.5883 31.2223 60.5044 32.3062 59.1495 32.3062C57.7947 32.3062 56.7108 31.2223 56.7108 29.8675C56.7108 28.5126 57.7947 27.4287 59.1495 27.4287Z" fill="black"/>
<path d="M102.973 27.4287C104.328 27.4287 105.412 28.5126 105.412 29.8675C105.412 31.2223 104.328 32.3062 102.973 32.3062C101.618 32.3062 100.534 31.2223 100.534 29.8675C100.534 28.5126 101.618 27.4287 102.973 27.4287Z" fill="black"/>
<path d="M107.826 27.4287C109.181 27.4287 110.265 28.5126 110.265 29.8675C110.265 31.2223 109.181 32.3062 107.826 32.3062C106.471 32.3062 105.387 31.2223 105.387 29.8675C105.387 28.5126 106.471 27.4287 107.826 27.4287Z" fill="black"/>
<path d="M54.2966 32.2842C55.6514 32.2842 56.7353 33.3681 56.7353 34.7229C56.7353 36.0778 55.6514 37.1617 54.2966 37.1617C52.9417 37.1617 51.8578 36.0778 51.8578 34.7229C51.8578 33.3681 52.9417 32.2842 54.2966 32.2842Z" fill="black"/>
<path d="M64.027 32.2842C65.3819 32.2842 66.4658 33.3681 66.4658 34.7229C66.4658 36.0778 65.3819 37.1617 64.027 37.1617C62.6722 37.1617 61.5883 36.0778 61.5883 34.7229C61.5883 33.3681 62.6722 32.2842 64.027 32.2842Z" fill="black"/>
<path d="M73.7573 32.2842C75.1122 32.2842 76.1961 33.3681 76.1961 34.7229C76.1961 36.0778 75.1122 37.1617 73.7573 37.1617C72.4025 37.1617 71.3186 36.0778 71.3186 34.7229C71.3186 33.3681 72.4025 32.2842 73.7573 32.2842Z" fill="black"/>
<path d="M102.973 32.2842C104.328 32.2842 105.412 33.3681 105.412 34.7229C105.412 36.0778 104.328 37.1617 102.973 37.1617C101.618 37.1617 100.534 36.0778 100.534 34.7229C100.534 33.3681 101.618 32.2842 102.973 32.2842Z" fill="black"/>
<path d="M112.703 32.2842C114.058 32.2842 115.142 33.3681 115.142 34.7229C115.142 36.0778 114.058 37.1617 112.703 37.1617C111.349 37.1617 110.265 36.0778 110.265 34.7229C110.265 33.3681 111.349 32.2842 112.703 32.2842Z" fill="black"/>
<path d="M54.2966 37.1602C55.6514 37.1602 56.7353 38.244 56.7353 39.5989C56.7353 40.9538 55.6514 42.0377 54.2966 42.0377C52.9417 42.0377 51.8578 40.9538 51.8578 39.5989C51.8578 38.244 52.9417 37.1602 54.2966 37.1602Z" fill="black"/>
<path d="M68.9044 37.1602C70.2593 37.1602 71.3432 38.244 71.3432 39.5989C71.3432 40.9538 70.2593 42.0377 68.9044 42.0377C67.5496 42.0377 66.4657 40.9538 66.4657 39.5989C66.4657 38.244 67.5496 37.1602 68.9044 37.1602Z" fill="black"/>
<path d="M73.7573 37.1602C75.1122 37.1602 76.1961 38.244 76.1961 39.5989C76.1961 40.9538 75.1122 42.0377 73.7573 42.0377C72.4025 42.0377 71.3186 40.9538 71.3186 39.5989C71.3186 38.244 72.4025 37.1602 73.7573 37.1602Z" fill="black"/>
<path d="M93.2427 37.1602C94.5975 37.1602 95.6814 38.244 95.6814 39.5989C95.6814 40.9538 94.5975 42.0377 93.2427 42.0377C91.8878 42.0377 90.8039 40.9538 90.8039 39.5989C90.8039 38.244 91.8878 37.1602 93.2427 37.1602Z" fill="black"/>
<path d="M102.973 37.1602C104.328 37.1602 105.412 38.244 105.412 39.5989C105.412 40.9538 104.328 42.0377 102.973 42.0377C101.618 42.0377 100.534 40.9538 100.534 39.5989C100.534 38.244 101.618 37.1602 102.973 37.1602Z" fill="black"/>
<path d="M107.826 37.1602C109.181 37.1602 110.265 38.244 110.265 39.5989C110.265 40.9538 109.181 42.0377 107.826 42.0377C106.471 42.0377 105.387 40.9538 105.387 39.5989C105.387 38.244 106.471 37.1602 107.826 37.1602Z" fill="black"/>
<path d="M54.2966 42.0381C55.6514 42.0381 56.7353 43.122 56.7353 44.4768C56.7353 45.8317 55.6514 46.9156 54.2966 46.9156C52.9417 46.9156 51.8578 45.8317 51.8578 44.4768C51.8578 43.122 52.9417 42.0381 54.2966 42.0381Z" fill="black"/>
<path d="M64.027 42.0381C65.3819 42.0381 66.4658 43.122 66.4658 44.4768C66.4658 45.8317 65.3819 46.9156 64.027 46.9156C62.6722 46.9156 61.5883 45.8317 61.5883 44.4768C61.5883 43.122 62.6722 42.0381 64.027 42.0381Z" fill="black"/>
<path d="M73.7573 42.0381C75.1122 42.0381 76.1961 43.122 76.1961 44.4768C76.1961 45.8317 75.1122 46.9156 73.7573 46.9156C72.4025 46.9156 71.3186 45.8317 71.3186 44.4768C71.3186 43.122 72.4025 42.0381 73.7573 42.0381Z" fill="black"/>
<path d="M83.4878 42.0381C84.8426 42.0381 85.9265 43.122 85.9265 44.4768C85.9265 45.8317 84.8426 46.9156 83.4878 46.9156C82.1329 46.9156 81.049 45.8317 81.049 44.4768C81.049 43.122 82.1329 42.0381 83.4878 42.0381Z" fill="black"/>
<path d="M93.2427 42.0381C94.5975 42.0381 95.6814 43.122 95.6814 44.4768C95.6814 45.8317 94.5975 46.9156 93.2427 46.9156C91.8878 46.9156 90.8039 45.8317 90.8039 44.4768C90.8039 43.122 91.8878 42.0381 93.2427 42.0381Z" fill="black"/>
<path d="M102.973 42.0381C104.328 42.0381 105.412 43.122 105.412 44.4768C105.412 45.8317 104.328 46.9156 102.973 46.9156C101.618 46.9156 100.534 45.8317 100.534 44.4768C100.534 43.122 101.618 42.0381 102.973 42.0381Z" fill="black"/>
<path d="M112.703 42.0381C114.058 42.0381 115.142 43.122 115.142 44.4768C115.142 45.8317 114.058 46.9156 112.703 46.9156C111.349 46.9156 110.265 45.8317 110.265 44.4768C110.265 43.122 111.349 42.0381 112.703 42.0381Z" fill="black"/>
<path d="M54.2966 46.8906C55.6514 46.8906 56.7353 47.9745 56.7353 49.3294C56.7353 50.6842 55.6514 51.7681 54.2966 51.7681C52.9417 51.7681 51.8578 50.6842 51.8578 49.3294C51.8578 47.9745 52.9417 46.8906 54.2966 46.8906Z" fill="black"/>
<path d="M59.1495 46.8906C60.5043 46.8906 61.5882 47.9745 61.5882 49.3294C61.5882 50.6842 60.5043 51.7681 59.1495 51.7681C57.7946 51.7681 56.7107 50.6842 56.7107 49.3294C56.7107 47.9745 57.7946 46.8906 59.1495 46.8906Z" fill="black"/>
<path d="M64.027 46.8906C65.3819 46.8906 66.4658 47.9745 66.4658 49.3294C66.4658 50.6842 65.3819 51.7681 64.027 51.7681C62.6722 51.7681 61.5883 50.6842 61.5883 49.3294C61.5883 47.9745 62.6722 46.8906 64.027 46.8906Z" fill="black"/>
<path d="M68.9045 46.8906C70.2593 46.8906 71.3432 47.9745 71.3432 49.3294C71.3432 50.6842 70.2593 51.7681 68.9045 51.7681C67.5496 51.7681 66.4657 50.6842 66.4657 49.3294C66.4657 47.9745 67.5496 46.8906 68.9045 46.8906Z" fill="black"/>
<path d="M73.7573 46.8906C75.1122 46.8906 76.1961 47.9745 76.1961 49.3294C76.1961 50.6842 75.1122 51.7681 73.7573 51.7681C72.4025 51.7681 71.3186 50.6842 71.3186 49.3294C71.3186 47.9745 72.4025 46.8906 73.7573 46.8906Z" fill="black"/>
<path d="M78.6348 46.8906C79.9897 46.8906 81.0736 47.9745 81.0736 49.3294C81.0736 50.6842 79.9897 51.7681 78.6348 51.7681C77.28 51.7681 76.1961 50.6842 76.1961 49.3294C76.1961 47.9745 77.28 46.8906 78.6348 46.8906Z" fill="black"/>
<path d="M88.3652 46.8906C89.7201 46.8906 90.804 47.9745 90.804 49.3294C90.804 50.6842 89.7201 51.7681 88.3652 51.7681C87.0104 51.7681 85.9265 50.6842 85.9265 49.3294C85.9265 47.9745 87.0104 46.8906 88.3652 46.8906Z" fill="black"/>
<path d="M93.2427 46.8906C94.5975 46.8906 95.6814 47.9745 95.6814 49.3294C95.6814 50.6842 94.5975 51.7681 93.2427 51.7681C91.8878 51.7681 90.8039 50.6842 90.8039 49.3294C90.8039 47.9745 91.8878 46.8906 93.2427 46.8906Z" fill="black"/>
<path d="M98.0956 46.8906C99.4504 46.8906 100.534 47.9745 100.534 49.3294C100.534 50.6842 99.4504 51.7681 98.0956 51.7681C96.7407 51.7681 95.6568 50.6842 95.6568 49.3294C95.6568 47.9745 96.7407 46.8906 98.0956 46.8906Z" fill="black"/>
<path d="M102.973 46.8906C104.328 46.8906 105.412 47.9745 105.412 49.3294C105.412 50.6842 104.328 51.7681 102.973 51.7681C101.618 51.7681 100.534 50.6842 100.534 49.3294C100.534 47.9745 101.618 46.8906 102.973 46.8906Z" fill="black"/>
<path d="M107.826 46.8906C109.181 46.8906 110.265 47.9745 110.265 49.3294C110.265 50.6842 109.181 51.7681 107.826 51.7681C106.471 51.7681 105.387 50.6842 105.387 49.3294C105.387 47.9745 106.471 46.8906 107.826 46.8906Z" fill="black"/>
<path d="M15.3505 51.7666C16.7054 51.7666 17.7893 52.8505 17.7893 54.2053C17.7893 55.5602 16.7054 56.6441 15.3505 56.6441C13.9957 56.6441 12.9118 55.5602 12.9118 54.2053C12.9118 52.8505 13.9957 51.7666 15.3505 51.7666Z" fill="black"/>
<path d="M34.8113 51.7666C36.1661 51.7666 37.25 52.8505 37.25 54.2053C37.25 55.5602 36.1661 56.6441 34.8113 56.6441C33.4564 56.6441 32.3725 55.5602 32.3725 54.2053C32.3725 52.8505 33.4564 51.7666 34.8113 51.7666Z" fill="black"/>
<path d="M44.5417 51.7666C45.8965 51.7666 46.9804 52.8505 46.9804 54.2053C46.9804 55.5602 45.8965 56.6441 44.5417 56.6441C43.1868 56.6441 42.1029 55.5602 42.1029 54.2053C42.1029 52.8505 43.1868 51.7666 44.5417 51.7666Z" fill="black"/>
<path d="M49.4191 51.7666C50.7739 51.7666 51.8578 52.8505 51.8578 54.2053C51.8578 55.5602 50.7739 56.6441 49.4191 56.6441C48.0642 56.6441 46.9803 55.5602 46.9803 54.2053C46.9803 52.8505 48.0642 51.7666 49.4191 51.7666Z" fill="black"/>
<path d="M54.2966 51.7666C55.6514 51.7666 56.7353 52.8505 56.7353 54.2053C56.7353 55.5602 55.6514 56.6441 54.2966 56.6441C52.9417 56.6441 51.8578 55.5602 51.8578 54.2053C51.8578 52.8505 52.9417 51.7666 54.2966 51.7666Z" fill="black"/>
<path d="M59.1495 51.7666C60.5044 51.7666 61.5883 52.8505 61.5883 54.2053C61.5883 55.5602 60.5044 56.6441 59.1495 56.6441C57.7947 56.6441 56.7108 55.5602 56.7108 54.2053C56.7108 52.8505 57.7947 51.7666 59.1495 51.7666Z" fill="black"/>
<path d="M68.9045 51.7666C70.2593 51.7666 71.3432 52.8505 71.3432 54.2053C71.3432 55.5602 70.2593 56.6441 68.9045 56.6441C67.5496 56.6441 66.4657 55.5602 66.4657 54.2053C66.4657 52.8505 67.5496 51.7666 68.9045 51.7666Z" fill="black"/>
<path d="M78.6348 51.7666C79.9897 51.7666 81.0736 52.8505 81.0736 54.2053C81.0736 55.5602 79.9897 56.6441 78.6348 56.6441C77.28 56.6441 76.1961 55.5602 76.1961 54.2053C76.1961 52.8505 77.28 51.7666 78.6348 51.7666Z" fill="black"/>
<path d="M98.0956 51.7666C99.4504 51.7666 100.534 52.8505 100.534 54.2053C100.534 55.5602 99.4504 56.6441 98.0956 56.6441C96.7407 56.6441 95.6568 55.5602 95.6568 54.2053C95.6568 52.8505 96.7407 51.7666 98.0956 51.7666Z" fill="black"/>
<path d="M112.703 51.7666C114.058 51.7666 115.142 52.8505 115.142 54.2053C115.142 55.5602 114.058 56.6441 112.703 56.6441C111.349 56.6441 110.265 55.5602 110.265 54.2053C110.265 52.8505 111.349 51.7666 112.703 51.7666Z" fill="black"/>
<path d="M117.581 51.7666C118.936 51.7666 120.02 52.8505 120.02 54.2053C120.02 55.5602 118.936 56.6441 117.581 56.6441C116.226 56.6441 115.142 55.5602 115.142 54.2053C115.142 52.8505 116.226 51.7666 117.581 51.7666Z" fill="black"/>
<path d="M122.434 51.7666C123.789 51.7666 124.873 52.8505 124.873 54.2053C124.873 55.5602 123.789 56.6441 122.434 56.6441C121.079 56.6441 119.995 55.5602 119.995 54.2053C119.995 52.8505 121.079 51.7666 122.434 51.7666Z" fill="black"/>
<path d="M127.311 51.7666C128.666 51.7666 129.75 52.8505 129.75 54.2053C129.75 55.5602 128.666 56.6441 127.311 56.6441C125.956 56.6441 124.873 55.5602 124.873 54.2053C124.873 52.8505 125.956 51.7666 127.311 51.7666Z" fill="black"/>
<path d="M132.189 51.7666C133.544 51.7666 134.628 52.8505 134.628 54.2053C134.628 55.5602 133.544 56.6441 132.189 56.6441C130.834 56.6441 129.75 55.5602 129.75 54.2053C129.75 52.8505 130.834 51.7666 132.189 51.7666Z" fill="black"/>
<path d="M137.042 51.7666C138.397 51.7666 139.48 52.8505 139.48 54.2053C139.48 55.5602 138.397 56.6441 137.042 56.6441C135.687 56.6441 134.603 55.5602 134.603 54.2053C134.603 52.8505 135.687 51.7666 137.042 51.7666Z" fill="black"/>
<path d="M151.65 51.7666C153.004 51.7666 154.088 52.8505 154.088 54.2053C154.088 55.5602 153.004 56.6441 151.65 56.6441C150.295 56.6441 149.211 55.5602 149.211 54.2053C149.211 52.8505 150.295 51.7666 151.65 51.7666Z" fill="black"/>
<path d="M20.2034 56.6455C21.5583 56.6455 22.6422 57.7294 22.6422 59.0843C22.6422 60.4391 21.5583 61.523 20.2034 61.523C18.8486 61.523 17.7647 60.4391 17.7647 59.0843C17.7647 57.7294 18.8486 56.6455 20.2034 56.6455Z" fill="black"/>
<path d="M25.0809 56.6455C26.4358 56.6455 27.5197 57.7294 27.5197 59.0843C27.5197 60.4391 26.4358 61.523 25.0809 61.523C23.7261 61.523 22.6422 60.4391 22.6422 59.0843C22.6422 57.7294 23.7261 56.6455 25.0809 56.6455Z" fill="black"/>
<path d="M34.8113 56.6455C36.1661 56.6455 37.25 57.7294 37.25 59.0843C37.25 60.4391 36.1661 61.523 34.8113 61.523C33.4564 61.523 32.3725 60.4391 32.3725 59.0843C32.3725 57.7294 33.4564 56.6455 34.8113 56.6455Z" fill="black"/>
<path d="M39.6888 56.6455C41.0436 56.6455 42.1275 57.7294 42.1275 59.0843C42.1275 60.4391 41.0436 61.523 39.6888 61.523C38.3339 61.523 37.25 60.4391 37.25 59.0843C37.25 57.7294 38.3339 56.6455 39.6888 56.6455Z" fill="black"/>
<path d="M49.4191 56.6455C50.7739 56.6455 51.8578 57.7294 51.8578 59.0843C51.8578 60.4391 50.7739 61.523 49.4191 61.523C48.0642 61.523 46.9803 60.4391 46.9803 59.0843C46.9803 57.7294 48.0642 56.6455 49.4191 56.6455Z" fill="black"/>
<path d="M78.6348 56.6455C79.9897 56.6455 81.0736 57.7294 81.0736 59.0843C81.0736 60.4391 79.9897 61.523 78.6348 61.523C77.28 61.523 76.1961 60.4391 76.1961 59.0843C76.1961 57.7294 77.28 56.6455 78.6348 56.6455Z" fill="black"/>
<path d="M83.4877 56.6455C84.8426 56.6455 85.9265 57.7294 85.9265 59.0843C85.9265 60.4391 84.8426 61.523 83.4877 61.523C82.1329 61.523 81.049 60.4391 81.049 59.0843C81.049 57.7294 82.1329 56.6455 83.4877 56.6455Z" fill="black"/>
<path d="M93.2427 56.6455C94.5975 56.6455 95.6814 57.7294 95.6814 59.0843C95.6814 60.4391 94.5975 61.523 93.2427 61.523C91.8878 61.523 90.8039 60.4391 90.8039 59.0843C90.8039 57.7294 91.8878 56.6455 93.2427 56.6455Z" fill="black"/>
<path d="M117.581 56.6455C118.936 56.6455 120.02 57.7294 120.02 59.0843C120.02 60.4391 118.936 61.523 117.581 61.523C116.226 61.523 115.142 60.4391 115.142 59.0843C115.142 57.7294 116.226 56.6455 117.581 56.6455Z" fill="black"/>
<path d="M122.434 56.6455C123.789 56.6455 124.873 57.7294 124.873 59.0843C124.873 60.4391 123.789 61.523 122.434 61.523C121.079 61.523 119.995 60.4391 119.995 59.0843C119.995 57.7294 121.079 56.6455 122.434 56.6455Z" fill="black"/>
<path d="M127.311 56.6455C128.666 56.6455 129.75 57.7294 129.75 59.0843C129.75 60.4391 128.666 61.523 127.311 61.523C125.956 61.523 124.873 60.4391 124.873 59.0843C124.873 57.7294 125.956 56.6455 127.311 56.6455Z" fill="black"/>
<path d="M132.189 56.6455C133.544 56.6455 134.628 57.7294 134.628 59.0843C134.628 60.4391 133.544 61.523 132.189 61.523C130.834 61.523 129.75 60.4391 129.75 59.0843C129.75 57.7294 130.834 56.6455 132.189 56.6455Z" fill="black"/>
<path d="M137.042 56.6455C138.397 56.6455 139.48 57.7294 139.48 59.0843C139.48 60.4391 138.397 61.523 137.042 61.523C135.687 61.523 134.603 60.4391 134.603 59.0843C134.603 57.7294 135.687 56.6455 137.042 56.6455Z" fill="black"/>
<path d="M141.919 56.6455C143.274 56.6455 144.358 57.7294 144.358 59.0843C144.358 60.4391 143.274 61.523 141.919 61.523C140.564 61.523 139.48 60.4391 139.48 59.0843C139.48 57.7294 140.564 56.6455 141.919 56.6455Z" fill="black"/>
<path d="M146.772 56.6455C148.127 56.6455 149.211 57.7294 149.211 59.0843C149.211 60.4391 148.127 61.523 146.772 61.523C145.417 61.523 144.333 60.4391 144.333 59.0843C144.333 57.7294 145.417 56.6455 146.772 56.6455Z" fill="black"/>
<path d="M151.65 56.6455C153.004 56.6455 154.088 57.7294 154.088 59.0843C154.088 60.4391 153.004 61.523 151.65 61.523C150.295 61.523 149.211 60.4391 149.211 59.0843C149.211 57.7294 150.295 56.6455 151.65 56.6455Z" fill="black"/>
<path d="M15.3505 61.498C16.7054 61.498 17.7893 62.5819 17.7893 63.9368C17.7893 65.2917 16.7054 66.3755 15.3505 66.3755C13.9957 66.3755 12.9118 65.2917 12.9118 63.9368C12.9118 62.5819 13.9957 61.498 15.3505 61.498Z" fill="black"/>
<path d="M20.2034 61.498C21.5583 61.498 22.6422 62.5819 22.6422 63.9368C22.6422 65.2917 21.5583 66.3755 20.2034 66.3755C18.8486 66.3755 17.7647 65.2917 17.7647 63.9368C17.7647 62.5819 18.8486 61.498 20.2034 61.498Z" fill="black"/>
<path d="M25.0809 61.498C26.4358 61.498 27.5197 62.5819 27.5197 63.9368C27.5197 65.2917 26.4358 66.3755 25.0809 66.3755C23.7261 66.3755 22.6422 65.2917 22.6422 63.9368C22.6422 62.5819 23.7261 61.498 25.0809 61.498Z" fill="black"/>
<path d="M34.8112 61.498C36.1661 61.498 37.25 62.5819 37.25 63.9368C37.25 65.2917 36.1661 66.3755 34.8112 66.3755C33.4563 66.3755 32.3725 65.2917 32.3725 63.9368C32.3725 62.5819 33.4563 61.498 34.8112 61.498Z" fill="black"/>
<path d="M44.5416 61.498C45.8965 61.498 46.9804 62.5819 46.9804 63.9368C46.9804 65.2917 45.8965 66.3755 44.5416 66.3755C43.1868 66.3755 42.1029 65.2917 42.1029 63.9368C42.1029 62.5819 43.1868 61.498 44.5416 61.498Z" fill="black"/>
<path d="M68.9044 61.498C70.2593 61.498 71.3432 62.5819 71.3432 63.9368C71.3432 65.2917 70.2593 66.3755 68.9044 66.3755C67.5496 66.3755 66.4657 65.2917 66.4657 63.9368C66.4657 62.5819 67.5496 61.498 68.9044 61.498Z" fill="black"/>
<path d="M93.2427 61.498C94.5975 61.498 95.6814 62.5819 95.6814 63.9368C95.6814 65.2917 94.5975 66.3755 93.2427 66.3755C91.8878 66.3755 90.8039 65.2917 90.8039 63.9368C90.8039 62.5819 91.8878 61.498 93.2427 61.498Z" fill="black"/>
<path d="M112.703 61.498C114.058 61.498 115.142 62.5819 115.142 63.9368C115.142 65.2917 114.058 66.3755 112.703 66.3755C111.349 66.3755 110.265 65.2917 110.265 63.9368C110.265 62.5819 111.349 61.498 112.703 61.498Z" fill="black"/>
<path d="M122.434 61.498C123.789 61.498 124.873 62.5819 124.873 63.9368C124.873 65.2917 123.789 66.3755 122.434 66.3755C121.079 66.3755 119.995 65.2917 119.995 63.9368C119.995 62.5819 121.079 61.498 122.434 61.498Z" fill="black"/>
<path d="M132.189 61.498C133.544 61.498 134.628 62.5819 134.628 63.9368C134.628 65.2917 133.544 66.3755 132.189 66.3755C130.834 66.3755 129.75 65.2917 129.75 63.9368C129.75 62.5819 130.834 61.498 132.189 61.498Z" fill="black"/>
<path d="M151.65 61.498C153.004 61.498 154.088 62.5819 154.088 63.9368C154.088 65.2917 153.004 66.3755 151.65 66.3755C150.295 66.3755 149.211 65.2917 149.211 63.9368C149.211 62.5819 150.295 61.498 151.65 61.498Z" fill="black"/>
<path d="M15.3505 66.376C16.7054 66.376 17.7893 67.4599 17.7893 68.8147C17.7893 70.1696 16.7054 71.2535 15.3505 71.2535C13.9957 71.2535 12.9118 70.1696 12.9118 68.8147C12.9118 67.4599 13.9957 66.376 15.3505 66.376Z" fill="black"/>
<path d="M20.2034 66.376C21.5583 66.376 22.6422 67.4599 22.6422 68.8147C22.6422 70.1696 21.5583 71.2535 20.2034 71.2535C18.8486 71.2535 17.7647 70.1696 17.7647 68.8147C17.7647 67.4599 18.8486 66.376 20.2034 66.376Z" fill="black"/>
<path d="M34.8113 66.376C36.1661 66.376 37.25 67.4599 37.25 68.8147C37.25 70.1696 36.1661 71.2535 34.8113 71.2535C33.4564 71.2535 32.3725 70.1696 32.3725 68.8147C32.3725 67.4599 33.4564 66.376 34.8113 66.376Z" fill="black"/>
<path d="M49.4191 66.376C50.7739 66.376 51.8578 67.4599 51.8578 68.8147C51.8578 70.1696 50.7739 71.2535 49.4191 71.2535C48.0642 71.2535 46.9803 70.1696 46.9803 68.8147C46.9803 67.4599 48.0642 66.376 49.4191 66.376Z" fill="black"/>
<path d="M59.1495 66.376C60.5044 66.376 61.5883 67.4599 61.5883 68.8147C61.5883 70.1696 60.5044 71.2535 59.1495 71.2535C57.7947 71.2535 56.7108 70.1696 56.7108 68.8147C56.7108 67.4599 57.7947 66.376 59.1495 66.376Z" fill="black"/>
<path d="M73.7573 66.376C75.1122 66.376 76.1961 67.4599 76.1961 68.8147C76.1961 70.1696 75.1122 71.2535 73.7573 71.2535C72.4025 71.2535 71.3186 70.1696 71.3186 68.8147C71.3186 67.4599 72.4025 66.376 73.7573 66.376Z" fill="black"/>
<path d="M83.4877 66.376C84.8426 66.376 85.9265 67.4599 85.9265 68.8147C85.9265 70.1696 84.8426 71.2535 83.4877 71.2535C82.1329 71.2535 81.049 70.1696 81.049 68.8147C81.049 67.4599 82.1329 66.376 83.4877 66.376Z" fill="black"/>
<path d="M98.0956 66.376C99.4504 66.376 100.534 67.4599 100.534 68.8147C100.534 70.1696 99.4504 71.2535 98.0956 71.2535C96.7407 71.2535 95.6568 70.1696 95.6568 68.8147C95.6568 67.4599 96.7407 66.376 98.0956 66.376Z" fill="black"/>
<path d="M112.703 66.376C114.058 66.376 115.142 67.4599 115.142 68.8147C115.142 70.1696 114.058 71.2535 112.703 71.2535C111.349 71.2535 110.265 70.1696 110.265 68.8147C110.265 67.4599 111.349 66.376 112.703 66.376Z" fill="black"/>
<path d="M117.581 66.376C118.936 66.376 120.02 67.4599 120.02 68.8147C120.02 70.1696 118.936 71.2535 117.581 71.2535C116.226 71.2535 115.142 70.1696 115.142 68.8147C115.142 67.4599 116.226 66.376 117.581 66.376Z" fill="black"/>
<path d="M122.434 66.376C123.789 66.376 124.873 67.4599 124.873 68.8147C124.873 70.1696 123.789 71.2535 122.434 71.2535C121.079 71.2535 119.995 70.1696 119.995 68.8147C119.995 67.4599 121.079 66.376 122.434 66.376Z" fill="black"/>
<path d="M127.311 66.376C128.666 66.376 129.75 67.4599 129.75 68.8147C129.75 70.1696 128.666 71.2535 127.311 71.2535C125.956 71.2535 124.873 70.1696 124.873 68.8147C124.873 67.4599 125.956 66.376 127.311 66.376Z" fill="black"/>
<path d="M132.189 66.376C133.544 66.376 134.628 67.4599 134.628 68.8147C134.628 70.1696 133.544 71.2535 132.189 71.2535C130.834 71.2535 129.75 70.1696 129.75 68.8147C129.75 67.4599 130.834 66.376 132.189 66.376Z" fill="black"/>
<path d="M137.042 66.376C138.397 66.376 139.48 67.4599 139.48 68.8147C139.48 70.1696 138.397 71.2535 137.042 71.2535C135.687 71.2535 134.603 70.1696 134.603 68.8147C134.603 67.4599 135.687 66.376 137.042 66.376Z" fill="black"/>
<path d="M146.772 66.376C148.127 66.376 149.211 67.4599 149.211 68.8147C149.211 70.1696 148.127 71.2535 146.772 71.2535C145.417 71.2535 144.333 70.1696 144.333 68.8147C144.333 67.4599 145.417 66.376 146.772 66.376Z" fill="black"/>
<path d="M151.65 66.376C153.004 66.376 154.088 67.4599 154.088 68.8147C154.088 70.1696 153.004 71.2535 151.65 71.2535C150.295 71.2535 149.211 70.1696 149.211 68.8147C149.211 67.4599 150.295 66.376 151.65 66.376Z" fill="black"/>
<path d="M15.3505 71.2285C16.7054 71.2285 17.7893 72.3124 17.7893 73.6673C17.7893 75.0221 16.7054 76.106 15.3505 76.106C13.9957 76.106 12.9118 75.0221 12.9118 73.6673C12.9118 72.3124 13.9957 71.2285 15.3505 71.2285Z" fill="black"/>
<path d="M20.2034 71.2285C21.5583 71.2285 22.6422 72.3124 22.6422 73.6673C22.6422 75.0221 21.5583 76.106 20.2034 76.106C18.8486 76.106 17.7647 75.0221 17.7647 73.6673C17.7647 72.3124 18.8486 71.2285 20.2034 71.2285Z" fill="black"/>
<path d="M29.9584 71.2285C31.3133 71.2285 32.3972 72.3124 32.3972 73.6673C32.3972 75.0221 31.3133 76.106 29.9584 76.106C28.6036 76.106 27.5197 75.0221 27.5197 73.6673C27.5197 72.3124 28.6036 71.2285 29.9584 71.2285Z" fill="black"/>
<path d="M44.5417 71.2285C45.8965 71.2285 46.9804 72.3124 46.9804 73.6673C46.9804 75.0221 45.8965 76.106 44.5417 76.106C43.1868 76.106 42.1029 75.0221 42.1029 73.6673C42.1029 72.3124 43.1868 71.2285 44.5417 71.2285Z" fill="black"/>
<path d="M49.4191 71.2285C50.7739 71.2285 51.8578 72.3124 51.8578 73.6673C51.8578 75.0221 50.7739 76.106 49.4191 76.106C48.0642 76.106 46.9803 75.0221 46.9803 73.6673C46.9803 72.3124 48.0642 71.2285 49.4191 71.2285Z" fill="black"/>
<path d="M54.2966 71.2285C55.6514 71.2285 56.7353 72.3124 56.7353 73.6673C56.7353 75.0221 55.6514 76.106 54.2966 76.106C52.9417 76.106 51.8578 75.0221 51.8578 73.6673C51.8578 72.3124 52.9417 71.2285 54.2966 71.2285Z" fill="black"/>
<path d="M59.1495 71.2285C60.5044 71.2285 61.5883 72.3124 61.5883 73.6673C61.5883 75.0221 60.5044 76.106 59.1495 76.106C57.7947 76.106 56.7108 75.0221 56.7108 73.6673C56.7108 72.3124 57.7947 71.2285 59.1495 71.2285Z" fill="black"/>
<path d="M68.9045 71.2285C70.2593 71.2285 71.3432 72.3124 71.3432 73.6673C71.3432 75.0221 70.2593 76.106 68.9045 76.106C67.5496 76.106 66.4657 75.0221 66.4657 73.6673C66.4657 72.3124 67.5496 71.2285 68.9045 71.2285Z" fill="black"/>
<path d="M78.6348 71.2285C79.9897 71.2285 81.0736 72.3124 81.0736 73.6673C81.0736 75.0221 79.9897 76.106 78.6348 76.106C77.28 76.106 76.1961 75.0221 76.1961 73.6673C76.1961 72.3124 77.28 71.2285 78.6348 71.2285Z" fill="black"/>
<path d="M83.4877 71.2285C84.8426 71.2285 85.9265 72.3124 85.9265 73.6673C85.9265 75.0221 84.8426 76.106 83.4877 76.106C82.1329 76.106 81.049 75.0221 81.049 73.6673C81.049 72.3124 82.1329 71.2285 83.4877 71.2285Z" fill="black"/>
<path d="M88.3652 71.2285C89.7201 71.2285 90.804 72.3124 90.804 73.6673C90.804 75.0221 89.7201 76.106 88.3652 76.106C87.0104 76.106 85.9265 75.0221 85.9265 73.6673C85.9265 72.3124 87.0104 71.2285 88.3652 71.2285Z" fill="black"/>
<path d="M93.2427 71.2285C94.5975 71.2285 95.6814 72.3124 95.6814 73.6673C95.6814 75.0221 94.5975 76.106 93.2427 76.106C91.8878 76.106 90.8039 75.0221 90.8039 73.6673C90.8039 72.3124 91.8878 71.2285 93.2427 71.2285Z" fill="black"/>
<path d="M98.0956 71.2285C99.4504 71.2285 100.534 72.3124 100.534 73.6673C100.534 75.0221 99.4504 76.106 98.0956 76.106C96.7407 76.106 95.6568 75.0221 95.6568 73.6673C95.6568 72.3124 96.7407 71.2285 98.0956 71.2285Z" fill="black"/>
<path d="M107.826 71.2285C109.181 71.2285 110.265 72.3124 110.265 73.6673C110.265 75.0221 109.181 76.106 107.826 76.106C106.471 76.106 105.387 75.0221 105.387 73.6673C105.387 72.3124 106.471 71.2285 107.826 71.2285Z" fill="black"/>
<path d="M112.703 71.2285C114.058 71.2285 115.142 72.3124 115.142 73.6673C115.142 75.0221 114.058 76.106 112.703 76.106C111.349 76.106 110.265 75.0221 110.265 73.6673C110.265 72.3124 111.349 71.2285 112.703 71.2285Z" fill="black"/>
<path d="M117.581 71.2285C118.936 71.2285 120.02 72.3124 120.02 73.6673C120.02 75.0221 118.936 76.106 117.581 76.106C116.226 76.106 115.142 75.0221 115.142 73.6673C115.142 72.3124 116.226 71.2285 117.581 71.2285Z" fill="black"/>
<path d="M146.772 71.2285C148.127 71.2285 149.211 72.3124 149.211 73.6673C149.211 75.0221 148.127 76.106 146.772 76.106C145.417 76.106 144.333 75.0221 144.333 73.6673C144.333 72.3124 145.417 71.2285 146.772 71.2285Z" fill="black"/>
<path d="M15.3505 76.1074C16.7054 76.1074 17.7893 77.1913 17.7893 78.5462C17.7893 79.901 16.7054 80.9849 15.3505 80.9849C13.9957 80.9849 12.9118 79.901 12.9118 78.5462C12.9118 77.1913 13.9957 76.1074 15.3505 76.1074Z" fill="black"/>
<path d="M39.6888 76.1074C41.0436 76.1074 42.1275 77.1913 42.1275 78.5462C42.1275 79.901 41.0436 80.9849 39.6888 80.9849C38.3339 80.9849 37.25 79.901 37.25 78.5462C37.25 77.1913 38.3339 76.1074 39.6888 76.1074Z" fill="black"/>
<path d="M64.027 76.1074C65.3819 76.1074 66.4658 77.1913 66.4658 78.5462C66.4658 79.901 65.3819 80.9849 64.027 80.9849C62.6722 80.9849 61.5883 79.901 61.5883 78.5462C61.5883 77.1913 62.6722 76.1074 64.027 76.1074Z" fill="black"/>
<path d="M117.581 76.1074C118.936 76.1074 120.02 77.1913 120.02 78.5462C120.02 79.901 118.936 80.9849 117.581 80.9849C116.226 80.9849 115.142 79.901 115.142 78.5462C115.142 77.1913 116.226 76.1074 117.581 76.1074Z" fill="black"/>
<path d="M122.434 76.1074C123.789 76.1074 124.873 77.1913 124.873 78.5462C124.873 79.901 123.789 80.9849 122.434 80.9849C121.079 80.9849 119.995 79.901 119.995 78.5462C119.995 77.1913 121.079 76.1074 122.434 76.1074Z" fill="black"/>
<path d="M127.311 76.1074C128.666 76.1074 129.75 77.1913 129.75 78.5462C129.75 79.901 128.666 80.9849 127.311 80.9849C125.956 80.9849 124.873 79.901 124.873 78.5462C124.873 77.1913 125.956 76.1074 127.311 76.1074Z" fill="black"/>
<path d="M132.189 76.1074C133.544 76.1074 134.628 77.1913 134.628 78.5462C134.628 79.901 133.544 80.9849 132.189 80.9849C130.834 80.9849 129.75 79.901 129.75 78.5462C129.75 77.1913 130.834 76.1074 132.189 76.1074Z" fill="black"/>
<path d="M137.042 76.1074C138.397 76.1074 139.48 77.1913 139.48 78.5462C139.48 79.901 138.397 80.9849 137.042 80.9849C135.687 80.9849 134.603 79.901 134.603 78.5462C134.603 77.1913 135.687 76.1074 137.042 76.1074Z" fill="black"/>
<path d="M141.919 76.1074C143.274 76.1074 144.358 77.1913 144.358 78.5462C144.358 79.901 143.274 80.9849 141.919 80.9849C140.564 80.9849 139.48 79.901 139.48 78.5462C139.48 77.1913 140.564 76.1074 141.919 76.1074Z" fill="black"/>
<path d="M146.772 76.1074C148.127 76.1074 149.211 77.1913 149.211 78.5462C149.211 79.901 148.127 80.9849 146.772 80.9849C145.417 80.9849 144.333 79.901 144.333 78.5462C144.333 77.1913 145.417 76.1074 146.772 76.1074Z" fill="black"/>
<path d="M151.65 76.1074C153.004 76.1074 154.088 77.1913 154.088 78.5462C154.088 79.901 153.004 80.9849 151.65 80.9849C150.295 80.9849 149.211 79.901 149.211 78.5462C149.211 77.1913 150.295 76.1074 151.65 76.1074Z" fill="black"/>
<path d="M15.3505 80.9834C16.7054 80.9834 17.7893 82.0673 17.7893 83.4221C17.7893 84.777 16.7054 85.8609 15.3505 85.8609C13.9957 85.8609 12.9118 84.777 12.9118 83.4221C12.9118 82.0673 13.9957 80.9834 15.3505 80.9834Z" fill="black"/>
<path d="M25.0809 80.9834C26.4358 80.9834 27.5197 82.0673 27.5197 83.4221C27.5197 84.777 26.4358 85.8609 25.0809 85.8609C23.7261 85.8609 22.6422 84.777 22.6422 83.4221C22.6422 82.0673 23.7261 80.9834 25.0809 80.9834Z" fill="black"/>
<path d="M29.9584 80.9834C31.3133 80.9834 32.3972 82.0673 32.3972 83.4221C32.3972 84.777 31.3133 85.8609 29.9584 85.8609C28.6035 85.8609 27.5197 84.777 27.5197 83.4221C27.5197 82.0673 28.6035 80.9834 29.9584 80.9834Z" fill="black"/>
<path d="M44.5416 80.9834C45.8965 80.9834 46.9804 82.0673 46.9804 83.4221C46.9804 84.777 45.8965 85.8609 44.5416 85.8609C43.1868 85.8609 42.1029 84.777 42.1029 83.4221C42.1029 82.0673 43.1868 80.9834 44.5416 80.9834Z" fill="black"/>
<path d="M49.4191 80.9834C50.7739 80.9834 51.8578 82.0673 51.8578 83.4221C51.8578 84.777 50.7739 85.8609 49.4191 85.8609C48.0642 85.8609 46.9803 84.777 46.9803 83.4221C46.9803 82.0673 48.0642 80.9834 49.4191 80.9834Z" fill="black"/>
<path d="M59.1495 80.9834C60.5044 80.9834 61.5883 82.0673 61.5883 83.4221C61.5883 84.777 60.5044 85.8609 59.1495 85.8609C57.7947 85.8609 56.7108 84.777 56.7108 83.4221C56.7108 82.0673 57.7947 80.9834 59.1495 80.9834Z" fill="black"/>
<path d="M64.027 80.9834C65.3819 80.9834 66.4658 82.0673 66.4658 83.4221C66.4658 84.777 65.3819 85.8609 64.027 85.8609C62.6722 85.8609 61.5883 84.777 61.5883 83.4221C61.5883 82.0673 62.6722 80.9834 64.027 80.9834Z" fill="black"/>
<path d="M68.9044 80.9834C70.2593 80.9834 71.3432 82.0673 71.3432 83.4221C71.3432 84.777 70.2593 85.8609 68.9044 85.8609C67.5496 85.8609 66.4657 84.777 66.4657 83.4221C66.4657 82.0673 67.5496 80.9834 68.9044 80.9834Z" fill="black"/>
<path d="M73.7573 80.9834C75.1122 80.9834 76.1961 82.0673 76.1961 83.4221C76.1961 84.777 75.1122 85.8609 73.7573 85.8609C72.4025 85.8609 71.3186 84.777 71.3186 83.4221C71.3186 82.0673 72.4025 80.9834 73.7573 80.9834Z" fill="black"/>
<path d="M78.6348 80.9834C79.9897 80.9834 81.0736 82.0673 81.0736 83.4221C81.0736 84.777 79.9897 85.8609 78.6348 85.8609C77.2799 85.8609 76.1961 84.777 76.1961 83.4221C76.1961 82.0673 77.2799 80.9834 78.6348 80.9834Z" fill="black"/>
<path d="M83.4878 80.9834C84.8426 80.9834 85.9265 82.0673 85.9265 83.4221C85.9265 84.777 84.8426 85.8609 83.4878 85.8609C82.1329 85.8609 81.049 84.777 81.049 83.4221C81.049 82.0673 82.1329 80.9834 83.4878 80.9834Z" fill="black"/>
<path d="M88.3652 80.9834C89.7201 80.9834 90.804 82.0673 90.804 83.4221C90.804 84.777 89.7201 85.8609 88.3652 85.8609C87.0104 85.8609 85.9265 84.777 85.9265 83.4221C85.9265 82.0673 87.0104 80.9834 88.3652 80.9834Z" fill="black"/>
<path d="M98.0956 80.9834C99.4504 80.9834 100.534 82.0673 100.534 83.4221C100.534 84.777 99.4504 85.8609 98.0956 85.8609C96.7407 85.8609 95.6568 84.777 95.6568 83.4221C95.6568 82.0673 96.7407 80.9834 98.0956 80.9834Z" fill="black"/>
<path d="M102.973 80.9834C104.328 80.9834 105.412 82.0673 105.412 83.4221C105.412 84.777 104.328 85.8609 102.973 85.8609C101.618 85.8609 100.534 84.777 100.534 83.4221C100.534 82.0673 101.618 80.9834 102.973 80.9834Z" fill="black"/>
<path d="M117.581 80.9834C118.936 80.9834 120.02 82.0673 120.02 83.4221C120.02 84.777 118.936 85.8609 117.581 85.8609C116.226 85.8609 115.142 84.777 115.142 83.4221C115.142 82.0673 116.226 80.9834 117.581 80.9834Z" fill="black"/>
<path d="M122.434 80.9834C123.789 80.9834 124.873 82.0673 124.873 83.4221C124.873 84.777 123.789 85.8609 122.434 85.8609C121.079 85.8609 119.995 84.777 119.995 83.4221C119.995 82.0673 121.079 80.9834 122.434 80.9834Z" fill="black"/>
<path d="M127.311 80.9834C128.666 80.9834 129.75 82.0673 129.75 83.4221C129.75 84.777 128.666 85.8609 127.311 85.8609C125.956 85.8609 124.873 84.777 124.873 83.4221C124.873 82.0673 125.956 80.9834 127.311 80.9834Z" fill="black"/>
<path d="M132.189 80.9834C133.544 80.9834 134.628 82.0673 134.628 83.4221C134.628 84.777 133.544 85.8609 132.189 85.8609C130.834 85.8609 129.75 84.777 129.75 83.4221C129.75 82.0673 130.834 80.9834 132.189 80.9834Z" fill="black"/>
<path d="M137.042 80.9834C138.397 80.9834 139.48 82.0673 139.48 83.4221C139.48 84.777 138.397 85.8609 137.042 85.8609C135.687 85.8609 134.603 84.777 134.603 83.4221C134.603 82.0673 135.687 80.9834 137.042 80.9834Z" fill="black"/>
<path d="M141.919 80.9834C143.274 80.9834 144.358 82.0673 144.358 83.4221C144.358 84.777 143.274 85.8609 141.919 85.8609C140.564 85.8609 139.48 84.777 139.48 83.4221C139.48 82.0673 140.564 80.9834 141.919 80.9834Z" fill="black"/>
<path d="M151.65 80.9834C153.004 80.9834 154.088 82.0673 154.088 83.4221C154.088 84.777 153.004 85.8609 151.65 85.8609C150.295 85.8609 149.211 84.777 149.211 83.4221C149.211 82.0673 150.295 80.9834 151.65 80.9834Z" fill="black"/>
<path d="M15.3505 85.8359C16.7054 85.8359 17.7893 86.9198 17.7893 88.2747C17.7893 89.6295 16.7054 90.7134 15.3505 90.7134C13.9957 90.7134 12.9118 89.6295 12.9118 88.2747C12.9118 86.9198 13.9957 85.8359 15.3505 85.8359Z" fill="black"/>
<path d="M34.8112 85.8359C36.1661 85.8359 37.25 86.9198 37.25 88.2747C37.25 89.6295 36.1661 90.7134 34.8112 90.7134C33.4563 90.7134 32.3725 89.6295 32.3725 88.2747C32.3725 86.9198 33.4563 85.8359 34.8112 85.8359Z" fill="black"/>
<path d="M49.4191 85.8359C50.7739 85.8359 51.8578 86.9198 51.8578 88.2747C51.8578 89.6295 50.7739 90.7134 49.4191 90.7134C48.0642 90.7134 46.9803 89.6295 46.9803 88.2747C46.9803 86.9198 48.0642 85.8359 49.4191 85.8359Z" fill="black"/>
<path d="M59.1495 85.8359C60.5043 85.8359 61.5882 86.9198 61.5882 88.2747C61.5882 89.6295 60.5043 90.7134 59.1495 90.7134C57.7946 90.7134 56.7107 89.6295 56.7107 88.2747C56.7107 86.9198 57.7946 85.8359 59.1495 85.8359Z" fill="black"/>
<path d="M64.027 85.8359C65.3819 85.8359 66.4658 86.9198 66.4658 88.2747C66.4658 89.6295 65.3819 90.7134 64.027 90.7134C62.6722 90.7134 61.5883 89.6295 61.5883 88.2747C61.5883 86.9198 62.6722 85.8359 64.027 85.8359Z" fill="black"/>
<path d="M73.7573 85.8359C75.1122 85.8359 76.1961 86.9198 76.1961 88.2747C76.1961 89.6295 75.1122 90.7134 73.7573 90.7134C72.4025 90.7134 71.3186 89.6295 71.3186 88.2747C71.3186 86.9198 72.4025 85.8359 73.7573 85.8359Z" fill="black"/>
<path d="M78.6348 85.8359C79.9897 85.8359 81.0736 86.9198 81.0736 88.2747C81.0736 89.6295 79.9897 90.7134 78.6348 90.7134C77.28 90.7134 76.1961 89.6295 76.1961 88.2747C76.1961 86.9198 77.28 85.8359 78.6348 85.8359Z" fill="black"/>
<path d="M88.3652 85.8359C89.7201 85.8359 90.804 86.9198 90.804 88.2747C90.804 89.6295 89.7201 90.7134 88.3652 90.7134C87.0104 90.7134 85.9265 89.6295 85.9265 88.2747C85.9265 86.9198 87.0104 85.8359 88.3652 85.8359Z" fill="black"/>
<path d="M93.2427 85.8359C94.5975 85.8359 95.6814 86.9198 95.6814 88.2747C95.6814 89.6295 94.5975 90.7134 93.2427 90.7134C91.8878 90.7134 90.8039 89.6295 90.8039 88.2747C90.8039 86.9198 91.8878 85.8359 93.2427 85.8359Z" fill="black"/>
<path d="M98.0956 85.8359C99.4504 85.8359 100.534 86.9198 100.534 88.2747C100.534 89.6295 99.4504 90.7134 98.0956 90.7134C96.7407 90.7134 95.6568 89.6295 95.6568 88.2747C95.6568 86.9198 96.7407 85.8359 98.0956 85.8359Z" fill="black"/>
<path d="M112.703 85.8359C114.058 85.8359 115.142 86.9198 115.142 88.2747C115.142 89.6295 114.058 90.7134 112.703 90.7134C111.349 90.7134 110.265 89.6295 110.265 88.2747C110.265 86.9198 111.349 85.8359 112.703 85.8359Z" fill="black"/>
<path d="M117.581 85.8359C118.936 85.8359 120.02 86.9198 120.02 88.2747C120.02 89.6295 118.936 90.7134 117.581 90.7134C116.226 90.7134 115.142 89.6295 115.142 88.2747C115.142 86.9198 116.226 85.8359 117.581 85.8359Z" fill="black"/>
<path d="M132.189 85.8359C133.544 85.8359 134.628 86.9198 134.628 88.2747C134.628 89.6295 133.544 90.7134 132.189 90.7134C130.834 90.7134 129.75 89.6295 129.75 88.2747C129.75 86.9198 130.834 85.8359 132.189 85.8359Z" fill="black"/>
<path d="M146.772 85.8359C148.127 85.8359 149.211 86.9198 149.211 88.2747C149.211 89.6295 148.127 90.7134 146.772 90.7134C145.417 90.7134 144.333 89.6295 144.333 88.2747C144.333 86.9198 145.417 85.8359 146.772 85.8359Z" fill="black"/>
<path d="M151.65 85.8359C153.004 85.8359 154.088 86.9198 154.088 88.2747C154.088 89.6295 153.004 90.7134 151.65 90.7134C150.295 90.7134 149.211 89.6295 149.211 88.2747C149.211 86.9198 150.295 85.8359 151.65 85.8359Z" fill="black"/>
<path d="M15.3505 90.7148C16.7054 90.7148 17.7893 91.7987 17.7893 93.1536C17.7893 94.5085 16.7054 95.5923 15.3505 95.5923C13.9957 95.5923 12.9118 94.5085 12.9118 93.1536C12.9118 91.7987 13.9957 90.7148 15.3505 90.7148Z" fill="black"/>
<path d="M20.2034 90.7148C21.5583 90.7148 22.6422 91.7987 22.6422 93.1536C22.6422 94.5085 21.5583 95.5923 20.2034 95.5923C18.8486 95.5923 17.7647 94.5085 17.7647 93.1536C17.7647 91.7987 18.8486 90.7148 20.2034 90.7148Z" fill="black"/>
<path d="M25.0809 90.7148C26.4358 90.7148 27.5197 91.7987 27.5197 93.1536C27.5197 94.5085 26.4358 95.5923 25.0809 95.5923C23.7261 95.5923 22.6422 94.5085 22.6422 93.1536C22.6422 91.7987 23.7261 90.7148 25.0809 90.7148Z" fill="black"/>
<path d="M29.9583 90.7148C31.3132 90.7148 32.3971 91.7987 32.3971 93.1536C32.3971 94.5085 31.3132 95.5923 29.9583 95.5923C28.6035 95.5923 27.5196 94.5085 27.5196 93.1536C27.5196 91.7987 28.6035 90.7148 29.9583 90.7148Z" fill="black"/>
<path d="M34.8112 90.7148C36.1661 90.7148 37.25 91.7987 37.25 93.1536C37.25 94.5085 36.1661 95.5923 34.8112 95.5923C33.4563 95.5923 32.3725 94.5085 32.3725 93.1536C32.3725 91.7987 33.4563 90.7148 34.8112 90.7148Z" fill="black"/>
<path d="M39.6888 90.7148C41.0436 90.7148 42.1275 91.7987 42.1275 93.1536C42.1275 94.5085 41.0436 95.5923 39.6888 95.5923C38.3339 95.5923 37.25 94.5085 37.25 93.1536C37.25 91.7987 38.3339 90.7148 39.6888 90.7148Z" fill="black"/>
<path d="M44.5416 90.7148C45.8965 90.7148 46.9804 91.7987 46.9804 93.1536C46.9804 94.5085 45.8965 95.5923 44.5416 95.5923C43.1868 95.5923 42.1029 94.5085 42.1029 93.1536C42.1029 91.7987 43.1868 90.7148 44.5416 90.7148Z" fill="black"/>
<path d="M49.4191 90.7148C50.7739 90.7148 51.8578 91.7987 51.8578 93.1536C51.8578 94.5085 50.7739 95.5923 49.4191 95.5923C48.0642 95.5923 46.9803 94.5085 46.9803 93.1536C46.9803 91.7987 48.0642 90.7148 49.4191 90.7148Z" fill="black"/>
<path d="M54.2966 90.7148C55.6514 90.7148 56.7353 91.7987 56.7353 93.1536C56.7353 94.5085 55.6514 95.5923 54.2966 95.5923C52.9417 95.5923 51.8578 94.5085 51.8578 93.1536C51.8578 91.7987 52.9417 90.7148 54.2966 90.7148Z" fill="black"/>
<path d="M59.1494 90.7148C60.5043 90.7148 61.5882 91.7987 61.5882 93.1536C61.5882 94.5085 60.5043 95.5923 59.1494 95.5923C57.7946 95.5923 56.7107 94.5085 56.7107 93.1536C56.7107 91.7987 57.7946 90.7148 59.1494 90.7148Z" fill="black"/>
<path d="M64.027 90.7148C65.3819 90.7148 66.4658 91.7987 66.4658 93.1536C66.4658 94.5085 65.3819 95.5923 64.027 95.5923C62.6722 95.5923 61.5883 94.5085 61.5883 93.1536C61.5883 91.7987 62.6722 90.7148 64.027 90.7148Z" fill="black"/>
<path d="M78.6348 90.7148C79.9897 90.7148 81.0736 91.7987 81.0736 93.1536C81.0736 94.5085 79.9897 95.5923 78.6348 95.5923C77.2799 95.5923 76.1961 94.5085 76.1961 93.1536C76.1961 91.7987 77.2799 90.7148 78.6348 90.7148Z" fill="black"/>
<path d="M98.0956 90.7148C99.4504 90.7148 100.534 91.7987 100.534 93.1536C100.534 94.5085 99.4504 95.5923 98.0956 95.5923C96.7407 95.5923 95.6568 94.5085 95.6568 93.1536C95.6568 91.7987 96.7407 90.7148 98.0956 90.7148Z" fill="black"/>
<path d="M107.826 90.7148C109.181 90.7148 110.265 91.7987 110.265 93.1536C110.265 94.5085 109.181 95.5923 107.826 95.5923C106.471 95.5923 105.387 94.5085 105.387 93.1536C105.387 91.7987 106.471 90.7148 107.826 90.7148Z" fill="black"/>
<path d="M146.772 90.7148C148.127 90.7148 149.211 91.7987 149.211 93.1536C149.211 94.5085 148.127 95.5923 146.772 95.5923C145.417 95.5923 144.333 94.5085 144.333 93.1536C144.333 91.7987 145.417 90.7148 146.772 90.7148Z" fill="black"/>
<path d="M15.3505 95.5664C16.7054 95.5664 17.7893 96.6503 17.7893 98.0052C17.7893 99.36 16.7054 100.444 15.3505 100.444C13.9957 100.444 12.9118 99.36 12.9118 98.0052C12.9118 96.6503 13.9957 95.5664 15.3505 95.5664Z" fill="black"/>
<path d="M25.0809 95.5664C26.4358 95.5664 27.5197 96.6503 27.5197 98.0052C27.5197 99.36 26.4358 100.444 25.0809 100.444C23.7261 100.444 22.6422 99.36 22.6422 98.0052C22.6422 96.6503 23.7261 95.5664 25.0809 95.5664Z" fill="black"/>
<path d="M29.9584 95.5664C31.3133 95.5664 32.3972 96.6503 32.3972 98.0052C32.3972 99.36 31.3133 100.444 29.9584 100.444C28.6035 100.444 27.5197 99.36 27.5197 98.0052C27.5197 96.6503 28.6035 95.5664 29.9584 95.5664Z" fill="black"/>
<path d="M34.8113 95.5664C36.1661 95.5664 37.25 96.6503 37.25 98.0052C37.25 99.36 36.1661 100.444 34.8113 100.444C33.4564 100.444 32.3725 99.36 32.3725 98.0052C32.3725 96.6503 33.4564 95.5664 34.8113 95.5664Z" fill="black"/>
<path d="M49.4191 95.5664C50.7739 95.5664 51.8578 96.6503 51.8578 98.0052C51.8578 99.36 50.7739 100.444 49.4191 100.444C48.0642 100.444 46.9803 99.36 46.9803 98.0052C46.9803 96.6503 48.0642 95.5664 49.4191 95.5664Z" fill="black"/>
<path d="M64.027 95.5664C65.3819 95.5664 66.4658 96.6503 66.4658 98.0052C66.4658 99.36 65.3819 100.444 64.027 100.444C62.6722 100.444 61.5883 99.36 61.5883 98.0052C61.5883 96.6503 62.6722 95.5664 64.027 95.5664Z" fill="black"/>
<path d="M78.6348 95.5664C79.9897 95.5664 81.0736 96.6503 81.0736 98.0052C81.0736 99.36 79.9897 100.444 78.6348 100.444C77.2799 100.444 76.1961 99.36 76.1961 98.0052C76.1961 96.6503 77.2799 95.5664 78.6348 95.5664Z" fill="black"/>
<path d="M83.4878 95.5664C84.8426 95.5664 85.9265 96.6503 85.9265 98.0052C85.9265 99.36 84.8426 100.444 83.4878 100.444C82.1329 100.444 81.049 99.36 81.049 98.0052C81.049 96.6503 82.1329 95.5664 83.4878 95.5664Z" fill="black"/>
<path d="M93.2427 95.5664C94.5975 95.5664 95.6814 96.6503 95.6814 98.0052C95.6814 99.36 94.5975 100.444 93.2427 100.444C91.8878 100.444 90.8039 99.36 90.8039 98.0052C90.8039 96.6503 91.8878 95.5664 93.2427 95.5664Z" fill="black"/>
<path d="M98.0956 95.5664C99.4504 95.5664 100.534 96.6503 100.534 98.0052C100.534 99.36 99.4504 100.444 98.0956 100.444C96.7407 100.444 95.6568 99.36 95.6568 98.0052C95.6568 96.6503 96.7407 95.5664 98.0956 95.5664Z" fill="black"/>
<path d="M102.973 95.5664C104.328 95.5664 105.412 96.6503 105.412 98.0052C105.412 99.36 104.328 100.444 102.973 100.444C101.618 100.444 100.534 99.36 100.534 98.0052C100.534 96.6503 101.618 95.5664 102.973 95.5664Z" fill="black"/>
<path d="M122.434 95.5664C123.789 95.5664 124.873 96.6503 124.873 98.0052C124.873 99.36 123.789 100.444 122.434 100.444C121.079 100.444 119.995 99.36 119.995 98.0052C119.995 96.6503 121.079 95.5664 122.434 95.5664Z" fill="black"/>
<path d="M127.311 95.5664C128.666 95.5664 129.75 96.6503 129.75 98.0052C129.75 99.36 128.666 100.444 127.311 100.444C125.956 100.444 124.873 99.36 124.873 98.0052C124.873 96.6503 125.956 95.5664 127.311 95.5664Z" fill="black"/>
<path d="M132.189 95.5664C133.544 95.5664 134.628 96.6503 134.628 98.0052C134.628 99.36 133.544 100.444 132.189 100.444C130.834 100.444 129.75 99.36 129.75 98.0052C129.75 96.6503 130.834 95.5664 132.189 95.5664Z" fill="black"/>
<path d="M137.042 95.5664C138.397 95.5664 139.48 96.6503 139.48 98.0052C139.48 99.36 138.397 100.444 137.042 100.444C135.687 100.444 134.603 99.36 134.603 98.0052C134.603 96.6503 135.687 95.5664 137.042 95.5664Z" fill="black"/>
<path d="M146.772 95.5664C148.127 95.5664 149.211 96.6503 149.211 98.0052C149.211 99.36 148.127 100.444 146.772 100.444C145.417 100.444 144.333 99.36 144.333 98.0052C144.333 96.6503 145.417 95.5664 146.772 95.5664Z" fill="black"/>
<path d="M151.65 95.5664C153.004 95.5664 154.088 96.6503 154.088 98.0052C154.088 99.36 153.004 100.444 151.65 100.444C150.295 100.444 149.211 99.36 149.211 98.0052C149.211 96.6503 150.295 95.5664 151.65 95.5664Z" fill="black"/>
<path d="M34.8112 100.445C36.1661 100.445 37.25 101.529 37.25 102.884C37.25 104.239 36.1661 105.323 34.8112 105.323C33.4563 105.323 32.3725 104.239 32.3725 102.884C32.3725 101.529 33.4563 100.445 34.8112 100.445Z" fill="black"/>
<path d="M39.6888 100.445C41.0436 100.445 42.1275 101.529 42.1275 102.884C42.1275 104.239 41.0436 105.323 39.6888 105.323C38.3339 105.323 37.25 104.239 37.25 102.884C37.25 101.529 38.3339 100.445 39.6888 100.445Z" fill="black"/>
<path d="M44.5417 100.445C45.8965 100.445 46.9804 101.529 46.9804 102.884C46.9804 104.239 45.8965 105.323 44.5417 105.323C43.1868 105.323 42.1029 104.239 42.1029 102.884C42.1029 101.529 43.1868 100.445 44.5417 100.445Z" fill="black"/>
<path d="M49.4191 100.445C50.7739 100.445 51.8578 101.529 51.8578 102.884C51.8578 104.239 50.7739 105.323 49.4191 105.323C48.0642 105.323 46.9803 104.239 46.9803 102.884C46.9803 101.529 48.0642 100.445 49.4191 100.445Z" fill="black"/>
<path d="M54.2966 100.445C55.6514 100.445 56.7353 101.529 56.7353 102.884C56.7353 104.239 55.6514 105.323 54.2966 105.323C52.9417 105.323 51.8578 104.239 51.8578 102.884C51.8578 101.529 52.9417 100.445 54.2966 100.445Z" fill="black"/>
<path d="M59.1495 100.445C60.5043 100.445 61.5882 101.529 61.5882 102.884C61.5882 104.239 60.5043 105.323 59.1495 105.323C57.7946 105.323 56.7107 104.239 56.7107 102.884C56.7107 101.529 57.7946 100.445 59.1495 100.445Z" fill="black"/>
<path d="M64.027 100.445C65.3819 100.445 66.4658 101.529 66.4658 102.884C66.4658 104.239 65.3819 105.323 64.027 105.323C62.6722 105.323 61.5883 104.239 61.5883 102.884C61.5883 101.529 62.6722 100.445 64.027 100.445Z" fill="black"/>
<path d="M93.2427 100.445C94.5975 100.445 95.6814 101.529 95.6814 102.884C95.6814 104.239 94.5975 105.323 93.2427 105.323C91.8878 105.323 90.8039 104.239 90.8039 102.884C90.8039 101.529 91.8878 100.445 93.2427 100.445Z" fill="black"/>
<path d="M98.0956 100.445C99.4504 100.445 100.534 101.529 100.534 102.884C100.534 104.239 99.4504 105.323 98.0956 105.323C96.7407 105.323 95.6568 104.239 95.6568 102.884C95.6568 101.529 96.7407 100.445 98.0956 100.445Z" fill="black"/>
<path d="M112.703 100.445C114.058 100.445 115.142 101.529 115.142 102.884C115.142 104.239 114.058 105.323 112.703 105.323C111.349 105.323 110.265 104.239 110.265 102.884C110.265 101.529 111.349 100.445 112.703 100.445Z" fill="black"/>
<path d="M141.919 100.445C143.274 100.445 144.358 101.529 144.358 102.884C144.358 104.239 143.274 105.323 141.919 105.323C140.564 105.323 139.48 104.239 139.48 102.884C139.48 101.529 140.564 100.445 141.919 100.445Z" fill="black"/>
<path d="M151.65 100.445C153.004 100.445 154.088 101.529 154.088 102.884C154.088 104.239 153.004 105.323 151.65 105.323C150.295 105.323 149.211 104.239 149.211 102.884C149.211 101.529 150.295 100.445 151.65 100.445Z" fill="black"/>
<path d="M25.0809 105.321C26.4358 105.321 27.5197 106.405 27.5197 107.76C27.5197 109.115 26.4358 110.199 25.0809 110.199C23.7261 110.199 22.6422 109.115 22.6422 107.76C22.6422 106.405 23.7261 105.321 25.0809 105.321Z" fill="black"/>
<path d="M39.6888 105.321C41.0436 105.321 42.1275 106.405 42.1275 107.76C42.1275 109.115 41.0436 110.199 39.6888 110.199C38.3339 110.199 37.25 109.115 37.25 107.76C37.25 106.405 38.3339 105.321 39.6888 105.321Z" fill="black"/>
<path d="M54.2966 105.321C55.6514 105.321 56.7353 106.405 56.7353 107.76C56.7353 109.115 55.6514 110.199 54.2966 110.199C52.9417 110.199 51.8578 109.115 51.8578 107.76C51.8578 106.405 52.9417 105.321 54.2966 105.321Z" fill="black"/>
<path d="M64.027 105.321C65.3819 105.321 66.4658 106.405 66.4658 107.76C66.4658 109.115 65.3819 110.199 64.027 110.199C62.6722 110.199 61.5883 109.115 61.5883 107.76C61.5883 106.405 62.6722 105.321 64.027 105.321Z" fill="black"/>
<path d="M68.9045 105.321C70.2593 105.321 71.3432 106.405 71.3432 107.76C71.3432 109.115 70.2593 110.199 68.9045 110.199C67.5496 110.199 66.4657 109.115 66.4657 107.76C66.4657 106.405 67.5496 105.321 68.9045 105.321Z" fill="black"/>
<path d="M73.7573 105.321C75.1122 105.321 76.1961 106.405 76.1961 107.76C76.1961 109.115 75.1122 110.199 73.7573 110.199C72.4025 110.199 71.3186 109.115 71.3186 107.76C71.3186 106.405 72.4025 105.321 73.7573 105.321Z" fill="black"/>
<path d="M83.4877 105.321C84.8425 105.321 85.9264 106.405 85.9264 107.76C85.9264 109.115 84.8425 110.199 83.4877 110.199C82.1328 110.199 81.0489 109.115 81.0489 107.76C81.0489 106.405 82.1328 105.321 83.4877 105.321Z" fill="black"/>
<path d="M98.0956 105.321C99.4504 105.321 100.534 106.405 100.534 107.76C100.534 109.115 99.4504 110.199 98.0956 110.199C96.7407 110.199 95.6568 109.115 95.6568 107.76C95.6568 106.405 96.7407 105.321 98.0956 105.321Z" fill="black"/>
<path d="M107.826 105.321C109.181 105.321 110.265 106.405 110.265 107.76C110.265 109.115 109.181 110.199 107.826 110.199C106.471 110.199 105.387 109.115 105.387 107.76C105.387 106.405 106.471 105.321 107.826 105.321Z" fill="black"/>
<path d="M112.703 105.321C114.058 105.321 115.142 106.405 115.142 107.76C115.142 109.115 114.058 110.199 112.703 110.199C111.349 110.199 110.265 109.115 110.265 107.76C110.265 106.405 111.349 105.321 112.703 105.321Z" fill="black"/>
<path d="M117.581 105.321C118.936 105.321 120.02 106.405 120.02 107.76C120.02 109.115 118.936 110.199 117.581 110.199C116.226 110.199 115.142 109.115 115.142 107.76C115.142 106.405 116.226 105.321 117.581 105.321Z" fill="black"/>
<path d="M127.311 105.321C128.666 105.321 129.75 106.405 129.75 107.76C129.75 109.115 128.666 110.199 127.311 110.199C125.956 110.199 124.873 109.115 124.873 107.76C124.873 106.405 125.956 105.321 127.311 105.321Z" fill="black"/>
<path d="M132.189 105.321C133.544 105.321 134.628 106.405 134.628 107.76C134.628 109.115 133.544 110.199 132.189 110.199C130.834 110.199 129.75 109.115 129.75 107.76C129.75 106.405 130.834 105.321 132.189 105.321Z" fill="black"/>
<path d="M146.772 105.321C148.127 105.321 149.211 106.405 149.211 107.76C149.211 109.115 148.127 110.199 146.772 110.199C145.417 110.199 144.333 109.115 144.333 107.76C144.333 106.405 145.417 105.321 146.772 105.321Z" fill="black"/>
<path d="M151.65 105.321C153.004 105.321 154.088 106.405 154.088 107.76C154.088 109.115 153.004 110.199 151.65 110.199C150.295 110.199 149.211 109.115 149.211 107.76C149.211 106.405 150.295 105.321 151.65 105.321Z" fill="black"/>
<path d="M15.3505 110.174C16.7054 110.174 17.7893 111.258 17.7893 112.613C17.7893 113.967 16.7054 115.051 15.3505 115.051C13.9957 115.051 12.9118 113.967 12.9118 112.613C12.9118 111.258 13.9957 110.174 15.3505 110.174Z" fill="black"/>
<path d="M20.2034 110.174C21.5583 110.174 22.6422 111.258 22.6422 112.613C22.6422 113.967 21.5583 115.051 20.2034 115.051C18.8486 115.051 17.7647 113.967 17.7647 112.613C17.7647 111.258 18.8486 110.174 20.2034 110.174Z" fill="black"/>
<path d="M44.5417 110.174C45.8965 110.174 46.9804 111.258 46.9804 112.613C46.9804 113.967 45.8965 115.051 44.5417 115.051C43.1868 115.051 42.1029 113.967 42.1029 112.613C42.1029 111.258 43.1868 110.174 44.5417 110.174Z" fill="black"/>
<path d="M54.2966 110.174C55.6514 110.174 56.7353 111.258 56.7353 112.613C56.7353 113.967 55.6514 115.051 54.2966 115.051C52.9417 115.051 51.8578 113.967 51.8578 112.613C51.8578 111.258 52.9417 110.174 54.2966 110.174Z" fill="black"/>
<path d="M59.1495 110.174C60.5044 110.174 61.5883 111.258 61.5883 112.613C61.5883 113.967 60.5044 115.051 59.1495 115.051C57.7947 115.051 56.7108 113.967 56.7108 112.613C56.7108 111.258 57.7947 110.174 59.1495 110.174Z" fill="black"/>
<path d="M64.027 110.174C65.3819 110.174 66.4658 111.258 66.4658 112.613C66.4658 113.967 65.3819 115.051 64.027 115.051C62.6722 115.051 61.5883 113.967 61.5883 112.613C61.5883 111.258 62.6722 110.174 64.027 110.174Z" fill="black"/>
<path d="M73.7573 110.174C75.1122 110.174 76.1961 111.258 76.1961 112.613C76.1961 113.967 75.1122 115.051 73.7573 115.051C72.4025 115.051 71.3186 113.967 71.3186 112.613C71.3186 111.258 72.4025 110.174 73.7573 110.174Z" fill="black"/>
<path d="M78.6348 110.174C79.9897 110.174 81.0736 111.258 81.0736 112.613C81.0736 113.967 79.9897 115.051 78.6348 115.051C77.28 115.051 76.1961 113.967 76.1961 112.613C76.1961 111.258 77.28 110.174 78.6348 110.174Z" fill="black"/>
<path d="M83.4877 110.174C84.8426 110.174 85.9265 111.258 85.9265 112.613C85.9265 113.967 84.8426 115.051 83.4877 115.051C82.1329 115.051 81.049 113.967 81.049 112.613C81.049 111.258 82.1329 110.174 83.4877 110.174Z" fill="black"/>
<path d="M88.3652 110.174C89.7201 110.174 90.804 111.258 90.804 112.613C90.804 113.967 89.7201 115.051 88.3652 115.051C87.0104 115.051 85.9265 113.967 85.9265 112.613C85.9265 111.258 87.0104 110.174 88.3652 110.174Z" fill="black"/>
<path d="M93.2427 110.174C94.5975 110.174 95.6814 111.258 95.6814 112.613C95.6814 113.967 94.5975 115.051 93.2427 115.051C91.8878 115.051 90.8039 113.967 90.8039 112.613C90.8039 111.258 91.8878 110.174 93.2427 110.174Z" fill="black"/>
<path d="M102.973 110.174C104.328 110.174 105.412 111.258 105.412 112.613C105.412 113.967 104.328 115.051 102.973 115.051C101.618 115.051 100.534 113.967 100.534 112.613C100.534 111.258 101.618 110.174 102.973 110.174Z" fill="black"/>
<path d="M112.703 110.174C114.058 110.174 115.142 111.258 115.142 112.613C115.142 113.967 114.058 115.051 112.703 115.051C111.349 115.051 110.265 113.967 110.265 112.613C110.265 111.258 111.349 110.174 112.703 110.174Z" fill="black"/>
<path d="M117.581 110.174C118.936 110.174 120.02 111.258 120.02 112.613C120.02 113.967 118.936 115.051 117.581 115.051C116.226 115.051 115.142 113.967 115.142 112.613C115.142 111.258 116.226 110.174 117.581 110.174Z" fill="black"/>
<path d="M122.434 110.174C123.789 110.174 124.873 111.258 124.873 112.613C124.873 113.967 123.789 115.051 122.434 115.051C121.079 115.051 119.995 113.967 119.995 112.613C119.995 111.258 121.079 110.174 122.434 110.174Z" fill="black"/>
<path d="M127.311 110.174C128.666 110.174 129.75 111.258 129.75 112.613C129.75 113.967 128.666 115.051 127.311 115.051C125.956 115.051 124.873 113.967 124.873 112.613C124.873 111.258 125.956 110.174 127.311 110.174Z" fill="black"/>
<path d="M132.189 110.174C133.544 110.174 134.628 111.258 134.628 112.613C134.628 113.967 133.544 115.051 132.189 115.051C130.834 115.051 129.75 113.967 129.75 112.613C129.75 111.258 130.834 110.174 132.189 110.174Z" fill="black"/>
<path d="M137.042 110.174C138.397 110.174 139.48 111.258 139.48 112.613C139.48 113.967 138.397 115.051 137.042 115.051C135.687 115.051 134.603 113.967 134.603 112.613C134.603 111.258 135.687 110.174 137.042 110.174Z" fill="black"/>
<path d="M151.65 110.174C153.004 110.174 154.088 111.258 154.088 112.613C154.088 113.967 153.004 115.051 151.65 115.051C150.295 115.051 149.211 113.967 149.211 112.613C149.211 111.258 150.295 110.174 151.65 110.174Z" fill="black"/>
<path d="M54.2966 115.053C55.6514 115.053 56.7353 116.137 56.7353 117.491C56.7353 118.846 55.6514 119.93 54.2966 119.93C52.9417 119.93 51.8578 118.846 51.8578 117.491C51.8578 116.137 52.9417 115.053 54.2966 115.053Z" fill="black"/>
<path d="M59.1494 115.053C60.5043 115.053 61.5882 116.137 61.5882 117.491C61.5882 118.846 60.5043 119.93 59.1494 119.93C57.7946 119.93 56.7107 118.846 56.7107 117.491C56.7107 116.137 57.7946 115.053 59.1494 115.053Z" fill="black"/>
<path d="M98.0956 115.053C99.4504 115.053 100.534 116.137 100.534 117.491C100.534 118.846 99.4504 119.93 98.0956 119.93C96.7407 119.93 95.6568 118.846 95.6568 117.491C95.6568 116.137 96.7407 115.053 98.0956 115.053Z" fill="black"/>
<path d="M102.973 115.053C104.328 115.053 105.412 116.137 105.412 117.491C105.412 118.846 104.328 119.93 102.973 119.93C101.618 119.93 100.534 118.846 100.534 117.491C100.534 116.137 101.618 115.053 102.973 115.053Z" fill="black"/>
<path d="M107.826 115.053C109.181 115.053 110.265 116.137 110.265 117.491C110.265 118.846 109.181 119.93 107.826 119.93C106.471 119.93 105.387 118.846 105.387 117.491C105.387 116.137 106.471 115.053 107.826 115.053Z" fill="black"/>
<path d="M112.703 115.053C114.058 115.053 115.142 116.137 115.142 117.491C115.142 118.846 114.058 119.93 112.703 119.93C111.349 119.93 110.265 118.846 110.265 117.491C110.265 116.137 111.349 115.053 112.703 115.053Z" fill="black"/>
<path d="M132.189 115.053C133.544 115.053 134.628 116.137 134.628 117.491C134.628 118.846 133.544 119.93 132.189 119.93C130.834 119.93 129.75 118.846 129.75 117.491C129.75 116.137 130.834 115.053 132.189 115.053Z" fill="black"/>
<path d="M151.65 115.053C153.004 115.053 154.088 116.137 154.088 117.491C154.088 118.846 153.004 119.93 151.65 119.93C150.295 119.93 149.211 118.846 149.211 117.491C149.211 116.137 150.295 115.053 151.65 115.053Z" fill="black"/>
<path d="M54.2966 119.904C55.6514 119.904 56.7353 120.988 56.7353 122.343C56.7353 123.698 55.6514 124.782 54.2966 124.782C52.9417 124.782 51.8578 123.698 51.8578 122.343C51.8578 120.988 52.9417 119.904 54.2966 119.904Z" fill="black"/>
<path d="M59.1495 119.904C60.5044 119.904 61.5883 120.988 61.5883 122.343C61.5883 123.698 60.5044 124.782 59.1495 124.782C57.7947 124.782 56.7108 123.698 56.7108 122.343C56.7108 120.988 57.7947 119.904 59.1495 119.904Z" fill="black"/>
<path d="M64.027 119.904C65.3819 119.904 66.4658 120.988 66.4658 122.343C66.4658 123.698 65.3819 124.782 64.027 124.782C62.6722 124.782 61.5883 123.698 61.5883 122.343C61.5883 120.988 62.6722 119.904 64.027 119.904Z" fill="black"/>
<path d="M68.9045 119.904C70.2593 119.904 71.3432 120.988 71.3432 122.343C71.3432 123.698 70.2593 124.782 68.9045 124.782C67.5496 124.782 66.4657 123.698 66.4657 122.343C66.4657 120.988 67.5496 119.904 68.9045 119.904Z" fill="black"/>
<path d="M73.7573 119.904C75.1122 119.904 76.1961 120.988 76.1961 122.343C76.1961 123.698 75.1122 124.782 73.7573 124.782C72.4025 124.782 71.3186 123.698 71.3186 122.343C71.3186 120.988 72.4025 119.904 73.7573 119.904Z" fill="black"/>
<path d="M78.6348 119.904C79.9897 119.904 81.0736 120.988 81.0736 122.343C81.0736 123.698 79.9897 124.782 78.6348 124.782C77.28 124.782 76.1961 123.698 76.1961 122.343C76.1961 120.988 77.28 119.904 78.6348 119.904Z" fill="black"/>
<path d="M83.4877 119.904C84.8426 119.904 85.9265 120.988 85.9265 122.343C85.9265 123.698 84.8426 124.782 83.4877 124.782C82.1329 124.782 81.049 123.698 81.049 122.343C81.049 120.988 82.1329 119.904 83.4877 119.904Z" fill="black"/>
<path d="M88.3652 119.904C89.7201 119.904 90.804 120.988 90.804 122.343C90.804 123.698 89.7201 124.782 88.3652 124.782C87.0104 124.782 85.9265 123.698 85.9265 122.343C85.9265 120.988 87.0104 119.904 88.3652 119.904Z" fill="black"/>
<path d="M102.973 119.904C104.328 119.904 105.412 120.988 105.412 122.343C105.412 123.698 104.328 124.782 102.973 124.782C101.618 124.782 100.534 123.698 100.534 122.343C100.534 120.988 101.618 119.904 102.973 119.904Z" fill="black"/>
<path d="M107.826 119.904C109.181 119.904 110.265 120.988 110.265 122.343C110.265 123.698 109.181 124.782 107.826 124.782C106.471 124.782 105.387 123.698 105.387 122.343C105.387 120.988 106.471 119.904 107.826 119.904Z" fill="black"/>
<path d="M112.703 119.904C114.058 119.904 115.142 120.988 115.142 122.343C115.142 123.698 114.058 124.782 112.703 124.782C111.349 124.782 110.265 123.698 110.265 122.343C110.265 120.988 111.349 119.904 112.703 119.904Z" fill="black"/>
<path d="M122.434 119.904C123.789 119.904 124.873 120.988 124.873 122.343C124.873 123.698 123.789 124.782 122.434 124.782C121.079 124.782 119.995 123.698 119.995 122.343C119.995 120.988 121.079 119.904 122.434 119.904Z" fill="black"/>
<path d="M132.189 119.904C133.544 119.904 134.628 120.988 134.628 122.343C134.628 123.698 133.544 124.782 132.189 124.782C130.834 124.782 129.75 123.698 129.75 122.343C129.75 120.988 130.834 119.904 132.189 119.904Z" fill="black"/>
<path d="M137.042 119.904C138.397 119.904 139.48 120.988 139.48 122.343C139.48 123.698 138.397 124.782 137.042 124.782C135.687 124.782 134.603 123.698 134.603 122.343C134.603 120.988 135.687 119.904 137.042 119.904Z" fill="black"/>
<path d="M141.919 119.904C143.274 119.904 144.358 120.988 144.358 122.343C144.358 123.698 143.274 124.782 141.919 124.782C140.564 124.782 139.48 123.698 139.48 122.343C139.48 120.988 140.564 119.904 141.919 119.904Z" fill="black"/>
<path d="M151.65 119.904C153.004 119.904 154.088 120.988 154.088 122.343C154.088 123.698 153.004 124.782 151.65 124.782C150.295 124.782 149.211 123.698 149.211 122.343C149.211 120.988 150.295 119.904 151.65 119.904Z" fill="black"/>
<path d="M59.1495 124.783C60.5044 124.783 61.5883 125.867 61.5883 127.222C61.5883 128.577 60.5044 129.661 59.1495 129.661C57.7947 129.661 56.7108 128.577 56.7108 127.222C56.7108 125.867 57.7947 124.783 59.1495 124.783Z" fill="black"/>
<path d="M64.027 124.783C65.3819 124.783 66.4658 125.867 66.4658 127.222C66.4658 128.577 65.3819 129.661 64.027 129.661C62.6722 129.661 61.5883 128.577 61.5883 127.222C61.5883 125.867 62.6722 124.783 64.027 124.783Z" fill="black"/>
<path d="M68.9045 124.783C70.2593 124.783 71.3432 125.867 71.3432 127.222C71.3432 128.577 70.2593 129.661 68.9045 129.661C67.5496 129.661 66.4657 128.577 66.4657 127.222C66.4657 125.867 67.5496 124.783 68.9045 124.783Z" fill="black"/>
<path d="M78.6348 124.783C79.9897 124.783 81.0736 125.867 81.0736 127.222C81.0736 128.577 79.9897 129.661 78.6348 129.661C77.28 129.661 76.1961 128.577 76.1961 127.222C76.1961 125.867 77.28 124.783 78.6348 124.783Z" fill="black"/>
<path d="M88.3652 124.783C89.7201 124.783 90.804 125.867 90.804 127.222C90.804 128.577 89.7201 129.661 88.3652 129.661C87.0104 129.661 85.9265 128.577 85.9265 127.222C85.9265 125.867 87.0104 124.783 88.3652 124.783Z" fill="black"/>
<path d="M93.2427 124.783C94.5975 124.783 95.6814 125.867 95.6814 127.222C95.6814 128.577 94.5975 129.661 93.2427 129.661C91.8878 129.661 90.8039 128.577 90.8039 127.222C90.8039 125.867 91.8878 124.783 93.2427 124.783Z" fill="black"/>
<path d="M112.703 124.783C114.058 124.783 115.142 125.867 115.142 127.222C115.142 128.577 114.058 129.661 112.703 129.661C111.349 129.661 110.265 128.577 110.265 127.222C110.265 125.867 111.349 124.783 112.703 124.783Z" fill="black"/>
<path d="M132.189 124.783C133.544 124.783 134.628 125.867 134.628 127.222C134.628 128.577 133.544 129.661 132.189 129.661C130.834 129.661 129.75 128.577 129.75 127.222C129.75 125.867 130.834 124.783 132.189 124.783Z" fill="black"/>
<path d="M54.2966 129.66C55.6514 129.66 56.7353 130.744 56.7353 132.099C56.7353 133.454 55.6514 134.538 54.2966 134.538C52.9417 134.538 51.8578 133.454 51.8578 132.099C51.8578 130.744 52.9417 129.66 54.2966 129.66Z" fill="black"/>
<path d="M64.027 129.66C65.3819 129.66 66.4658 130.744 66.4658 132.099C66.4658 133.454 65.3819 134.538 64.027 134.538C62.6722 134.538 61.5883 133.454 61.5883 132.099C61.5883 130.744 62.6722 129.66 64.027 129.66Z" fill="black"/>
<path d="M78.6348 129.66C79.9897 129.66 81.0736 130.744 81.0736 132.099C81.0736 133.454 79.9897 134.538 78.6348 134.538C77.2799 134.538 76.1961 133.454 76.1961 132.099C76.1961 130.744 77.2799 129.66 78.6348 129.66Z" fill="black"/>
<path d="M107.826 129.66C109.181 129.66 110.265 130.744 110.265 132.099C110.265 133.454 109.181 134.538 107.826 134.538C106.471 134.538 105.387 133.454 105.387 132.099C105.387 130.744 106.471 129.66 107.826 129.66Z" fill="black"/>
<path d="M112.703 129.66C114.058 129.66 115.142 130.744 115.142 132.099C115.142 133.454 114.058 134.538 112.703 134.538C111.349 134.538 110.265 133.454 110.265 132.099C110.265 130.744 111.349 129.66 112.703 129.66Z" fill="black"/>
<path d="M117.581 129.66C118.936 129.66 120.02 130.744 120.02 132.099C120.02 133.454 118.936 134.538 117.581 134.538C116.226 134.538 115.142 133.454 115.142 132.099C115.142 130.744 116.226 129.66 117.581 129.66Z" fill="black"/>
<path d="M122.434 129.66C123.789 129.66 124.873 130.744 124.873 132.099C124.873 133.454 123.789 134.538 122.434 134.538C121.079 134.538 119.995 133.454 119.995 132.099C119.995 130.744 121.079 129.66 122.434 129.66Z" fill="black"/>
<path d="M127.311 129.66C128.666 129.66 129.75 130.744 129.75 132.099C129.75 133.454 128.666 134.538 127.311 134.538C125.956 134.538 124.873 133.454 124.873 132.099C124.873 130.744 125.956 129.66 127.311 129.66Z" fill="black"/>
<path d="M132.189 129.66C133.544 129.66 134.628 130.744 134.628 132.099C134.628 133.454 133.544 134.538 132.189 134.538C130.834 134.538 129.75 133.454 129.75 132.099C129.75 130.744 130.834 129.66 132.189 129.66Z" fill="black"/>
<path d="M137.042 129.66C138.397 129.66 139.48 130.744 139.48 132.099C139.48 133.454 138.397 134.538 137.042 134.538C135.687 134.538 134.603 133.454 134.603 132.099C134.603 130.744 135.687 129.66 137.042 129.66Z" fill="black"/>
<path d="M151.65 129.66C153.004 129.66 154.088 130.744 154.088 132.099C154.088 133.454 153.004 134.538 151.65 134.538C150.295 134.538 149.211 133.454 149.211 132.099C149.211 130.744 150.295 129.66 151.65 129.66Z" fill="black"/>
<path d="M59.1495 134.514C60.5044 134.514 61.5883 135.598 61.5883 136.952C61.5883 138.307 60.5044 139.391 59.1495 139.391C57.7947 139.391 56.7108 138.307 56.7108 136.952C56.7108 135.598 57.7947 134.514 59.1495 134.514Z" fill="black"/>
<path d="M64.027 134.514C65.3819 134.514 66.4658 135.598 66.4658 136.952C66.4658 138.307 65.3819 139.391 64.027 139.391C62.6722 139.391 61.5883 138.307 61.5883 136.952C61.5883 135.598 62.6722 134.514 64.027 134.514Z" fill="black"/>
<path d="M68.9045 134.514C70.2593 134.514 71.3432 135.598 71.3432 136.952C71.3432 138.307 70.2593 139.391 68.9045 139.391C67.5496 139.391 66.4657 138.307 66.4657 136.952C66.4657 135.598 67.5496 134.514 68.9045 134.514Z" fill="black"/>
<path d="M73.7573 134.514C75.1122 134.514 76.1961 135.598 76.1961 136.952C76.1961 138.307 75.1122 139.391 73.7573 139.391C72.4025 139.391 71.3186 138.307 71.3186 136.952C71.3186 135.598 72.4025 134.514 73.7573 134.514Z" fill="black"/>
<path d="M78.6348 134.514C79.9897 134.514 81.0736 135.598 81.0736 136.952C81.0736 138.307 79.9897 139.391 78.6348 139.391C77.28 139.391 76.1961 138.307 76.1961 136.952C76.1961 135.598 77.28 134.514 78.6348 134.514Z" fill="black"/>
<path d="M83.4877 134.514C84.8426 134.514 85.9265 135.598 85.9265 136.952C85.9265 138.307 84.8426 139.391 83.4877 139.391C82.1329 139.391 81.049 138.307 81.049 136.952C81.049 135.598 82.1329 134.514 83.4877 134.514Z" fill="black"/>
<path d="M93.2427 134.514C94.5975 134.514 95.6814 135.598 95.6814 136.952C95.6814 138.307 94.5975 139.391 93.2427 139.391C91.8878 139.391 90.8039 138.307 90.8039 136.952C90.8039 135.598 91.8878 134.514 93.2427 134.514Z" fill="black"/>
<path d="M102.973 134.514C104.328 134.514 105.412 135.598 105.412 136.952C105.412 138.307 104.328 139.391 102.973 139.391C101.618 139.391 100.534 138.307 100.534 136.952C100.534 135.598 101.618 134.514 102.973 134.514Z" fill="black"/>
<path d="M112.703 134.514C114.058 134.514 115.142 135.598 115.142 136.952C115.142 138.307 114.058 139.391 112.703 139.391C111.349 139.391 110.265 138.307 110.265 136.952C110.265 135.598 111.349 134.514 112.703 134.514Z" fill="black"/>
<path d="M117.581 134.514C118.936 134.514 120.02 135.598 120.02 136.952C120.02 138.307 118.936 139.391 117.581 139.391C116.226 139.391 115.142 138.307 115.142 136.952C115.142 135.598 116.226 134.514 117.581 134.514Z" fill="black"/>
<path d="M146.772 134.514C148.127 134.514 149.211 135.598 149.211 136.952C149.211 138.307 148.127 139.391 146.772 139.391C145.417 139.391 144.333 138.307 144.333 136.952C144.333 135.598 145.417 134.514 146.772 134.514Z" fill="black"/>
<path d="M59.1495 139.39C60.5044 139.39 61.5883 140.474 61.5883 141.828C61.5883 143.183 60.5044 144.267 59.1495 144.267C57.7947 144.267 56.7108 143.183 56.7108 141.828C56.7108 140.474 57.7947 139.39 59.1495 139.39Z" fill="black"/>
<path d="M64.027 139.39C65.3819 139.39 66.4658 140.474 66.4658 141.828C66.4658 143.183 65.3819 144.267 64.027 144.267C62.6722 144.267 61.5883 143.183 61.5883 141.828C61.5883 140.474 62.6722 139.39 64.027 139.39Z" fill="black"/>
<path d="M93.2427 139.39C94.5975 139.39 95.6814 140.474 95.6814 141.828C95.6814 143.183 94.5975 144.267 93.2427 144.267C91.8878 144.267 90.8039 143.183 90.8039 141.828C90.8039 140.474 91.8878 139.39 93.2427 139.39Z" fill="black"/>
<path d="M98.0956 139.39C99.4504 139.39 100.534 140.474 100.534 141.828C100.534 143.183 99.4504 144.267 98.0956 144.267C96.7407 144.267 95.6568 143.183 95.6568 141.828C95.6568 140.474 96.7407 139.39 98.0956 139.39Z" fill="black"/>
<path d="M107.826 139.39C109.181 139.39 110.265 140.474 110.265 141.828C110.265 143.183 109.181 144.267 107.826 144.267C106.471 144.267 105.387 143.183 105.387 141.828C105.387 140.474 106.471 139.39 107.826 139.39Z" fill="black"/>
<path d="M117.581 139.39C118.936 139.39 120.02 140.474 120.02 141.828C120.02 143.183 118.936 144.267 117.581 144.267C116.226 144.267 115.142 143.183 115.142 141.828C115.142 140.474 116.226 139.39 117.581 139.39Z" fill="black"/>
<path d="M137.042 139.39C138.397 139.39 139.48 140.474 139.48 141.828C139.48 143.183 138.397 144.267 137.042 144.267C135.687 144.267 134.603 143.183 134.603 141.828C134.603 140.474 135.687 139.39 137.042 139.39Z" fill="black"/>
<path d="M141.919 139.39C143.274 139.39 144.358 140.474 144.358 141.828C144.358 143.183 143.274 144.267 141.919 144.267C140.564 144.267 139.48 143.183 139.48 141.828C139.48 140.474 140.564 139.39 141.919 139.39Z" fill="black"/>
<path d="M146.772 139.39C148.127 139.39 149.211 140.474 149.211 141.828C149.211 143.183 148.127 144.267 146.772 144.267C145.417 144.267 144.333 143.183 144.333 141.828C144.333 140.474 145.417 139.39 146.772 139.39Z" fill="black"/>
<path d="M151.65 139.39C153.004 139.39 154.088 140.474 154.088 141.828C154.088 143.183 153.004 144.267 151.65 144.267C150.295 144.267 149.211 143.183 149.211 141.828C149.211 140.474 150.295 139.39 151.65 139.39Z" fill="black"/>
<path d="M64.027 144.27C65.3819 144.27 66.4658 145.353 66.4658 146.708C66.4658 148.063 65.3819 149.147 64.027 149.147C62.6722 149.147 61.5883 148.063 61.5883 146.708C61.5883 145.353 62.6722 144.27 64.027 144.27Z" fill="black"/>
<path d="M68.9044 144.27C70.2593 144.27 71.3432 145.353 71.3432 146.708C71.3432 148.063 70.2593 149.147 68.9044 149.147C67.5496 149.147 66.4657 148.063 66.4657 146.708C66.4657 145.353 67.5496 144.27 68.9044 144.27Z" fill="black"/>
<path d="M73.7573 144.27C75.1122 144.27 76.1961 145.353 76.1961 146.708C76.1961 148.063 75.1122 149.147 73.7573 149.147C72.4025 149.147 71.3186 148.063 71.3186 146.708C71.3186 145.353 72.4025 144.27 73.7573 144.27Z" fill="black"/>
<path d="M78.6348 144.27C79.9897 144.27 81.0736 145.353 81.0736 146.708C81.0736 148.063 79.9897 149.147 78.6348 149.147C77.2799 149.147 76.1961 148.063 76.1961 146.708C76.1961 145.353 77.2799 144.27 78.6348 144.27Z" fill="black"/>
<path d="M83.4877 144.27C84.8425 144.27 85.9264 145.353 85.9264 146.708C85.9264 148.063 84.8425 149.147 83.4877 149.147C82.1328 149.147 81.0489 148.063 81.0489 146.708C81.0489 145.353 82.1328 144.27 83.4877 144.27Z" fill="black"/>
<path d="M98.0956 144.27C99.4504 144.27 100.534 145.353 100.534 146.708C100.534 148.063 99.4504 149.147 98.0956 149.147C96.7407 149.147 95.6568 148.063 95.6568 146.708C95.6568 145.353 96.7407 144.27 98.0956 144.27Z" fill="black"/>
<path d="M102.973 144.27C104.328 144.27 105.412 145.353 105.412 146.708C105.412 148.063 104.328 149.147 102.973 149.147C101.618 149.147 100.534 148.063 100.534 146.708C100.534 145.353 101.618 144.27 102.973 144.27Z" fill="black"/>
<path d="M112.703 144.27C114.058 144.27 115.142 145.353 115.142 146.708C115.142 148.063 114.058 149.147 112.703 149.147C111.349 149.147 110.265 148.063 110.265 146.708C110.265 145.353 111.349 144.27 112.703 144.27Z" fill="black"/>
<path d="M122.434 144.27C123.789 144.27 124.873 145.353 124.873 146.708C124.873 148.063 123.789 149.147 122.434 149.147C121.079 149.147 119.995 148.063 119.995 146.708C119.995 145.353 121.079 144.27 122.434 144.27Z" fill="black"/>
<path d="M127.311 144.27C128.666 144.27 129.75 145.353 129.75 146.708C129.75 148.063 128.666 149.147 127.311 149.147C125.956 149.147 124.873 148.063 124.873 146.708C124.873 145.353 125.956 144.27 127.311 144.27Z" fill="black"/>
<path d="M137.042 144.27C138.397 144.27 139.48 145.353 139.48 146.708C139.48 148.063 138.397 149.147 137.042 149.147C135.687 149.147 134.603 148.063 134.603 146.708C134.603 145.353 135.687 144.27 137.042 144.27Z" fill="black"/>
<path d="M146.772 144.27C148.127 144.27 149.211 145.353 149.211 146.708C149.211 148.063 148.127 149.147 146.772 149.147C145.417 149.147 144.333 148.063 144.333 146.708C144.333 145.353 145.417 144.27 146.772 144.27Z" fill="black"/>
<path d="M151.65 144.27C153.004 144.27 154.088 145.353 154.088 146.708C154.088 148.063 153.004 149.147 151.65 149.147C150.295 149.147 149.211 148.063 149.211 146.708C149.211 145.353 150.295 144.27 151.65 144.27Z" fill="black"/>
<path d="M54.2966 149.121C55.6514 149.121 56.7353 150.205 56.7353 151.56C56.7353 152.915 55.6514 153.999 54.2966 153.999C52.9417 153.999 51.8578 152.915 51.8578 151.56C51.8578 150.205 52.9417 149.121 54.2966 149.121Z" fill="black"/>
<path d="M68.9044 149.121C70.2593 149.121 71.3432 150.205 71.3432 151.56C71.3432 152.915 70.2593 153.999 68.9044 153.999C67.5496 153.999 66.4657 152.915 66.4657 151.56C66.4657 150.205 67.5496 149.121 68.9044 149.121Z" fill="black"/>
<path d="M73.7573 149.121C75.1122 149.121 76.1961 150.205 76.1961 151.56C76.1961 152.915 75.1122 153.999 73.7573 153.999C72.4025 153.999 71.3186 152.915 71.3186 151.56C71.3186 150.205 72.4025 149.121 73.7573 149.121Z" fill="black"/>
<path d="M78.6348 149.121C79.9897 149.121 81.0736 150.205 81.0736 151.56C81.0736 152.915 79.9897 153.999 78.6348 153.999C77.2799 153.999 76.1961 152.915 76.1961 151.56C76.1961 150.205 77.2799 149.121 78.6348 149.121Z" fill="black"/>
<path d="M83.4878 149.121C84.8426 149.121 85.9265 150.205 85.9265 151.56C85.9265 152.915 84.8426 153.999 83.4878 153.999C82.1329 153.999 81.049 152.915 81.049 151.56C81.049 150.205 82.1329 149.121 83.4878 149.121Z" fill="black"/>
<path d="M88.3652 149.121C89.7201 149.121 90.804 150.205 90.804 151.56C90.804 152.915 89.7201 153.999 88.3652 153.999C87.0104 153.999 85.9265 152.915 85.9265 151.56C85.9265 150.205 87.0104 149.121 88.3652 149.121Z" fill="black"/>
<path d="M93.2427 149.121C94.5975 149.121 95.6814 150.205 95.6814 151.56C95.6814 152.915 94.5975 153.999 93.2427 153.999C91.8878 153.999 90.8039 152.915 90.8039 151.56C90.8039 150.205 91.8878 149.121 93.2427 149.121Z" fill="black"/>
<path d="M102.973 149.121C104.328 149.121 105.412 150.205 105.412 151.56C105.412 152.915 104.328 153.999 102.973 153.999C101.618 153.999 100.534 152.915 100.534 151.56C100.534 150.205 101.618 149.121 102.973 149.121Z" fill="black"/>
<path d="M112.703 149.121C114.058 149.121 115.142 150.205 115.142 151.56C115.142 152.915 114.058 153.999 112.703 153.999C111.349 153.999 110.265 152.915 110.265 151.56C110.265 150.205 111.349 149.121 112.703 149.121Z" fill="black"/>
<path d="M117.581 149.121C118.936 149.121 120.02 150.205 120.02 151.56C120.02 152.915 118.936 153.999 117.581 153.999C116.226 153.999 115.142 152.915 115.142 151.56C115.142 150.205 116.226 149.121 117.581 149.121Z" fill="black"/>
<path d="M127.311 149.121C128.666 149.121 129.75 150.205 129.75 151.56C129.75 152.915 128.666 153.999 127.311 153.999C125.956 153.999 124.873 152.915 124.873 151.56C124.873 150.205 125.956 149.121 127.311 149.121Z" fill="black"/>
<path d="M137.042 149.121C138.397 149.121 139.48 150.205 139.48 151.56C139.48 152.915 138.397 153.999 137.042 153.999C135.687 153.999 134.603 152.915 134.603 151.56C134.603 150.205 135.687 149.121 137.042 149.121Z" fill="black"/>
<path d="M146.772 149.121C148.127 149.121 149.211 150.205 149.211 151.56C149.211 152.915 148.127 153.999 146.772 153.999C145.417 153.999 144.333 152.915 144.333 151.56C144.333 150.205 145.417 149.121 146.772 149.121Z" fill="black"/>
<path d="M35.3532 12.8203H24.539C19.2673 12.8203 14.8086 16.2937 13.3798 21.048C13.232 21.5407 13.1089 22.058 13.035 22.5507C12.9364 23.1173 12.9118 23.7085 12.9118 24.2997V35.3603C12.9118 41.7158 18.1342 46.8643 24.539 46.8643H29.9338H35.3286C41.7334 46.8643 46.9557 41.7158 46.9557 35.3603V24.2997C46.9804 17.9934 41.758 12.8203 35.3532 12.8203ZM41.8812 35.3849C41.8812 38.9075 38.9498 41.7897 35.3532 41.7897H29.9584H24.5636C20.9671 41.7897 18.0356 38.9322 18.0356 35.4095V24.3489C18.0356 23.2404 18.3312 22.2058 18.8239 21.2943C19.3166 20.4322 19.9817 19.6685 20.8193 19.1019C21.8785 18.3629 23.1595 17.9441 24.5636 17.9441H35.3778C38.9744 17.9441 41.9058 20.8017 41.9058 24.3243V35.3849H41.8812Z" fill="black"/>
<path d="M142.461 12.8203H131.647C126.375 12.8203 121.917 16.2937 120.488 21.048C120.34 21.5407 120.217 22.058 120.143 22.5507C120.044 23.1173 120.02 23.7085 120.02 24.2997V35.3603C120.02 41.7158 125.242 46.8643 131.647 46.8643H137.042H142.437C148.841 46.8643 154.064 41.7158 154.064 35.3603V24.2997C154.088 17.9934 148.866 12.8203 142.461 12.8203ZM148.964 35.3849C148.964 38.9075 146.033 41.7897 142.437 41.7897H137.042H131.647C128.05 41.7897 125.119 38.9322 125.119 35.4095V24.3489C125.119 23.2404 125.415 22.2058 125.907 21.2943C126.4 20.4322 127.065 19.6685 127.903 19.1019C128.962 18.3629 130.243 17.9441 131.647 17.9441H142.461C146.058 17.9441 148.989 20.8017 148.989 24.3243V35.3849H148.964Z" fill="black"/>
<path d="M35.3532 119.928H24.539C19.2673 119.928 14.8086 123.401 13.3798 128.156C13.232 128.648 13.1089 129.166 13.035 129.658C12.9364 130.225 12.9118 130.816 12.9118 131.407V142.468C12.9118 148.823 18.1342 153.972 24.539 153.972H29.9338H35.3286C41.7334 153.972 46.9557 148.823 46.9557 142.468V131.407C46.9557 125.076 41.7334 119.903 35.3286 119.903L35.3532 119.928ZM41.8812 142.493C41.8812 146.015 38.9498 148.897 35.3532 148.897H29.9584H24.5636C20.9671 148.897 18.0356 146.04 18.0356 142.517V131.457C18.0356 130.348 18.3312 129.313 18.8239 128.402C19.3166 127.54 19.9817 126.776 20.8193 126.21C21.8785 125.471 23.1595 125.052 24.5636 125.052H35.3778C38.9744 125.052 41.9058 127.909 41.9058 131.432V142.493H41.8812Z" fill="black"/>
<path d="M26.6328 37.1606C24.4404 37.1606 22.6422 35.4116 22.6422 33.2438V26.4695C22.6422 25.8044 22.8146 25.1639 23.1348 24.5973C23.4304 24.0554 23.8492 23.612 24.3665 23.2671C25.007 22.8237 25.7953 22.5527 26.6575 22.5527H33.284C35.4764 22.5527 37.2747 24.3017 37.2747 26.4695V33.2438C37.2747 35.4116 35.4764 37.1606 33.284 37.1606H26.6575H26.6328Z" fill="black"/>
<path d="M133.741 37.1606C131.548 37.1606 129.75 35.4116 129.75 33.2438V26.4695C129.75 25.8044 129.922 25.1639 130.243 24.5973C130.538 24.0554 130.957 23.612 131.474 23.2671C132.115 22.8237 132.903 22.5527 133.765 22.5527H140.392C142.584 22.5527 144.383 24.3017 144.383 26.4695V33.2438C144.383 35.4116 142.584 37.1606 140.392 37.1606H133.765H133.741Z" fill="black"/>
<path d="M26.6328 144.268C24.4404 144.268 22.6422 142.519 22.6422 140.351V133.577C22.6422 132.912 22.8146 132.271 23.1348 131.705C23.4304 131.163 23.8492 130.719 24.3665 130.375C25.007 129.931 25.7953 129.66 26.6575 129.66H33.284C35.4764 129.66 37.2747 131.409 37.2747 133.577V140.351C37.2747 142.519 35.4764 144.268 33.284 144.268H26.6575H26.6328Z" fill="black"/>
</g>
<defs>
<clipPath id="clip0_3403_12502">
<rect width="141.176" height="141.176" fill="white" transform="translate(12.9118 12.8232)"/>
</clipPath>
</defs>
</svg>
