<svg width="24" height="24" viewBox="0 0 24 24" fill="none" xmlns="http://www.w3.org/2000/svg">
<path d="M12 22C10.0222 22 8.08879 21.4135 6.4443 20.3147C4.79981 19.2159 3.51809 17.6541 2.76121 15.8268C2.00433 13.9996 1.8063 11.9889 2.19215 10.0491C2.578 8.10929 3.53041 6.32746 4.92894 4.92894C6.32746 3.53041 8.10929 2.578 10.0491 2.19215C11.9889 1.8063 13.9996 2.00433 15.8268 2.76121C17.6541 3.51809 19.2159 4.79981 20.3147 6.4443C21.4135 8.08879 22 10.0222 22 12C21.9971 14.6513 20.9426 17.1931 19.0679 19.0679C17.1931 20.9426 14.6513 21.9971 12 22ZM12 4C10.4178 4 8.87103 4.4692 7.55544 5.34825C6.23985 6.2273 5.21447 7.47673 4.60897 8.93854C4.00347 10.4003 3.84504 12.0089 4.15372 13.5607C4.4624 15.1126 5.22433 16.538 6.34315 17.6569C7.46197 18.7757 8.88743 19.5376 10.4393 19.8463C11.9911 20.155 13.5997 19.9965 15.0615 19.391C16.5233 18.7855 17.7727 17.7602 18.6518 16.4446C19.5308 15.129 20 13.5823 20 12C19.9976 9.879 19.154 7.84555 17.6542 6.34578C16.1544 4.84601 14.121 4.00239 12 4Z" fill="#545F71"/>
<path d="M12 15C11.7348 15 11.4804 14.8946 11.2929 14.7071C11.1054 14.5196 11 14.2652 11 14V12.582C11 12.4473 11.0272 12.3141 11.0799 12.1902C11.1327 12.0663 11.2099 11.9543 11.307 11.861C11.4033 11.7671 11.5179 11.694 11.6437 11.6462C11.7694 11.5984 11.9036 11.5769 12.038 11.583C12.2313 11.59 12.4241 11.5579 12.6047 11.4885C12.7853 11.4192 12.95 11.3141 13.089 11.1795C13.228 11.0449 13.3383 10.8837 13.4134 10.7054C13.4885 10.5271 13.5268 10.3355 13.526 10.142C13.5414 9.74418 13.3981 9.35654 13.1277 9.06436C12.8572 8.77217 12.4818 8.59939 12.084 8.584C11.6862 8.56862 11.2985 8.7119 11.0064 8.98233C10.7142 9.25276 10.5414 9.62818 10.526 10.026C10.5228 10.1578 10.4933 10.2876 10.4391 10.4077C10.3849 10.5279 10.3072 10.6359 10.2105 10.7255C10.1138 10.8151 10.0001 10.8844 9.87623 10.9293C9.7523 10.9743 9.62063 10.9939 9.489 10.987C9.22425 10.9766 8.97446 10.8615 8.79446 10.6671C8.61447 10.4727 8.519 10.2148 8.529 9.95C8.55739 9.30695 8.76257 8.68418 9.12196 8.15017C9.48136 7.61617 9.98105 7.19162 10.5661 6.9232C11.1511 6.65479 11.7989 6.55291 12.4381 6.62877C13.0773 6.70463 13.6832 6.95529 14.1891 7.35318C14.6951 7.75108 15.0816 8.28079 15.306 8.88409C15.5304 9.48738 15.5841 10.1409 15.4612 10.7727C15.3383 11.4045 15.0435 11.9903 14.6093 12.4654C14.1751 12.9406 13.6182 13.2868 13 13.466V14C13 14.2652 12.8946 14.5196 12.7071 14.7071C12.5196 14.8946 12.2652 15 12 15Z" fill="#545F71"/>
<path d="M12 18C12.5523 18 13 17.5523 13 17C13 16.4477 12.5523 16 12 16C11.4477 16 11 16.4477 11 17C11 17.5523 11.4477 18 12 18Z" fill="#545F71"/>
</svg>
