<svg width="17" height="16" viewBox="0 0 17 16" fill="none" xmlns="http://www.w3.org/2000/svg">
<path d="M1.98765 14.3248C2.11321 14.4619 2.30796 14.5119 2.48409 14.4521L4.49084 13.7707L5.32979 15.7168C5.4036 15.888 5.57188 15.9993 5.75832 16H5.76026C5.94595 16 6.1142 15.8904 6.18917 15.7203L7.75301 12.1731C7.99789 12.2032 8.24711 12.2189 8.49999 12.2189C8.75287 12.2189 9.00209 12.2032 9.24697 12.1731L10.8108 15.7203C10.8857 15.8904 11.054 16 11.2397 16H11.2417C11.4282 15.9993 11.5964 15.888 11.6702 15.7168L12.5092 13.7707L14.5159 14.4521C14.6919 14.5119 14.8868 14.4619 15.0124 14.3248C15.138 14.1876 15.1706 13.9892 15.0955 13.819L13.3353 9.8292C14.1241 8.8019 14.5939 7.51742 14.5939 6.12508C14.5939 2.74769 11.8602 0 8.50002 0C5.13988 0 2.40618 2.74769 2.40618 6.12508C2.40618 7.51742 2.87591 8.80193 3.66473 9.8292L1.90452 13.819C1.82946 13.9892 1.86205 14.1876 1.98765 14.3248ZM13.8071 13.2213L12.4008 12.7438C12.1693 12.6652 11.9164 12.7777 11.8196 13.0021L11.2349 14.3583L10.187 11.9812C11.1163 11.7131 11.9549 11.2291 12.6451 10.5875L13.8071 13.2213ZM3.3437 6.12508C3.3437 3.26464 5.65682 0.937513 8.50002 0.937513C11.3432 0.937513 13.6563 3.26464 13.6563 6.12508C13.6563 8.96828 11.3432 11.2814 8.50002 11.2814C5.65682 11.2814 3.3437 8.96828 3.3437 6.12508ZM4.35487 10.5875C5.04513 11.2291 5.8837 11.7131 6.81306 11.9812L5.76507 14.3583L5.18044 13.0021C5.08366 12.7776 4.83069 12.6652 4.59928 12.7438L3.19291 13.2213L4.35487 10.5875Z" fill="black"/>
<path d="M6.6589 6.72324L6.3848 8.32117C6.35465 8.49702 6.42693 8.67477 6.57127 8.77964C6.71537 8.88433 6.90675 8.89849 7.06494 8.81533L8.49999 8.06088L9.93501 8.81533C10.093 8.89836 10.2844 8.88452 10.4287 8.77964C10.573 8.67477 10.6453 8.49705 10.6152 8.32117L10.3411 6.72324L11.5021 5.59157C11.6298 5.46704 11.6758 5.28075 11.6207 5.11106C11.5655 4.94137 11.4188 4.81768 11.2423 4.79203L9.63785 4.5589L8.92034 3.10507C8.84137 2.94506 8.6784 2.84375 8.49999 2.84375C8.32158 2.84375 8.15861 2.94503 8.07964 3.10507L7.36213 4.5589L5.7577 4.79203C5.58114 4.81768 5.43441 4.94137 5.37929 5.11106C5.32413 5.28075 5.37013 5.46704 5.49788 5.5916L6.6589 6.72324ZM7.74082 5.45119C7.89351 5.429 8.02548 5.33313 8.09376 5.19475L8.49999 4.37165L8.90621 5.19475C8.97449 5.3331 9.1065 5.429 9.25915 5.45119L10.1675 5.58319L9.51022 6.22389C9.39975 6.33158 9.34934 6.48674 9.37544 6.6388L9.5306 7.5435L8.71812 7.11637C8.58158 7.04459 8.41842 7.04456 8.28186 7.11637L7.46938 7.5435L7.62454 6.6388C7.6506 6.48674 7.60019 6.33158 7.48972 6.22389L6.8324 5.58319L7.74082 5.45119Z" fill="black"/>
</svg>
