<svg width="18" height="16" viewBox="0 0 18 16" fill="none" xmlns="http://www.w3.org/2000/svg">
<path d="M1.66699 2.66602V6.66602H5.66699" stroke="#545F71" stroke-width="2" stroke-linecap="round" stroke-linejoin="round"/>
<path d="M16.333 13.334V9.33398H12.333" stroke="#545F71" stroke-width="2" stroke-linecap="round" stroke-linejoin="round"/>
<path d="M14.6603 6.00038C14.3222 5.0449 13.7476 4.19064 12.99 3.51732C12.2325 2.844 11.3167 2.37355 10.3281 2.14988C9.33959 1.92621 8.31049 1.9566 7.33686 2.23823C6.36324 2.51985 5.47682 3.04352 4.76033 3.76038L1.66699 6.66704M16.3337 9.33371L13.2403 12.2404C12.5238 12.9572 11.6374 13.4809 10.6638 13.7625C9.69016 14.0441 8.66106 14.0745 7.67252 13.8509C6.68397 13.6272 5.76819 13.1568 5.01064 12.4834C4.25308 11.8101 3.67844 10.9559 3.34033 10.0004" stroke="#545F71" stroke-width="2" stroke-linecap="round" stroke-linejoin="round"/>
</svg>
