<svg width="16" height="16" viewBox="0 0 16 16" fill="none" xmlns="http://www.w3.org/2000/svg">
<path d="M13.3333 7.33203C12.9647 7.33203 12.6667 7.6307 12.6667 7.9987C12.6667 10.572 10.5727 12.6654 8 12.6654C6.768 12.6654 5.602 12.172 4.74067 11.332H6.66667C7.03533 11.332 7.33333 11.0334 7.33333 10.6654C7.33333 10.2974 7.03533 9.9987 6.66667 9.9987H3.502C3.37 9.97136 3.232 9.98736 3.10067 10.0454C3.08867 10.05 3.076 10.052 3.064 10.0574C3.05533 10.062 3.046 10.0614 3.03733 10.066C3.01933 10.0767 3.00933 10.094 2.992 10.1054C2.80067 10.2234 2.66667 10.4247 2.66667 10.6654V13.9987C2.66667 14.3667 2.96467 14.6654 3.33333 14.6654C3.702 14.6654 4 14.3667 4 13.9987V12.452C5.08667 13.426 6.50333 13.9987 8 13.9987C11.3087 13.9987 14 11.3067 14 7.9987C14 7.6307 13.702 7.33203 13.3333 7.33203Z" fill="#DEE1E3"/>
<path d="M3.33333 7.9987C3.33333 5.42536 5.42733 3.33203 8 3.33203C9.232 3.33203 10.398 3.82536 11.2593 4.66536H9.33333C8.96467 4.66536 8.66667 4.96403 8.66667 5.33203C8.66667 5.70003 8.96467 5.9987 9.33333 5.9987H12.4967C12.6293 6.0267 12.7687 6.01003 12.9 5.95136C12.912 5.9467 12.9247 5.9447 12.9367 5.93936C12.9453 5.9347 12.9547 5.93536 12.9633 5.9307C12.9813 5.92003 12.9913 5.9027 13.0087 5.89136C13.1993 5.77403 13.3333 5.5727 13.3333 5.33203V1.9987C13.3333 1.6307 13.0353 1.33203 12.6667 1.33203C12.298 1.33203 12 1.6307 12 1.9987V3.54536C10.9133 2.57136 9.49667 1.9987 8 1.9987C4.69133 1.9987 2 4.6907 2 7.9987C2 8.3667 2.298 8.66536 2.66667 8.66536C3.03533 8.66536 3.33333 8.3667 3.33333 7.9987Z" fill="#DEE1E3"/>
</svg>
