<svg width="17" height="16" viewBox="0 0 17 16" fill="none" xmlns="http://www.w3.org/2000/svg">
<g clip-path="url(#clip0_7888_22511)">
<path d="M8.75 10C9.85457 10 10.75 9.10457 10.75 8C10.75 6.89543 9.85457 6 8.75 6C7.64543 6 6.75 6.89543 6.75 8C6.75 9.10457 7.64543 10 8.75 10Z" stroke="#DEE1E3" stroke-width="1.33333" stroke-linecap="round" stroke-linejoin="round"/>
<path d="M13.6827 9.99935C13.5939 10.2004 13.5675 10.4235 13.6067 10.6397C13.6459 10.856 13.749 11.0556 13.9027 11.2127L13.9427 11.2527C14.0667 11.3765 14.165 11.5236 14.2321 11.6854C14.2992 11.8473 14.3337 12.0208 14.3337 12.196C14.3337 12.3712 14.2992 12.5447 14.2321 12.7066C14.165 12.8685 14.0667 13.0155 13.9427 13.1393C13.8189 13.2633 13.6718 13.3617 13.5099 13.4288C13.3481 13.4959 13.1746 13.5304 12.9993 13.5304C12.8241 13.5304 12.6506 13.4959 12.4888 13.4288C12.3269 13.3617 12.1798 13.2633 12.056 13.1393L12.016 13.0993C11.8589 12.9457 11.6593 12.8426 11.4431 12.8033C11.2268 12.7641 11.0038 12.7906 10.8027 12.8793C10.6055 12.9639 10.4373 13.1042 10.3189 13.283C10.2004 13.4619 10.1369 13.6715 10.136 13.886V13.9993C10.136 14.353 9.99554 14.6921 9.74549 14.9422C9.49544 15.1922 9.1563 15.3327 8.80268 15.3327C8.44906 15.3327 8.10992 15.1922 7.85987 14.9422C7.60983 14.6921 7.46935 14.353 7.46935 13.9993V13.9393C7.46419 13.7187 7.39276 13.5047 7.26436 13.3251C7.13595 13.1456 6.95651 13.0089 6.74935 12.9327C6.54827 12.8439 6.32522 12.8175 6.10896 12.8567C5.89269 12.8959 5.69314 12.999 5.53602 13.1527L5.49602 13.1927C5.37218 13.3167 5.22513 13.415 5.06327 13.4821C4.90141 13.5492 4.7279 13.5837 4.55268 13.5837C4.37746 13.5837 4.20396 13.5492 4.0421 13.4821C3.88023 13.415 3.73318 13.3167 3.60935 13.1927C3.48538 13.0689 3.38704 12.9218 3.31994 12.7599C3.25284 12.5981 3.2183 12.4246 3.2183 12.2493C3.2183 12.0741 3.25284 11.9006 3.31994 11.7388C3.38704 11.5769 3.48538 11.4298 3.60935 11.306L3.64935 11.266C3.80304 11.1089 3.90614 10.9093 3.94535 10.6931C3.98456 10.4768 3.95809 10.2538 3.86935 10.0527C3.78484 9.8555 3.64452 9.68734 3.46566 9.56889C3.2868 9.45044 3.07721 9.38687 2.86268 9.38602H2.74935C2.39573 9.38602 2.05659 9.24554 1.80654 8.99549C1.55649 8.74544 1.41602 8.4063 1.41602 8.05268C1.41602 7.69906 1.55649 7.35992 1.80654 7.10987C2.05659 6.85983 2.39573 6.71935 2.74935 6.71935H2.80935C3.03001 6.71419 3.24402 6.64276 3.42355 6.51436C3.60308 6.38595 3.73983 6.20651 3.81602 5.99935C3.90476 5.79827 3.93123 5.57522 3.89202 5.35896C3.85281 5.14269 3.74971 4.94314 3.59602 4.78602L3.55602 4.74602C3.43205 4.62218 3.3337 4.47513 3.2666 4.31327C3.1995 4.15141 3.16497 3.9779 3.16497 3.80268C3.16497 3.62746 3.1995 3.45396 3.2666 3.2921C3.3337 3.13023 3.43205 2.98318 3.55602 2.85935C3.67985 2.73538 3.8269 2.63704 3.98876 2.56994C4.15063 2.50284 4.32413 2.4683 4.49935 2.4683C4.67457 2.4683 4.84807 2.50284 5.00994 2.56994C5.1718 2.63704 5.31885 2.73538 5.44268 2.85935L5.48268 2.89935C5.6398 3.05304 5.83936 3.15614 6.05562 3.19535C6.27189 3.23456 6.49494 3.20809 6.69602 3.11935H6.74935C6.94653 3.03484 7.11469 2.89452 7.23314 2.71566C7.35159 2.5368 7.41516 2.32721 7.41602 2.11268V1.99935C7.41602 1.64573 7.55649 1.30659 7.80654 1.05654C8.05659 0.806491 8.39573 0.666016 8.74935 0.666016C9.10297 0.666016 9.44211 0.806491 9.69216 1.05654C9.94221 1.30659 10.0827 1.64573 10.0827 1.99935V2.05935C10.0835 2.27387 10.1471 2.48347 10.2656 2.66233C10.384 2.84119 10.5522 2.98151 10.7493 3.06602C10.9504 3.15476 11.1735 3.18123 11.3897 3.14202C11.606 3.10281 11.8056 2.99971 11.9627 2.84602L12.0027 2.80602C12.1265 2.68205 12.2736 2.5837 12.4354 2.5166C12.5973 2.4495 12.7708 2.41497 12.946 2.41497C13.1212 2.41497 13.2947 2.4495 13.4566 2.5166C13.6185 2.5837 13.7655 2.68205 13.8893 2.80602C14.0133 2.92985 14.1117 3.0769 14.1788 3.23876C14.2459 3.40063 14.2804 3.57413 14.2804 3.74935C14.2804 3.92457 14.2459 4.09807 14.1788 4.25994C14.1117 4.4218 14.0133 4.56885 13.8893 4.69268L13.8493 4.73268C13.6957 4.8898 13.5926 5.08936 13.5533 5.30562C13.5141 5.52189 13.5406 5.74494 13.6293 5.94602V5.99935C13.7139 6.19653 13.8542 6.36469 14.033 6.48314C14.2119 6.60159 14.4215 6.66516 14.636 6.66602H14.7493C15.103 6.66602 15.4421 6.80649 15.6922 7.05654C15.9422 7.30659 16.0827 7.64573 16.0827 7.99935C16.0827 8.35297 15.9422 8.69211 15.6922 8.94216C15.4421 9.19221 15.103 9.33268 14.7493 9.33268H14.6893C14.4748 9.33354 14.2652 9.3971 14.0864 9.51555C13.9075 9.634 13.7672 9.80217 13.6827 9.99935Z" stroke="#DEE1E3" stroke-width="1.33333" stroke-linecap="round" stroke-linejoin="round"/>
</g>
<defs>
<clipPath id="clip0_7888_22511">
<rect width="16" height="16" fill="white" transform="translate(0.75)"/>
</clipPath>
</defs>
</svg>
