<svg width="17" height="16" viewBox="0 0 17 16" fill="none" xmlns="http://www.w3.org/2000/svg">
<path d="M14.6746 4.27188C14.667 4.12439 14.5806 3.9924 14.4485 3.92636L8.68236 1.04329C8.56688 0.985569 8.43099 0.985569 8.31551 1.04329L2.5494 3.92636C2.4173 3.9924 2.3309 4.12439 2.32324 4.27188C2.31887 4.35582 2.22404 6.3546 2.90492 8.67518C3.30781 10.0482 3.9004 11.2474 4.66624 12.2395C5.63134 13.4898 6.87176 14.4095 8.35306 14.9732C8.40006 14.991 8.44947 15 8.49894 15C8.5484 15 8.59781 14.991 8.64481 14.9732C10.1261 14.4095 11.3665 13.4898 12.3316 12.2395C13.0975 11.2474 13.6901 10.0482 14.0929 8.67518C14.7738 6.3546 14.679 4.35582 14.6746 4.27188ZM13.2991 8.46693C12.4641 11.2927 10.8496 13.2037 8.49894 14.1494C6.1483 13.2037 4.53374 11.2927 3.69874 8.46693C3.18282 6.72092 3.13535 5.13148 3.13776 4.54933L8.49894 1.86872L13.8601 4.54928C13.8625 5.13173 13.815 6.72106 13.2991 8.46693Z" fill="white"/>
<path d="M12.7892 4.93298L8.68158 2.87922C8.5661 2.8215 8.43021 2.82152 8.31473 2.87922L4.20721 4.93298C4.05999 5.00656 3.97102 5.16105 3.98127 5.32534C4.02584 6.0407 4.15277 7.1379 4.50444 8.30228C5.2075 10.6303 6.49003 12.2685 8.31637 13.1715C8.37366 13.1999 8.43592 13.214 8.49815 13.214C8.56039 13.214 8.62268 13.1999 8.67994 13.1715C10.5063 12.2685 11.7888 10.6303 12.4919 8.30228C12.8435 7.13801 12.9705 6.04079 13.0151 5.32536C13.0253 5.16108 12.9364 5.00656 12.7892 4.93298ZM11.7066 8.0651C11.0959 10.0873 10.017 11.5253 8.49818 12.3424C6.97937 11.5253 5.90044 10.0873 5.28972 8.0651C5.00212 7.11285 4.87505 6.20594 4.81971 5.54387L8.49818 3.70462L12.1767 5.54387C12.1213 6.206 11.9942 7.11293 11.7066 8.0651Z" fill="white"/>
</svg>
