<svg width="71" height="17" viewBox="0 0 71 17" fill="none" xmlns="http://www.w3.org/2000/svg">
<g clip-path="url(#clip0_7888_22441)">
<path d="M16.053 8.09222C16.4585 7.69719 16.6016 7.11741 16.4266 6.57941C16.2519 6.04119 15.7954 5.65628 15.2352 5.57487L11.7762 5.07228C11.6006 5.04666 11.4489 4.93644 11.3704 4.77744L9.82347 1.64281C9.573 1.13547 9.06585 0.820312 8.49997 0.820312C7.9341 0.820312 7.42694 1.13547 7.17647 1.64281L5.62957 4.77741C5.55107 4.93647 5.39935 5.04669 5.22404 5.07225L1.76485 5.57484C1.2046 5.65628 0.748067 6.04119 0.573473 6.57912C0.398379 7.11741 0.541473 7.69722 0.946817 8.09212L3.44988 10.5322C3.57685 10.656 3.63479 10.8342 3.60488 11.0088L3.01388 14.4542C2.91838 15.012 3.14335 15.5651 3.601 15.8975C4.05875 16.2301 4.65438 16.2732 5.1555 16.01L8.24932 14.3834C8.40625 14.3009 8.59366 14.3009 8.75044 14.3833L11.8445 16.01C12.3456 16.2733 12.9413 16.2301 13.399 15.8975C13.8566 15.5651 14.0816 15.012 13.9861 14.4542L13.3951 11.0089C13.3652 10.8342 13.4231 10.656 13.5502 10.5322L16.053 8.09222Z" fill="url(#paint0_linear_7888_22441)"/>
</g>
<g clip-path="url(#clip1_7888_22441)">
<path d="M34.053 8.09222C34.4585 7.69719 34.6016 7.11741 34.4266 6.57941C34.2519 6.04119 33.7954 5.65628 33.2352 5.57487L29.7762 5.07228C29.6006 5.04666 29.4489 4.93644 29.3704 4.77744L27.8235 1.64281C27.573 1.13547 27.0658 0.820312 26.5 0.820312C25.9341 0.820312 25.4269 1.13547 25.1765 1.64281L23.6296 4.77741C23.5511 4.93647 23.3993 5.04669 23.224 5.07225L19.7648 5.57484C19.2046 5.65628 18.7481 6.04119 18.5735 6.57912C18.3984 7.11741 18.5415 7.69722 18.9468 8.09212L21.4499 10.5322C21.5768 10.656 21.6348 10.8342 21.6049 11.0088L21.0139 14.4542C20.9184 15.012 21.1433 15.5651 21.601 15.8975C22.0588 16.2301 22.6544 16.2732 23.1555 16.01L26.2493 14.3834C26.4063 14.3009 26.5937 14.3009 26.7504 14.3833L29.8445 16.01C30.3456 16.2733 30.9413 16.2301 31.399 15.8975C31.8566 15.5651 32.0816 15.012 31.9861 14.4542L31.3951 11.0089C31.3652 10.8342 31.4231 10.656 31.5502 10.5322L34.053 8.09222Z" fill="url(#paint1_linear_7888_22441)"/>
</g>
<g clip-path="url(#clip2_7888_22441)">
<path d="M52.053 8.09222C52.4585 7.69719 52.6016 7.11741 52.4266 6.57941C52.2519 6.04119 51.7954 5.65628 51.2352 5.57487L47.7762 5.07228C47.6006 5.04666 47.4489 4.93644 47.3704 4.77744L45.8235 1.64281C45.573 1.13547 45.0658 0.820312 44.5 0.820312C43.9341 0.820312 43.4269 1.13547 43.1765 1.64281L41.6296 4.77741C41.5511 4.93647 41.3993 5.04669 41.224 5.07225L37.7648 5.57484C37.2046 5.65628 36.7481 6.04119 36.5735 6.57912C36.3984 7.11741 36.5415 7.69722 36.9468 8.09212L39.4499 10.5322C39.5768 10.656 39.6348 10.8342 39.6049 11.0088L39.0139 14.4542C38.9184 15.012 39.1433 15.5651 39.601 15.8975C40.0588 16.2301 40.6544 16.2732 41.1555 16.01L44.2493 14.3834C44.4063 14.3009 44.5937 14.3009 44.7504 14.3833L47.8445 16.01C48.3456 16.2733 48.9413 16.2301 49.399 15.8975C49.8566 15.5651 50.0816 15.012 49.9861 14.4542L49.3951 11.0089C49.3652 10.8342 49.4231 10.656 49.5502 10.5322L52.053 8.09222Z" fill="url(#paint2_linear_7888_22441)"/>
</g>
<g clip-path="url(#clip3_7888_22441)">
<path fill-rule="evenodd" clip-rule="evenodd" d="M62.5 0.820313C62.5 0.820313 62.5 0.820312 62.5 0.820312C61.9341 0.820312 61.4269 1.13547 61.1765 1.64281L59.6296 4.77741C59.5511 4.93647 59.3993 5.04669 59.224 5.07225L55.7648 5.57484C55.2046 5.65628 54.7481 6.04119 54.5735 6.57912C54.3984 7.11741 54.5415 7.69722 54.9468 8.09212L57.4499 10.5322C57.5768 10.656 57.6348 10.8342 57.6049 11.0088L57.0139 14.4542C56.9184 15.012 57.1433 15.5651 57.601 15.8975C58.0588 16.2301 58.6544 16.2732 59.1555 16.01L62.2493 14.3834C62.3278 14.3421 62.4139 14.3215 62.5 14.3215V0.820313Z" fill="url(#paint3_linear_7888_22441)"/>
</g>
<defs>
<linearGradient id="paint0_linear_7888_22441" x1="8.5" y1="0.820312" x2="8.5" y2="16.181" gradientUnits="userSpaceOnUse">
<stop stop-color="#0C1B22"/>
<stop offset="1" stop-color="#44D8BE"/>
</linearGradient>
<linearGradient id="paint1_linear_7888_22441" x1="26.5" y1="0.820312" x2="26.5" y2="16.181" gradientUnits="userSpaceOnUse">
<stop stop-color="#0C1B22"/>
<stop offset="1" stop-color="#44D8BE"/>
</linearGradient>
<linearGradient id="paint2_linear_7888_22441" x1="44.5" y1="0.820312" x2="44.5" y2="16.181" gradientUnits="userSpaceOnUse">
<stop stop-color="#0C1B22"/>
<stop offset="1" stop-color="#44D8BE"/>
</linearGradient>
<linearGradient id="paint3_linear_7888_22441" x1="58.5" y1="0.820312" x2="58.5" y2="16.181" gradientUnits="userSpaceOnUse">
<stop stop-color="#0C1B22"/>
<stop offset="1" stop-color="#44D8BE"/>
</linearGradient>
<clipPath id="clip0_7888_22441">
<rect width="16" height="16" fill="white" transform="translate(0.5 0.5)"/>
</clipPath>
<clipPath id="clip1_7888_22441">
<rect width="16" height="16" fill="white" transform="translate(18.5 0.5)"/>
</clipPath>
<clipPath id="clip2_7888_22441">
<rect width="16" height="16" fill="white" transform="translate(36.5 0.5)"/>
</clipPath>
<clipPath id="clip3_7888_22441">
<rect width="16" height="16" fill="white" transform="translate(54.5 0.5)"/>
</clipPath>
</defs>
</svg>
