<svg width="17" height="16" viewBox="0 0 17 16" fill="none" xmlns="http://www.w3.org/2000/svg">
<path d="M14.4539 6.51343C14.4015 6.34266 14.3041 6.19076 14.1727 6.07517C14.0413 5.95959 13.8813 5.885 13.7111 5.85997L10.6805 5.40055L9.32517 2.53574C9.24921 2.37495 9.13162 2.23954 8.98572 2.14486C8.83981 2.05018 8.67141 2 8.49958 2C8.32774 2 8.15934 2.05018 8.01343 2.14486C7.86753 2.23954 7.74994 2.37495 7.67398 2.53574L6.3186 5.40055L3.28804 5.85997C3.11811 5.88583 2.9585 5.96074 2.82723 6.07624C2.69595 6.19173 2.59825 6.34321 2.54514 6.51357C2.49204 6.68394 2.48565 6.8664 2.5267 7.04035C2.56775 7.2143 2.6546 7.37281 2.77744 7.49799L4.97102 9.72813L4.45322 12.8765C4.4237 13.0532 4.44229 13.235 4.50687 13.4012C4.57145 13.5675 4.67943 13.7115 4.81854 13.8169C4.95766 13.9223 5.12233 13.9849 5.29384 13.9976C5.46536 14.0103 5.63684 13.9725 5.78881 13.8886L8.49958 12.402L11.2103 13.8886C11.3624 13.9717 11.5337 14.0089 11.7049 13.9959C11.8761 13.9829 12.0404 13.9202 12.1793 13.815C12.3182 13.7097 12.4261 13.5661 12.4909 13.4003C12.5557 13.2344 12.5747 13.053 12.5459 12.8765L12.0281 9.72813L14.2217 7.49737C14.3452 7.37272 14.4324 7.21429 14.4735 7.04025C14.5146 6.86621 14.5078 6.68362 14.4539 6.51343Z" fill="url(#paint0_linear_8090_14117)"/>
<defs>
<linearGradient id="paint0_linear_8090_14117" x1="8.5" y1="2" x2="8.5" y2="14" gradientUnits="userSpaceOnUse">
<stop stop-color="#0C1B22"/>
<stop offset="1" stop-color="#44D8BE"/>
</linearGradient>
</defs>
</svg>
