<svg width="25" height="24" viewBox="0 0 25 24" fill="none" xmlns="http://www.w3.org/2000/svg">
<g clip-path="url(#clip0_6868_86482)">
<path d="M11.1486 2.92664C11.4479 2.00537 12.7513 2.00538 13.0507 2.92664L14.5695 7.60055C14.7034 8.01254 15.0873 8.29148 15.5205 8.29149L20.435 8.29168C21.4037 8.29172 21.8064 9.53127 21.0228 10.1007L17.047 12.9895C16.6965 13.2441 16.5499 13.6955 16.6837 14.1075L18.2022 18.7815C18.5015 19.7028 17.4471 20.4689 16.6634 19.8995L12.6874 17.011C12.3369 16.7564 11.8623 16.7564 11.5119 17.011L7.53583 19.8995C6.75213 20.4689 5.6977 19.7028 5.99701 18.7815L7.5155 14.1075C7.64935 13.6955 7.5027 13.2441 7.15224 12.9895L3.17644 10.1007C2.39278 9.53127 2.79553 8.29172 3.76422 8.29168L8.67872 8.29149C9.11191 8.29148 9.49584 8.01254 9.62972 7.60055L11.1486 2.92664Z" stroke="#545F71" stroke-width="2"/>
</g>
<defs>
<clipPath id="clip0_6868_86482">
<rect width="24" height="24" fill="white" transform="translate(0.0996094)"/>
</clipPath>
</defs>
</svg>
