<svg width="18" height="16" viewBox="0 0 18 16" fill="none" xmlns="http://www.w3.org/2000/svg">
<path d="M11.6665 14V12.6667C11.6665 11.9594 11.3856 11.2811 10.8855 10.781C10.3854 10.281 9.70708 10 8.99984 10H4.33317C3.62593 10 2.94765 10.281 2.44755 10.781C1.94746 11.2811 1.6665 11.9594 1.6665 12.6667V14" stroke="#545F71" stroke-width="2" stroke-linecap="round" stroke-linejoin="round"/>
<path d="M6.66667 7.33333C8.13943 7.33333 9.33333 6.13943 9.33333 4.66667C9.33333 3.19391 8.13943 2 6.66667 2C5.19391 2 4 3.19391 4 4.66667C4 6.13943 5.19391 7.33333 6.66667 7.33333Z" stroke="#545F71" stroke-width="2" stroke-linecap="round" stroke-linejoin="round"/>
<path d="M14.3335 5.33398V9.33398" stroke="#545F71" stroke-width="2" stroke-linecap="round" stroke-linejoin="round"/>
<path d="M16.3335 7.33398H12.3335" stroke="#545F71" stroke-width="2" stroke-linecap="round" stroke-linejoin="round"/>
</svg>
