<svg width="21" height="20" viewBox="0 0 21 20" fill="none" xmlns="http://www.w3.org/2000/svg">
<path fill-rule="evenodd" clip-rule="evenodd" d="M13.0055 1.35486C13.5702 1.01601 14.2161 0.836065 14.8747 0.834052C15.8164 0.828327 16.7239 1.18613 17.4084 1.83292C18.0928 2.47971 18.5013 3.36563 18.5488 4.30612C18.5963 5.24662 18.2791 6.16918 17.6634 6.88164C17.0476 7.5941 16.1806 8.04151 15.2432 8.13069C15.3664 7.52531 15.3618 6.90083 15.2294 6.29736C15.5256 6.23916 15.8028 6.10873 16.0365 5.91765C16.2701 5.72658 16.453 5.48077 16.5689 5.20204C16.6847 4.92331 16.7299 4.6203 16.7005 4.31989C16.6711 4.01949 16.568 3.73099 16.4003 3.48001C16.2327 3.22903 16.0056 3.02333 15.7393 2.88117C15.4731 2.73902 15.1758 2.6648 14.874 2.66512C14.5721 2.66544 14.275 2.74027 14.0091 2.88299C13.7431 3.0257 13.5165 3.23188 13.3493 3.48321C12.8433 3.13018 12.2706 2.8838 11.6663 2.75904C11.978 2.17887 12.4407 1.69371 13.0055 1.35486ZM8.71258 10.2994C9.31556 10.7023 10.0245 10.9173 10.7497 10.9173C11.7221 10.9173 12.6548 10.531 13.3424 9.84341C14.03 9.15578 14.4163 8.22315 14.4163 7.25069C14.4163 6.5255 14.2013 5.81659 13.7984 5.21361C13.3955 4.61063 12.8228 4.14067 12.1528 3.86315C11.4829 3.58563 10.7456 3.51302 10.0343 3.6545C9.32308 3.79597 8.66974 4.14519 8.15695 4.65798C7.64416 5.17077 7.29494 5.8241 7.15346 6.53537C7.01198 7.24663 7.08459 7.98387 7.36212 8.65386C7.63964 9.32386 8.1096 9.89651 8.71258 10.2994ZM9.73113 5.72634C10.0326 5.52489 10.3871 5.41737 10.7497 5.41737C11.2359 5.41737 11.7022 5.61052 12.046 5.95434C12.3899 6.29815 12.583 6.76447 12.583 7.25069C12.583 7.61329 12.4755 7.96775 12.274 8.26924C12.0726 8.57072 11.7863 8.80571 11.4513 8.94447C11.1163 9.08323 10.7476 9.11953 10.392 9.04879C10.0364 8.97806 9.70971 8.80345 9.45331 8.54705C9.19692 8.29066 9.02231 7.96399 8.95157 7.60836C8.88083 7.25273 8.91713 6.88411 9.05589 6.54911C9.19466 6.21411 9.42964 5.92779 9.73113 5.72634ZM6.16634 19.1673C5.92323 19.1673 5.69007 19.0707 5.51816 18.8988C5.34625 18.7269 5.24967 18.4938 5.24967 18.2507V16.4173C5.25113 15.2022 5.73448 14.0373 6.59371 13.178C7.45294 12.3188 8.61788 11.8355 9.83301 11.834H11.6663C12.8815 11.8355 14.0464 12.3188 14.9056 13.178C15.7649 14.0373 16.2482 15.2022 16.2497 16.4173V18.2507C16.2497 18.4938 16.1531 18.7269 15.9812 18.8988C15.8093 19.0707 15.5761 19.1673 15.333 19.1673L14.415 19.1673V17.334H14.4163V16.4173C14.4163 15.688 14.1266 14.9885 13.6109 14.4728C13.0952 13.9571 12.3957 13.6673 11.6663 13.6673H9.83301C9.10366 13.6673 8.40419 13.9571 7.88846 14.4728C7.37274 14.9885 7.08301 15.688 7.08301 16.4173V16.9993H7.08085V19.1673L6.16634 19.1673ZM6.26901 6.29828C6.20168 6.61131 6.16728 6.93051 6.16634 7.25069C6.16836 7.546 6.19906 7.84041 6.25801 8.12977C5.62978 8.06832 5.02817 7.84524 4.51175 7.48226C3.99533 7.11928 3.5817 6.62876 3.31113 6.05847C3.04056 5.48818 2.92226 4.85754 2.96777 4.22796C3.01327 3.59838 3.22102 2.99131 3.57079 2.46586C3.92055 1.9404 4.40042 1.51446 4.96367 1.22951C5.52692 0.944564 6.15435 0.810315 6.78489 0.839836C7.41542 0.869357 8.02757 1.06164 8.56173 1.39797C9.09589 1.7343 9.53386 2.20321 9.83301 2.75904C9.22831 2.88396 8.65538 3.13066 8.14909 3.48413C7.98194 3.23279 7.75532 3.02662 7.48935 2.8839C7.22338 2.74119 6.92629 2.66635 6.62445 2.66604C6.32261 2.66572 6.02536 2.73993 5.75909 2.88209C5.49282 3.02425 5.26577 3.22994 5.0981 3.48093C4.93042 3.73191 4.82731 4.02041 4.79791 4.32081C4.76851 4.62122 4.81374 4.92423 4.92958 5.20296C5.04542 5.48168 5.22829 5.72749 5.46195 5.91857C5.69561 6.10965 5.97283 6.24008 6.26901 6.29828ZM15.333 9.08402H14.9398C14.5648 9.9276 13.9466 10.64 13.1642 11.13C13.184 11.1357 13.2028 11.1435 13.2218 11.1514L13.2218 11.1514L13.2218 11.1514L13.2218 11.1514C13.2397 11.1589 13.2578 11.1664 13.2769 11.1722C13.6337 11.0055 14.0225 10.9185 14.4163 10.9173H15.333C16.0624 10.9173 16.7618 11.2071 17.2776 11.7228C17.7933 12.2385 18.083 12.938 18.083 13.6673V14.584H16.8483C17.0582 15.1725 17.1657 15.7925 17.1663 16.4173H18.9997C19.2428 16.4173 19.4759 16.3208 19.6479 16.1488C19.8198 15.9769 19.9163 15.7438 19.9163 15.5007V13.6673C19.9149 12.4522 19.4315 11.2873 18.5723 10.4281C17.7131 9.56883 16.5481 9.08548 15.333 9.08402ZM3.41634 14.584H4.65109C4.44119 15.1725 4.3336 15.7925 4.33301 16.4173H2.49967C2.25656 16.4173 2.0234 16.3208 1.85149 16.1488C1.67958 15.9769 1.58301 15.7438 1.58301 15.5007V13.6673C1.58446 12.4522 2.06782 11.2873 2.92704 10.4281C3.78627 9.56883 4.95121 9.08548 6.16634 9.08402H6.55959C6.93452 9.9276 7.55279 10.64 8.33517 11.13C8.31498 11.1358 8.29579 11.1438 8.27655 11.1519C8.25912 11.1592 8.24164 11.1665 8.22334 11.1722C7.86623 11.0055 7.47711 10.9185 7.08301 10.9173H6.16634C5.437 10.9173 4.73752 11.2071 4.2218 11.7228C3.70607 12.2385 3.41634 12.938 3.41634 13.6673V14.584Z" fill="#545F71"/>
</svg>
