<svg width="17" height="17" viewBox="0 0 17 17" fill="none" xmlns="http://www.w3.org/2000/svg">
<path fill-rule="evenodd" clip-rule="evenodd" d="M10.3047 1.58369C10.7565 1.31261 11.2731 1.16866 11.8 1.16705C12.5533 1.16247 13.2794 1.44871 13.827 1.96614C14.3745 2.48357 14.7013 3.1923 14.7393 3.9447C14.7773 4.6971 14.5236 5.43515 14.0309 6.00512C13.5383 6.57508 12.8448 6.93302 12.0948 7.00436C12.1934 6.52005 12.1897 6.02047 12.0838 5.5377C12.3207 5.49113 12.5425 5.38679 12.7294 5.23393C12.9164 5.08107 13.0627 4.88442 13.1553 4.66144C13.248 4.43846 13.2842 4.19604 13.2607 3.95572C13.2372 3.7154 13.1547 3.4846 13.0205 3.28381C12.8864 3.08303 12.7047 2.91847 12.4917 2.80474C12.2787 2.69102 12.0409 2.63165 11.7994 2.6319C11.558 2.63215 11.3203 2.69202 11.1075 2.80619C10.8947 2.92037 10.7135 3.08531 10.5797 3.28637C10.1749 3.00395 9.71678 2.80685 9.23333 2.70704C9.4827 2.2429 9.85285 1.85477 10.3047 1.58369ZM6.87033 8.73933C7.35271 9.06165 7.91984 9.23368 8.5 9.23368C9.27797 9.23368 10.0241 8.92464 10.5742 8.37453C11.1243 7.82443 11.4333 7.07833 11.4333 6.30036C11.4333 5.7202 11.2613 5.15308 10.939 4.67069C10.6167 4.18831 10.1585 3.81234 9.62254 3.59032C9.08654 3.36831 8.49675 3.31022 7.92773 3.4234C7.35872 3.53658 6.83605 3.81596 6.42582 4.22619C6.01558 4.63642 5.73621 5.15909 5.62303 5.7281C5.50985 6.29711 5.56793 6.8869 5.78995 7.42289C6.01197 7.95889 6.38794 8.41701 6.87033 8.73933ZM7.68516 5.08088C7.92635 4.91972 8.20992 4.8337 8.5 4.8337C8.88898 4.8337 9.26204 4.98822 9.53709 5.26327C9.81214 5.53833 9.96667 5.91138 9.96667 6.30036C9.96667 6.59044 9.88065 6.874 9.71949 7.11519C9.55833 7.35638 9.32927 7.54437 9.06127 7.65538C8.79327 7.76639 8.49837 7.79543 8.21387 7.73884C7.92936 7.68225 7.66803 7.54256 7.46291 7.33745C7.25779 7.13233 7.11811 6.871 7.06151 6.58649C7.00492 6.30199 7.03397 6.00709 7.14498 5.73909C7.25598 5.4711 7.44397 5.24203 7.68516 5.08088ZM4.83333 15.8337C4.63884 15.8337 4.45231 15.7564 4.31479 15.6189C4.17726 15.4813 4.1 15.2948 4.1 15.1003V13.6337C4.10116 12.6616 4.48785 11.7296 5.17523 11.0422C5.86261 10.3549 6.79456 9.96818 7.76667 9.96701H9.23333C10.2054 9.96818 11.1374 10.3549 11.8248 11.0422C12.5122 11.7296 12.8988 12.6616 12.9 13.6337V15.1003C12.9 15.2948 12.8227 15.4813 12.6852 15.6189C12.5477 15.7564 12.3612 15.8337 12.1667 15.8337L11.4323 15.8337V14.367H11.4333V13.6337C11.4333 13.0502 11.2015 12.4906 10.789 12.078C10.3764 11.6655 9.81681 11.4337 9.23333 11.4337H7.76667C7.18319 11.4337 6.62361 11.6655 6.21103 12.078C5.79845 12.4906 5.56667 13.0502 5.56667 13.6337V14.0993H5.56494V15.8337L4.83333 15.8337ZM4.91547 5.53843C4.86161 5.78885 4.83408 6.04421 4.83333 6.30036C4.83494 6.5366 4.8595 6.77213 4.90667 7.00362C4.40408 6.95446 3.9228 6.776 3.50966 6.48561C3.09653 6.19523 2.76562 5.80282 2.54916 5.34658C2.3327 4.89035 2.23807 4.38584 2.27447 3.88218C2.31087 3.37851 2.47707 2.89285 2.75689 2.47249C3.0367 2.05212 3.4206 1.71137 3.8712 1.48341C4.32179 1.25546 4.82374 1.14806 5.32817 1.17167C5.8326 1.19529 6.32232 1.34912 6.74964 1.61818C7.17697 1.88724 7.52735 2.26237 7.76667 2.70704C7.28291 2.80697 6.82456 3.00434 6.41953 3.2871C6.28581 3.08604 6.10452 2.9211 5.89174 2.80693C5.67897 2.69276 5.44129 2.63289 5.19982 2.63263C4.95835 2.63238 4.72055 2.69175 4.50753 2.80548C4.29452 2.9192 4.11288 3.08376 3.97874 3.28455C3.8446 3.48533 3.7621 3.71613 3.73859 3.95645C3.71507 4.19678 3.75125 4.43919 3.84393 4.66217C3.9366 4.88515 4.08289 5.0818 4.26982 5.23466C4.45675 5.38752 4.67853 5.49187 4.91547 5.53843ZM12.1667 7.76702H11.8521C11.5521 8.44189 11.0575 9.01183 10.4316 9.40382C10.4474 9.40834 10.4625 9.41461 10.4777 9.42093C10.492 9.4269 10.5065 9.43292 10.5218 9.43755C10.8072 9.30421 11.1183 9.23464 11.4333 9.23368H12.1667C12.7501 9.23368 13.3097 9.46547 13.7223 9.87804C14.1349 10.2906 14.3667 10.8502 14.3667 11.4337V12.167H13.3789C13.5468 12.6378 13.6329 13.1338 13.6333 13.6337H15.1C15.2945 13.6337 15.481 13.5564 15.6185 13.4189C15.7561 13.2814 15.8333 13.0948 15.8333 12.9003V11.4337C15.8322 10.4616 15.4455 9.52962 14.7581 8.84224C14.0707 8.15487 13.1388 7.76819 12.1667 7.76702ZM2.63333 12.167H3.62113C3.45321 12.6378 3.36714 13.1338 3.36667 13.6337H1.9C1.70551 13.6337 1.51898 13.5564 1.38145 13.4189C1.24393 13.2814 1.16667 13.0948 1.16667 12.9003V11.4337C1.16783 10.4616 1.55451 9.52962 2.24189 8.84224C2.92927 8.15487 3.86123 7.76819 4.83333 7.76702H5.14793C5.44788 8.44189 5.94249 9.01183 6.5684 9.40382C6.55225 9.40843 6.5369 9.41486 6.52152 9.42131L6.52151 9.42131L6.5215 9.42131C6.50756 9.42716 6.49358 9.43302 6.47893 9.43755C6.19324 9.30419 5.88195 9.23462 5.56667 9.23368H4.83333C4.24986 9.23368 3.69028 9.46547 3.2777 9.87804C2.86512 10.2906 2.63333 10.8502 2.63333 11.4337V12.167Z" fill="#ACB4C0"/>
</svg>
