<svg width="77" height="76" viewBox="0 0 77 76" fill="none" xmlns="http://www.w3.org/2000/svg">
<path d="M0.5 38C0.5 17.0132 17.5132 0 38.5 0V0C59.4868 0 76.5 17.0132 76.5 38V38C76.5 58.9868 59.4868 76 38.5 76V76C17.5132 76 0.5 58.9868 0.5 38V38Z" fill="#ACB4C0"/>
<path d="M58.5 60.5V55.5C58.5 52.8478 57.4464 50.3043 55.5711 48.4289C53.6957 46.5536 51.1522 45.5 48.5 45.5H28.5C25.8478 45.5 23.3043 46.5536 21.4289 48.4289C19.5536 50.3043 18.5 52.8478 18.5 55.5V60.5" stroke="white" stroke-width="5" stroke-linecap="round" stroke-linejoin="round"/>
<path d="M38.5 35.5C44.0228 35.5 48.5 31.0228 48.5 25.5C48.5 19.9772 44.0228 15.5 38.5 15.5C32.9772 15.5 28.5 19.9772 28.5 25.5C28.5 31.0228 32.9772 35.5 38.5 35.5Z" stroke="white" stroke-width="5" stroke-linecap="round" stroke-linejoin="round"/>
</svg>
