<svg width="17" height="16" viewBox="0 0 17 16" fill="none" xmlns="http://www.w3.org/2000/svg">
<path d="M14.89 4.12665C14.8044 4.06492 14.7054 4.0244 14.6011 4.0084C14.4968 3.99241 14.3901 4.0014 14.29 4.03465L11.1673 5.07532V4.66732C11.1673 4.3137 11.0268 3.97456 10.7768 3.72451C10.5267 3.47446 10.1876 3.33398 9.83398 3.33398H3.16732C2.8137 3.33398 2.47456 3.47446 2.22451 3.72451C1.97446 3.97456 1.83398 4.3137 1.83398 4.66732V11.334C1.83398 11.6876 1.97446 12.0267 2.22451 12.2768C2.47456 12.5268 2.8137 12.6673 3.16732 12.6673H9.83398C10.1876 12.6673 10.5267 12.5268 10.7768 12.2768C11.0268 12.0267 11.1673 11.6876 11.1673 11.334V10.926L14.29 11.9667C14.358 11.9891 14.4291 12.0006 14.5007 12.0007C14.6775 12.0007 14.847 11.9304 14.9721 11.8054C15.0971 11.6804 15.1673 11.5108 15.1673 11.334V4.66732C15.1672 4.56167 15.1421 4.45755 15.0938 4.36355C15.0456 4.26955 14.9757 4.18835 14.89 4.12665ZM3.16732 11.334V4.66732H9.83398V11.334H3.16732ZM13.834 10.4093L11.1673 9.51998V6.48132L13.834 5.59198V10.4093Z" fill="#DEE1E3"/>
</svg>
