<svg width="600" height="600" viewBox="0 0 600 600" fill="none" xmlns="http://www.w3.org/2000/svg">
<g clip-path="url(#clip0_935_4336)">
<path d="M503.039 209.512C504.549 209.522 504.549 209.522 506.089 209.532C509.269 209.562 512.449 209.622 515.629 209.692C517.799 209.712 519.969 209.732 522.139 209.752C527.429 209.812 532.709 209.892 537.999 210.002C542.979 233.552 547.959 257.112 552.919 280.672C553.379 282.822 553.829 284.962 554.279 287.112C554.509 288.182 554.729 289.252 554.959 290.342C556.529 297.772 558.099 305.202 559.669 312.622C561.579 321.662 563.479 330.702 565.379 339.742C566.379 344.492 567.389 349.252 568.389 354.002C569.339 358.462 570.269 362.922 571.209 367.382C571.549 369.022 571.899 370.652 572.249 372.282C572.719 374.512 573.189 376.742 573.649 378.962C574.039 380.832 574.039 380.832 574.449 382.742C574.999 386.002 574.999 386.002 574.999 391.002C560.479 391.002 545.959 391.002 530.999 391.002C528.839 382.372 526.749 373.722 524.999 365.002C495.799 364.502 495.799 364.502 465.999 364.002C465.339 366.972 464.679 369.942 463.999 373.002C461.689 378.942 459.379 384.882 456.999 391.002C440.499 391.002 423.999 391.002 406.999 391.002C408.969 385.092 410.979 379.382 413.379 373.662C413.699 372.882 414.029 372.102 414.359 371.302C415.429 368.742 416.489 366.182 417.559 363.622C418.319 361.802 419.079 359.982 419.839 358.152C422.219 352.432 424.609 346.712 426.999 341.002C427.759 339.192 428.509 337.382 429.269 335.572C433.369 325.762 437.469 315.962 441.579 306.162C444.659 298.812 447.729 291.462 450.799 284.122C453.799 276.952 456.799 269.792 459.809 262.632C461.909 257.622 463.999 252.612 466.079 247.592C467.349 244.532 468.629 241.462 469.919 238.402C470.499 236.992 471.089 235.582 471.669 234.172C479.229 215.842 479.229 215.842 489.189 211.042C493.809 209.332 498.159 209.382 503.039 209.512ZM502.999 263.002C502.799 263.552 502.599 264.102 502.399 264.672C500.289 270.522 498.179 276.362 496.069 282.202C495.279 284.372 494.499 286.542 493.719 288.712C492.579 291.862 491.439 295.012 490.309 298.152C489.959 299.102 489.619 300.052 489.269 301.022C486.249 309.372 483.119 317.682 479.999 326.002C492.539 326.002 505.079 326.002 517.999 326.002C513.709 305.212 509.419 284.422 504.999 263.002C504.339 263.002 503.679 263.002 502.999 263.002Z" fill="#2E3898"/>
<path d="M7.83973 208.855C8.90973 208.845 8.90973 208.845 10.0097 208.845C12.3897 208.835 14.7697 208.835 17.1497 208.835C18.8097 208.825 20.4697 208.825 22.1197 208.825C25.5997 208.815 29.0897 208.815 32.5697 208.815C37.0097 208.815 41.4497 208.805 45.8897 208.785C49.3197 208.775 52.7497 208.775 56.1797 208.775C57.8097 208.775 59.4497 208.765 61.0797 208.755C84.3897 208.655 84.3897 208.655 91.9997 215.005C95.5197 218.795 96.8197 221.945 97.9797 226.975C98.1397 227.665 98.2997 228.355 98.4697 229.065C100.64 238.485 102.47 247.985 104.33 257.465C104.73 259.485 105.12 261.505 105.52 263.525C106.56 268.775 107.59 274.025 108.62 279.285C109.68 284.665 110.74 290.055 111.8 295.435C113.87 305.955 115.94 316.475 118 327.005C119.71 324.435 120.67 322.485 121.71 319.635C122.04 318.745 122.37 317.855 122.71 316.935C123.07 315.955 123.43 314.975 123.8 313.965C124.18 312.935 124.56 311.895 124.95 310.835C125.79 308.575 126.62 306.315 127.44 304.055C129.44 298.615 131.45 293.175 133.46 287.735C134.17 285.815 134.88 283.895 135.58 281.975C140.6 268.355 145.65 254.755 150.71 241.155C151.94 237.855 153.16 234.555 154.39 231.255C155.52 228.205 156.66 225.155 157.79 222.105C158.21 220.995 158.62 219.875 159.04 218.725C159.61 217.215 159.61 217.215 160.18 215.675C160.51 214.785 160.84 213.905 161.18 212.995C162 211.005 162 211.005 163 210.005C164.57 209.905 166.14 209.885 167.7 209.885C168.7 209.885 169.71 209.885 170.74 209.885C171.83 209.895 172.91 209.895 174.04 209.905C175.7 209.905 175.7 209.905 177.39 209.905C180.95 209.915 184.51 209.925 188.06 209.935C190.47 209.945 192.87 209.945 195.28 209.955C201.18 209.965 207.09 209.975 213 210.005C212.42 213.245 211.65 216.165 210.4 219.205C209.9 220.425 209.9 220.425 209.4 221.655C209.04 222.535 208.67 223.405 208.3 224.305C207.92 225.245 207.54 226.175 207.14 227.135C205.87 230.235 204.59 233.335 203.31 236.435C202.41 238.635 201.51 240.835 200.6 243.045C198.7 247.675 196.8 252.315 194.89 256.955C190.74 267.075 186.61 277.215 182.49 287.345C181.12 290.705 179.75 294.055 178.39 297.405C174.09 307.955 169.8 318.495 165.51 329.045C163.52 333.925 161.54 338.795 159.56 343.675C158.62 345.975 157.68 348.275 156.75 350.575C155.44 353.795 154.13 357.015 152.82 360.235C152.45 361.145 152.08 362.055 151.7 362.995C147.88 372.365 143.93 381.675 140 391.005C123.5 391.005 107 391.005 89.9997 391.005C88.1797 385.545 86.4697 380.275 84.9997 374.745C84.7297 373.735 84.7297 373.735 84.4597 372.715C83.8797 370.505 83.2897 368.295 82.7097 366.095C82.2897 364.505 81.8697 362.925 81.4497 361.335C80.3197 357.085 79.1997 352.835 78.0697 348.575C76.8997 344.155 75.7297 339.735 74.5597 335.305C74.0797 333.515 73.6097 331.715 73.1297 329.925C72.8997 329.025 72.6597 328.135 72.4197 327.215C71.6997 324.495 70.9797 321.775 70.2597 319.045C67.3397 308.035 64.3997 297.025 61.4497 286.015C60.2597 281.565 59.0697 277.115 57.8797 272.675C56.9397 269.185 56.0097 265.705 55.0697 262.225C54.0297 258.385 53.0097 254.545 51.9797 250.715C51.5197 249.025 51.5197 249.025 51.0597 247.305C50.7797 246.275 50.5097 245.245 50.2297 244.185C49.9897 243.305 49.7497 242.415 49.4997 241.495C48.9897 238.935 48.9097 236.615 48.9997 234.005C47.9797 233.615 47.9797 233.615 46.9497 233.225C44.1897 232.075 41.5497 230.775 38.8797 229.435C26.4297 223.245 13.2297 219.185 -0.000273438 215.005C-0.0402734 213.335 -0.0402734 211.665 -0.000273438 210.005C1.90973 208.095 5.30973 208.865 7.83973 208.855Z" fill="#2F3898"/>
<path d="M375.25 206.687C376.4 206.687 376.4 206.687 377.56 206.677C391.97 206.667 404.72 208.047 418 213.997C417.42 222.437 416.38 230.717 415 239.067C414.73 240.727 414.73 240.727 414.46 242.437C413.14 250.587 413.14 250.587 412 253.997C410.24 253.377 410.24 253.377 408.44 252.747C392.1 247.317 372.62 241.767 355.93 248.887C351.17 251.407 348.75 253.747 347.06 258.807C346.98 263.157 348.14 265.837 351 268.997C359.1 274.947 368.22 279.427 377.13 284.017C390.82 291.257 404.08 301.287 409.75 316.187C414.09 330.627 411.98 345.787 405 358.997C394.64 375.867 378.99 385.647 360.12 390.497C359.42 390.667 358.72 390.827 358 390.997C357.22 391.187 356.45 391.367 355.65 391.557C347.27 393.317 338.9 393.437 330.37 393.437C329.23 393.437 329.23 393.437 328.06 393.447C310.3 393.427 293.4 391.077 277 383.997C277.83 378.647 278.67 373.287 279.51 367.927C279.79 366.107 280.08 364.287 280.36 362.457C280.77 359.847 281.18 357.227 281.59 354.607C281.78 353.377 281.78 353.377 281.97 352.137C282.47 348.987 282.99 346.027 284 342.997C288.29 343.667 292.04 345.187 296 346.877C312.45 353.657 333.07 357.597 350.26 351.147C354.56 349.187 357.57 347.187 360 342.997C361.24 338.877 361.3 335.947 359.69 331.997C354.74 323.517 344.15 319.367 335.69 315.187C318.7 306.547 305.66 296.997 298 278.997C294.83 268.067 296.34 255.187 301 244.997C301.35 244.217 301.7 243.427 302.06 242.617C309.59 227.597 323.69 217.907 339 211.997C351.25 207.977 362.45 206.727 375.25 206.687Z" fill="#2E3898"/>
<path d="M231 209C246.84 209 262.68 209 279 209C277.18 221.74 275.34 234.46 273.27 247.16C273.02 248.75 272.76 250.34 272.5 251.93C271.82 256.17 271.13 260.4 270.45 264.64C269.72 269.1 269 273.55 268.28 278.01C266.93 286.41 265.57 294.82 264.2 303.22C262.65 312.8 261.1 322.38 259.55 331.96C256.37 351.64 253.19 371.32 250 391C234.16 391 218.32 391 202 391C203.13 377.5 203.13 377.5 204.14 371.24C204.25 370.55 204.36 369.86 204.47 369.15C204.84 366.88 205.21 364.62 205.58 362.36C205.84 360.71 206.11 359.07 206.37 357.43C207.08 353.01 207.8 348.58 208.52 344.16C209.27 339.52 210.02 334.88 210.77 330.24C212.03 322.46 213.29 314.69 214.56 306.91C216.02 297.92 217.47 288.92 218.93 279.93C220.33 271.26 221.73 262.6 223.14 253.93C223.73 250.25 224.33 246.56 224.92 242.88C225.62 238.55 226.33 234.22 227.03 229.89C227.29 228.3 227.55 226.71 227.81 225.12C228.15 222.95 228.51 220.79 228.86 218.62C229.06 217.41 229.26 216.19 229.46 214.94C230 212 230 212 231 209Z" fill="#2E3898"/>
<path d="M7.83973 208.855C8.90973 208.845 8.90973 208.845 10.0097 208.845C12.3897 208.835 14.7697 208.835 17.1497 208.835C18.8097 208.825 20.4697 208.825 22.1197 208.825C25.5997 208.815 29.0897 208.815 32.5697 208.815C37.0097 208.815 41.4497 208.805 45.8897 208.785C49.3197 208.775 52.7497 208.775 56.1797 208.775C57.8097 208.775 59.4497 208.765 61.0797 208.755C84.3897 208.655 84.3897 208.655 91.9997 215.005C95.6297 218.885 96.8597 222.175 98.0497 227.325C98.2897 228.375 98.2897 228.375 98.5497 229.445C99.0497 231.625 99.5297 233.815 99.9997 236.005C100.14 236.665 100.29 237.325 100.43 238.005C101.42 242.595 102.33 247.215 103.23 251.825C103.52 253.265 103.81 254.715 104.09 256.155C104.68 259.145 105.27 262.135 105.86 265.135C106.61 268.955 107.36 272.775 108.12 276.605C108.71 279.565 109.3 282.535 109.88 285.505C110.16 286.915 110.43 288.325 110.72 289.735C111.1 291.705 111.49 293.665 111.87 295.625C112.09 296.745 112.31 297.855 112.53 299.005C112.96 301.735 113.09 304.245 113 307.005C111.22 304.325 109.83 301.645 108.44 298.755C101.66 284.725 93.4897 272.535 82.9997 261.005C81.8297 259.705 81.8297 259.705 80.6397 258.385C59.1997 235.835 29.4897 223.315 -0.000273438 215.005C-0.0402734 213.335 -0.0402734 211.665 -0.000273438 210.005C1.90973 208.095 5.30973 208.865 7.83973 208.855Z" fill="#F89A0B"/>
<path d="M595 369C598 370.94 598 370.94 600 374C600.7 377.47 600.73 380.53 600 384C597.81 386.82 596.17 388.42 593 390C587.14 390.68 587.14 390.68 584.24 388.95C582.06 387.16 580.27 385.54 579 383C578.42 375.95 578.42 375.95 580.75 372.12C585.28 367.85 588.91 367.19 595 369ZM582 376C581.17 379 581.17 379 582 382C584.49 385.36 585.91 386.8 590.06 387.56C593.04 387.18 593.04 387.18 595.38 385.5C597.35 382.46 597.64 380.48 597.45 376.91C597.09 374.71 597.09 374.71 594.81 372.5C588.91 369.35 586.01 370.73 582 376Z" fill="#6B73B6"/>
<path d="M231 209C246.84 209 262.68 209 279 209C278.67 211.97 278.34 214.94 278 218C277.67 218 277.34 218 277 218C277 215.69 277 213.38 277 211C261.82 211.33 246.64 211.66 231 212C231 211.01 231 210.02 231 209Z" fill="#6B74B6"/>
<path d="M585 373C591.31 372.64 591.31 372.64 593.94 374C595.67 377.27 595.18 380.34 595 384C593.68 384.33 592.36 384.66 591 385C591 383.68 591 382.36 591 381C590.34 381 589.68 381 589 381C589 382.32 589 383.64 589 385C587.68 385 586.36 385 585 385C585 381.04 585 377.08 585 373ZM588 376C588 376.66 588 377.32 588 378C588.99 378 589.98 378 591 378C591 377.34 591 376.68 591 376C590.01 376 589.02 376 588 376Z" fill="#9095C8"/>
<path d="M163 210C179.5 210 196 210 213 210C212.67 211.65 212.34 213.3 212 215C211.34 213.68 210.68 212.36 210 211C194.49 211 178.98 211 163 211C163 210.67 163 210.34 163 210Z" fill="#6A72B6"/>
<path d="M321 221C321.66 221.33 322.32 221.66 323 222C321.61 223.59 320.21 225.17 318.81 226.75C318.04 227.63 317.26 228.51 316.46 229.42C314.12 231.88 311.7 233.95 309 236C309 232 309 232 310.61 229.96C311.32 229.3 312.02 228.63 312.75 227.94C313.45 227.27 314.14 226.59 314.86 225.9C316.84 224.15 318.86 222.55 321 221Z" fill="#5860AC"/>
<path d="M592 368C592 368.66 592 369.32 592 370C591.43 370.27 590.87 370.53 590.29 370.8C589.55 371.16 588.82 371.51 588.06 371.88C587.33 372.22 586.6 372.57 585.85 372.93C583.84 373.87 583.84 373.87 583 376C582.34 376 581.68 376 581 376C581 377.98 581 379.96 581 382C580.67 382 580.34 382 580 382C579.71 378.95 579.56 376.04 580 373C583.79 369.01 586.63 367.86 592 368Z" fill="#5E66B0"/>
<path d="M596 370C598.31 371.81 598.31 371.81 600 374C599.81 375.94 599.81 375.94 599 378C598.66 379.67 598.32 381.33 598 383C597.67 383 597.34 383 597 383C596.92 381.74 596.84 380.48 596.75 379.19C596.35 375.75 596.35 375.75 594.12 373.12C593.42 372.75 592.72 372.38 592 372C591.01 371.34 590.02 370.68 589 370C592.2 368.93 592.97 368.81 596 370Z" fill="#7C83BF"/>
<path d="M586 374C587.32 374 588.64 374 590 374C590 374.66 590 375.32 590 376C589.34 376 588.68 376 588 376C588 376.99 588 377.98 588 379C589.32 379.33 590.64 379.66 592 380C591.01 380.33 590.02 380.66 589 381C588.67 381.99 588.34 382.98 588 384C587.34 384 586.68 384 586 384C586 380.7 586 377.4 586 374Z" fill="#37419C"/>
<path d="M284 343C285.65 343.33 287.3 343.66 289 344C288.38 344.5 287.76 344.99 287.12 345.5C284.25 348.88 283.87 351.67 283 356C281.93 352.73 282.11 350.57 282.94 347.25C283.13 346.45 283.33 345.65 283.53 344.83C283.68 344.22 283.84 343.62 284 343Z" fill="#6C74B7"/>
<path d="M581 383C582.98 383.99 584.96 384.98 587 386C586.67 386.99 586.34 387.98 586 389C584.06 388.25 584.06 388.25 582 387C581.25 384.88 581.25 384.88 581 383Z" fill="#6C73B6"/>
</g>
<defs>
<clipPath id="clip0_935_4336">
<rect width="600" height="600" fill="white"/>
</clipPath>
</defs>
</svg>
