<svg width="20" height="21" viewBox="0 0 20 21" fill="none" xmlns="http://www.w3.org/2000/svg">
<path d="M12.5 4.66602V6.33268M12.5 9.66602V11.3327M12.5 14.666V16.3327M4.16667 4.66602C3.24619 4.66602 2.5 5.41221 2.5 6.33268V8.83268C3.42047 8.83268 4.16667 9.57887 4.16667 10.4993C4.16667 11.4198 3.42047 12.166 2.5 12.166V14.666C2.5 15.5865 3.24619 16.3327 4.16667 16.3327H15.8333C16.7538 16.3327 17.5 15.5865 17.5 14.666V12.166C16.5795 12.166 15.8333 11.4198 15.8333 10.4993C15.8333 9.57887 16.5795 8.83268 17.5 8.83268V6.33268C17.5 5.41221 16.7538 4.66602 15.8333 4.66602H4.16667Z" stroke="#545F71" stroke-width="2" stroke-linecap="round" stroke-linejoin="round"/>
</svg>
