<svg width="24" height="24" viewBox="0 0 24 24" fill="none" xmlns="http://www.w3.org/2000/svg">
<path d="M17.5545 13.1109C18.1681 13.1109 18.6656 12.6134 18.6656 11.9998C18.6656 11.3861 18.1681 10.8887 17.5545 10.8887C16.9408 10.8887 16.4434 11.3861 16.4434 11.9998C16.4434 12.6134 16.9408 13.1109 17.5545 13.1109Z" fill="#545F71"/>
<path d="M5.22424 22H17.017C18.5599 22 19.9987 21.1294 20.772 19.728C21.0118 19.2934 20.8701 18.7372 20.4556 18.4858C20.0411 18.2344 19.5106 18.3829 19.2708 18.8175C18.8065 19.659 17.9429 20.1818 17.017 20.1818H5.22424C3.78986 20.1818 2.6229 18.9584 2.6229 17.4545V6.54545C2.6229 5.04164 3.78986 3.81818 5.22424 3.81818H17.017C17.9429 3.81818 18.8065 4.34095 19.2708 5.1825C19.5106 5.61714 20.0411 5.76559 20.4556 5.51418C20.8701 5.26277 21.0118 4.70668 20.772 4.27205C19.9987 2.87059 18.5599 2 17.017 2H5.22424C2.83361 2 0.888672 4.03909 0.888672 6.54545V17.4545C0.888672 19.9609 2.83361 22 5.22424 22Z" fill="#545F71"/>
<path d="M20.6113 7.55469H17.278C14.9805 7.55469 13.1113 9.54847 13.1113 11.9991C13.1113 14.4498 14.9805 16.4436 17.278 16.4436H20.6113C21.9898 16.4436 23.1113 15.2473 23.1113 13.7769V10.2214C23.1113 8.75095 21.9898 7.55469 20.6113 7.55469ZM21.4447 13.7769C21.4447 14.267 21.0708 14.6658 20.6113 14.6658H17.278C15.8995 14.6658 14.778 13.4695 14.778 11.9991C14.778 10.5287 15.8995 9.33247 17.278 9.33247H20.6113C21.0708 9.33247 21.4447 9.73122 21.4447 10.2214V13.7769Z" fill="#545F71"/>
</svg>
