<svg width="24" height="24" viewBox="0 0 24 24" fill="none" xmlns="http://www.w3.org/2000/svg">
<path d="M10.3057 5.19141C7.2622 5.19141 4.67892 7.19892 3.81005 9.9592C3.42094 9.69933 2.95392 9.54745 2.45194 9.54745C1.09992 9.5475 0 10.6474 0 11.9994C0 13.3515 1.09992 14.4514 2.45194 14.4514C2.95392 14.4514 3.42098 14.2995 3.81005 14.0396C4.67892 16.8 7.26216 18.8074 10.3057 18.8074C13.883 18.8074 16.8247 16.0342 17.0936 12.5247L24 10.3968V5.19141H10.3057ZM2.45194 13.0451C1.87533 13.0451 1.40625 12.576 1.40625 11.9994C1.40625 11.4228 1.87533 10.9537 2.45194 10.9537C3.02855 10.9537 3.49762 11.4228 3.49762 11.9994C3.49762 12.576 3.02855 13.0451 2.45194 13.0451ZM22.5938 9.35855L17.1137 11.047V10.0503C17.1137 9.66196 16.7989 9.34716 16.4106 9.34716C16.0222 9.34716 15.7074 9.66196 15.7074 10.0503V11.9994C15.7074 14.978 13.2842 17.4012 10.3057 17.4012C7.32708 17.4012 4.90387 14.978 4.90387 11.9994C4.90387 9.02086 7.32708 6.59766 10.3057 6.59766H22.5938V9.35855Z" fill="white"/>
<circle cx="10.5" cy="12" r="1.5" fill="white"/>
</svg>
